<svg width="119" height="88" viewBox="0 0 119 88" fill="none" xmlns="http://www.w3.org/2000/svg">
<path d="M117.775 24.231L94.8259 1.28136C94.6504 1.10584 94.4421 0.966605 94.2128 0.871611C93.9835 0.776618 93.7377 0.727726 93.4895 0.727726C93.2413 0.727726 92.9956 0.776618 92.7663 0.871611C92.537 0.966605 92.3286 1.10584 92.1532 1.28136L80.6785 12.756C80.3242 13.1105 80.1252 13.5911 80.1252 14.0923C80.1252 14.5934 80.3242 15.074 80.6785 15.4285L81.8233 16.5733L79.1928 19.2035C78.34 20.0407 77.2533 20.5996 76.0762 20.8064C74.8991 21.0132 73.687 20.8581 72.5998 20.3616C70.2976 19.3188 67.7846 18.8248 65.2589 18.9187C62.7332 19.0126 60.2638 19.6918 58.0454 20.9027C55.5949 20.2985 53.0202 20.4358 50.648 21.2973C49.5917 21.7019 48.4411 21.7934 47.3341 21.561C46.2271 21.3285 45.2105 20.7819 44.4061 19.9865L39.683 15.2631L40.2451 14.7011C40.5993 14.3466 40.7983 13.866 40.7983 13.3648C40.7983 12.8637 40.5993 12.3831 40.2451 12.0286L28.7719 0.553634C28.5964 0.378113 28.3881 0.238881 28.1588 0.143887C27.9295 0.0488939 27.6837 0 27.4355 0C27.1873 0 26.9416 0.0488939 26.7123 0.143887C26.483 0.238881 26.2746 0.378113 26.0991 0.553634L0.553363 26.0985C0.199045 26.453 0 26.9336 0 27.4348C0 27.9359 0.199045 28.4166 0.553363 28.771L12.0277 40.2457C12.3822 40.6001 12.863 40.7992 13.3643 40.7992C13.8655 40.7992 14.3463 40.6001 14.7008 40.2457L15.385 39.5614L18.7163 42.8927C19.5486 43.7176 20.1104 44.776 20.3273 45.9275C21.4223 51.8423 24.2887 57.2846 28.5468 61.5334L29.1742 62.1608C28.2583 63.1251 27.6453 64.3368 27.4113 65.646C27.1773 66.9552 27.3326 68.3043 27.8578 69.5262C28.383 70.748 29.2552 71.7889 30.3662 72.5199C31.4772 73.2509 32.7783 73.6399 34.1083 73.6387C34.2219 73.6387 34.3349 73.6358 34.4482 73.6299C34.4013 74.5505 34.5422 75.4709 34.8623 76.3354C35.1824 77.1998 35.675 77.9901 36.3101 78.6581C36.9452 79.3262 37.7096 79.8581 38.5567 80.2214C39.4039 80.5847 40.3161 80.7719 41.2379 80.7716C41.2885 80.7716 41.3388 80.769 41.3896 80.7681C41.3594 82.1254 41.7362 83.4607 42.4715 84.6019C43.2069 85.7432 44.2671 86.6382 45.5156 87.1716C46.7641 87.7049 48.1436 87.8523 49.4766 87.5947C50.8096 87.3371 52.0349 86.6862 52.9948 85.7261C53.103 85.6178 53.2048 85.506 53.3045 85.3927C54.8613 85.9351 56.5678 85.8515 58.0642 85.1597C59.5605 84.4679 60.7296 83.2219 61.3248 81.6845L61.5183 81.878C62.2717 82.6305 63.2021 83.1817 64.224 83.481C65.2459 83.7803 66.3266 83.818 67.3669 83.5907C68.4072 83.3635 69.3738 82.8785 70.1778 82.1804C70.9818 81.4822 71.5976 80.5933 71.9686 79.5951C72.9166 80.2838 74.0366 80.6969 75.2047 80.7888C76.3729 80.8806 77.5437 80.6476 78.5877 80.1156C79.6316 79.5835 80.5082 78.7731 81.1203 77.7739C81.7324 76.7748 82.0563 75.6258 82.0561 74.454C82.0565 73.9479 81.9969 73.4434 81.8786 72.9513C82.9137 72.7385 83.8795 72.2709 84.6884 71.5909C85.4973 70.9108 86.1238 70.0398 86.5113 69.0566C86.8988 68.0735 87.035 67.0092 86.9075 65.9601C86.7801 64.9111 86.393 63.9104 85.7814 63.0486L87.2975 61.5325C91.6046 57.2364 94.4869 51.7202 95.5539 45.7311C95.7462 44.7027 96.2498 43.7582 96.9967 43.0255L102.635 37.3868L103.627 38.3781C103.981 38.7326 104.462 38.9317 104.963 38.9317C105.464 38.9317 105.945 38.7326 106.3 38.3781L117.774 26.9035C117.95 26.728 118.089 26.5197 118.184 26.2904C118.279 26.0612 118.328 25.8154 118.328 25.5672C118.328 25.319 118.279 25.0733 118.184 24.844C118.089 24.6147 117.951 24.4064 117.775 24.231ZM13.3643 36.2373L4.56236 27.4351L27.4351 4.56233L36.2382 13.3645L13.3643 36.2373ZM36.2465 68.9775C35.8239 69.3997 35.2856 69.6872 34.6997 69.8035C34.1137 69.9199 33.5064 69.8599 32.9546 69.6312C32.4027 69.4025 31.9311 69.0153 31.5992 68.5185C31.2674 68.0218 31.0903 67.4378 31.0903 66.8404C31.0903 66.243 31.2674 65.6591 31.5992 65.1624C31.9311 64.6656 32.4027 64.2784 32.9546 64.0497C33.5064 63.821 34.1137 63.761 34.6997 63.8774C35.2856 63.9937 35.8239 64.2812 36.2465 64.7034C36.8122 65.2707 37.13 66.0392 37.13 66.8404C37.13 67.6416 36.8122 68.4102 36.2465 68.9775ZM43.3758 76.1068C42.9532 76.5289 42.415 76.8163 41.8291 76.9326C41.2433 77.0489 40.6361 76.9889 40.0843 76.7602C39.5325 76.5315 39.061 76.1443 38.7292 75.6476C38.3974 75.1509 38.2203 74.5671 38.2203 73.9698C38.2203 73.3725 38.3974 72.7886 38.7292 72.2919C39.061 71.7952 39.5325 71.4081 40.0843 71.1793C40.6361 70.9506 41.2433 70.8906 41.8291 71.0069C42.415 71.1232 42.9532 71.4106 43.3758 71.8327C43.6592 72.1118 43.8842 72.4445 44.0378 72.8114C44.1915 73.1783 44.2706 73.572 44.2706 73.9698C44.2706 74.3675 44.1915 74.7613 44.0378 75.1282C43.8842 75.495 43.6592 75.8277 43.3758 76.1068ZM50.3226 83.0533C49.9 83.4754 49.3618 83.7628 48.7759 83.8791C48.1901 83.9954 47.5829 83.9354 47.0311 83.7067C46.4793 83.478 46.0078 83.0908 45.676 82.5941C45.3442 82.0975 45.1671 81.5136 45.1671 80.9163C45.1671 80.319 45.3442 79.7351 45.676 79.2384C46.0078 78.7417 46.4793 78.3546 47.0311 78.1259C47.5829 77.8971 48.1901 77.8371 48.7759 77.9534C49.3618 78.0697 49.9 78.3571 50.3226 78.7793C50.6056 79.0585 50.8304 79.3912 50.9838 79.7581C51.1371 80.1249 51.2161 80.5186 51.2161 80.9162C51.2161 81.3138 51.137 81.7075 50.9836 82.0743C50.8302 82.4411 50.6057 82.7741 50.3226 83.0533ZM82.4212 68.5461C82.1825 68.7855 81.8989 68.9753 81.5867 69.1049C81.2745 69.2345 80.9399 69.3011 80.6019 69.3011C80.2639 69.3011 79.9292 69.2345 79.617 69.1049C79.3048 68.9753 79.0212 68.7855 78.7825 68.5461L60.4486 50.2164C60.093 49.8675 59.614 49.6732 59.1159 49.6756C58.6178 49.6781 58.1407 49.8771 57.7885 50.2293C57.4363 50.5816 57.2375 51.0587 57.2351 51.5568C57.2328 52.055 57.4273 52.5339 57.7762 52.8894L77.5247 72.6359C78.0075 73.1187 78.2787 73.7735 78.2787 74.4562C78.2787 75.139 78.0075 75.7938 77.5247 76.2766C77.0419 76.7594 76.3871 77.0306 75.7044 77.0306C75.0216 77.0306 74.3668 76.7594 73.884 76.2766L70.5536 72.9433C70.5353 72.924 70.5173 72.9048 70.498 72.8856C70.4924 72.88 70.4862 72.8752 70.4806 72.8696L55.1655 57.5546C54.991 57.375 54.7824 57.2318 54.5521 57.1335C54.3217 57.0352 54.0741 56.9836 53.8237 56.9819C53.5732 56.9801 53.3249 57.0281 53.0932 57.1231C52.8615 57.2181 52.6509 57.3582 52.4738 57.5353C52.2967 57.7124 52.1565 57.9229 52.0615 58.1546C51.9665 58.3864 51.9184 58.6347 51.9202 58.8851C51.922 59.1356 51.9735 59.3832 52.0718 59.6135C52.1701 59.8439 52.3132 60.0524 52.4928 60.227L67.8569 75.5912C68.3176 76.0806 68.5686 76.7308 68.5561 77.4029C68.5436 78.0749 68.2688 78.7154 67.7903 79.1874C67.3117 79.6594 66.6676 79.9255 65.9954 79.9288C65.3233 79.9321 64.6765 79.6723 64.1934 79.2049L47.5339 62.5451C47.1778 62.1989 46.6998 62.0068 46.2032 62.0103C45.7066 62.0138 45.2313 62.2126 44.8801 62.5638C44.5289 62.9149 44.3301 63.3902 44.3265 63.8868C44.323 64.3834 44.515 64.8614 44.8611 65.2176L57.2102 77.567C57.2138 77.5705 57.2165 77.5744 57.2203 77.5776C57.5797 77.9378 57.8242 78.3963 57.923 78.8954C58.0219 79.3945 57.9706 79.9116 57.7757 80.3816C57.5807 80.8515 57.2509 81.2531 56.8278 81.5357C56.4047 81.8183 55.9074 81.9691 55.3986 81.9691C55.235 81.9687 55.0718 81.9529 54.9111 81.9221C55.0568 80.9546 54.992 79.967 54.7209 79.0269C54.4499 78.0868 53.9791 77.2162 53.3408 76.4748C52.7024 75.7333 51.9115 75.1384 51.0221 74.7307C50.1327 74.323 49.1658 74.112 48.1874 74.1124C48.1368 74.1124 48.0865 74.115 48.0359 74.1159C48.0566 73.2104 47.8961 72.3098 47.5637 71.4672C47.2313 70.6247 46.7337 69.8571 46.1003 69.2096C45.4669 68.5622 44.7104 68.0479 43.8753 67.6971C43.0402 67.3464 42.1434 67.1661 41.2376 67.167C41.1238 67.167 41.0106 67.1698 40.898 67.1753C40.9511 66.1248 40.7595 65.0763 40.3383 64.1125C39.9171 63.1486 39.2779 62.2957 38.471 61.621C37.664 60.9463 36.7115 60.4682 35.6883 60.2243C34.6651 59.9805 33.5992 59.9775 32.5747 60.2158L31.221 58.8603C27.5027 55.1507 24.9996 50.3987 24.0435 45.2341C23.6876 43.3322 22.7621 41.5833 21.3896 40.2193L18.0581 36.8881L37.0115 17.9347L41.7349 22.6581C43.549 24.4538 46.0016 25.4562 48.5542 25.4454C49.7086 25.4453 50.8541 25.2434 51.939 24.849C52.4745 24.6553 53.0274 24.5136 53.59 24.4256L41.8884 36.1272C40.467 37.5487 39.6684 39.4766 39.6684 41.4868C39.6684 43.497 40.467 45.4249 41.8884 46.8464C43.3098 48.2678 45.2377 49.0664 47.248 49.0664C49.2582 49.0664 51.1861 48.2678 52.6075 46.8464L58.4841 40.9692L60.0747 42.5611L60.1407 42.627L60.2043 42.6906C60.2226 42.7087 60.2404 42.7258 60.2581 42.743L82.4173 64.9022C82.6564 65.1412 82.8461 65.425 82.9755 65.7373C83.1049 66.0496 83.1715 66.3843 83.1715 66.7224C83.1715 67.0605 83.1049 67.3952 82.9755 67.7075C82.8461 68.0198 82.6564 68.3036 82.4173 68.5426L82.4212 68.5461ZM94.3251 40.3542C93.0316 41.6318 92.1624 43.2763 91.8351 45.0646C90.9031 50.2935 88.3863 55.1096 84.6256 58.8603L83.1734 60.3128L71.2178 48.3586C71.4775 48.3778 71.7384 48.3906 72.0011 48.3906C73.2636 48.395 74.5148 48.1514 75.6835 47.6738C76.1476 47.4839 76.5172 47.1174 76.7111 46.655C76.9049 46.1925 76.9072 45.672 76.7173 45.2079C76.5274 44.7439 76.1609 44.3742 75.6984 44.1804C75.236 43.9865 74.7155 43.9843 74.2514 44.1742C69.3875 46.1642 63.5559 40.6799 62.9069 40.0478C62.896 40.0371 62.8853 40.0268 62.8741 40.0167L62.8069 39.9495L62.7478 39.8904L61.1568 38.2983L62.9613 36.4937C63.1368 36.3183 63.2761 36.1099 63.371 35.8807C63.466 35.6514 63.5149 35.4056 63.5149 35.1575C63.5149 34.9093 63.4661 34.6635 63.3711 34.4343C63.2762 34.205 63.137 33.9966 62.9615 33.8211C62.786 33.6456 62.5777 33.5064 62.3484 33.4114C62.1191 33.3165 61.8734 33.2676 61.6252 33.2675C61.377 33.2675 61.1313 33.3164 60.902 33.4114C60.6727 33.5063 60.4644 33.6455 60.2889 33.821L57.1532 36.9567L57.1493 36.9603L57.1458 36.9641L49.9348 44.1748C49.5823 44.5293 49.1633 44.8107 48.7019 45.003C48.2404 45.1953 47.7455 45.2946 47.2456 45.2953C46.7457 45.296 46.2506 45.198 45.7886 45.007C45.3266 44.816 44.9068 44.5358 44.5534 44.1823C44.1999 43.8288 43.9196 43.409 43.7287 42.947C43.5377 42.485 43.4398 41.9899 43.4405 41.49C43.4412 40.99 43.5406 40.4952 43.7329 40.0337C43.9252 39.5723 44.2067 39.1533 44.5612 38.8009L57.007 26.3547C58.8092 24.5538 61.1174 23.3448 63.6241 22.889C66.1307 22.4331 68.7168 22.7521 71.0376 23.8032C72.8254 24.6148 74.8174 24.8651 76.7504 24.5211C78.6834 24.177 80.4667 23.2548 81.8647 21.8762L84.4955 19.2461L99.9635 34.7141L94.3251 40.3542ZM104.964 34.3709L84.6878 14.0943L93.49 5.29212L113.767 25.5687L104.964 34.3709Z" fill="#2B2A29"/>
<path d="M106.868 28.902C107.911 28.902 108.757 28.0559 108.757 27.0123C108.757 25.9686 107.911 25.1226 106.868 25.1226C105.824 25.1226 104.978 25.9686 104.978 27.0123C104.978 28.0559 105.824 28.902 106.868 28.902Z" fill="#0092CB"/>
<path d="M12.3794 30.7692C13.4231 30.7692 14.2691 29.9231 14.2691 28.8795C14.2691 27.8358 13.4231 26.9897 12.3794 26.9897C11.3357 26.9897 10.4897 27.8358 10.4897 28.8795C10.4897 29.9231 11.3357 30.7692 12.3794 30.7692Z" fill="#0092CB"/>
</svg>
