<svg width="79" height="88" viewBox="0 0 79 88" fill="none" xmlns="http://www.w3.org/2000/svg">
<path d="M71.8812 0C70.0752 0 68.6139 1.63997 68.6139 3.66667C68.6139 4.20378 68.7351 4.69792 68.9202 5.15625L55.8509 25.6667C55.7488 25.6595 55.6467 25.6667 55.5446 25.6667C54.8937 25.6667 54.2683 25.8672 53.7577 26.2396L42.4753 19.9375C42.3668 18.0182 40.9437 16.5 39.2079 16.5C37.402 16.5 35.9406 18.14 35.9406 20.1667C35.9406 20.36 35.9661 20.5534 35.9917 20.7396L24.0455 31.3958C23.6817 31.2383 23.2861 31.1667 22.8713 31.1667C21.2376 31.1667 19.8975 32.5059 19.655 34.2604L8.52569 39.3021C7.9705 38.8151 7.28768 38.5 6.53466 38.5C4.7287 38.5 3.26733 40.14 3.26733 42.1667C3.26733 44.1934 4.7287 45.8333 6.53466 45.8333C8.18109 45.8333 9.52758 44.4655 9.75094 42.6823L20.8803 37.6979C21.4355 38.1849 22.1183 38.5 22.8713 38.5C24.6773 38.5 26.1386 36.86 26.1386 34.8333C26.1386 34.64 26.1131 34.4466 26.0876 34.2604L38.0337 23.6042C38.3975 23.7617 38.7931 23.8333 39.2079 23.8333C39.8588 23.8333 40.4842 23.6328 40.9948 23.2604L52.2772 29.5625C52.3857 31.4818 53.8088 33 55.5446 33C57.3505 33 58.8119 31.36 58.8119 29.3333C58.8119 28.7962 58.6906 28.3021 58.5056 27.8438L71.5749 7.33333C71.677 7.3405 71.7791 7.33333 71.8812 7.33333C73.6872 7.33333 75.1485 5.69336 75.1485 3.66667C75.1485 1.63997 73.6872 0 71.8812 0Z" fill="#0092CB"/>
<path d="M65.3465 23.8335V88.0002H78.4159V23.8335H65.3465ZM68.6139 27.5002H75.1485V84.3335H68.6139V27.5002ZM32.6733 40.3335V88.0002H45.7426V40.3335H32.6733ZM35.9406 44.0002H42.4753V84.3335H35.9406V44.0002ZM49.0099 49.5002V88.0002H62.0792V49.5002H49.0099ZM52.2772 53.1668H58.8119V84.3335H52.2772V53.1668ZM16.3366 55.0002V88.0002H29.4059V55.0002H16.3366ZM19.604 58.6668H26.1386V84.3335H19.604V58.6668ZM0 62.3335V88.0002H13.0693V62.3335H0ZM3.26733 66.0002H9.80198V84.3335H3.26733V66.0002Z" fill="#2B2A29"/>
</svg>
