<svg width="77" height="86" viewBox="0 0 77 86" fill="none" xmlns="http://www.w3.org/2000/svg">
<path fill-rule="evenodd" clip-rule="evenodd" d="M56.0184 52.1439C56.0184 52.1439 56.0094 52.1392 56.0017 52.1341L56.0077 52.1281C56.0214 52.1417 56.0238 52.146 56.0184 52.1439ZM54.5612 68.6066C54.5659 68.6059 54.564 68.6052 54.564 68.6052L54.5612 68.6066Z" fill="#0092CB"/>
<path fill-rule="evenodd" clip-rule="evenodd" d="M51.9773 49.6799C50.4884 49.6799 49.2627 50.501 48.3679 51.6504C47.0294 51.3593 45.5857 51.4265 44.3976 52.3669C43.217 53.3074 42.9087 54.7554 42.9538 56.1288C41.7056 56.808 40.6754 57.8306 40.4273 59.2935C40.1866 60.7415 40.8408 62.0253 41.7507 63.0553C41.2093 64.4137 41.1566 65.9289 41.871 67.1157C41.9988 67.3321 42.1868 67.474 42.3523 67.6531C42.3523 67.6531 42.3598 83.3498 42.3523 84.0738C42.3447 84.7978 43.405 85.7905 43.405 85.7905C43.405 85.7905 44.8337 86.0592 45.4202 85.6263L51.9773 80.7299L58.5343 85.6263C59.1208 86.0592 59.9028 86.1189 60.5495 85.7905C61.2037 85.462 61.6098 84.7978 61.6023 84.0738V67.6531C61.7677 67.474 61.9557 67.3321 62.0835 67.1157C62.9182 65.7349 62.7377 64.3242 62.2038 63.0553C63.1137 62.0253 63.7679 60.7415 63.5273 59.2935C63.2791 57.8306 62.2489 56.808 61.0007 56.1288C61.0458 54.7554 60.7375 53.3074 59.5569 52.3669C58.3689 51.4265 56.9251 51.3593 55.5866 51.6504C54.7144 50.5532 53.4887 49.6799 51.9773 49.6799ZM55.9476 52.1878C55.91 52.1281 55.8648 52.0684 55.8273 52.0087L55.8813 52.0481C55.9264 52.0812 55.9753 52.117 56.0017 52.1341L56.0077 52.1281C56.0214 52.1417 56.0238 52.146 56.0184 52.1439C56.0184 52.1439 56.0094 52.1392 56.0017 52.1341L55.9476 52.1878ZM51.9773 53.5015C52.5939 53.5015 52.654 53.6134 52.8194 54.0986C52.9172 54.3897 53.0826 54.6584 53.3007 54.8748L53.3091 54.8831C53.4056 54.9791 53.533 55.1059 54.0226 55.3525C54.5264 55.6063 54.9475 55.5914 55.0452 55.5914C55.3986 55.6063 55.7596 55.5242 56.0679 55.3525C56.3536 55.1809 56.8725 55.1286 57.1507 55.3525C57.474 55.6138 57.474 55.7033 57.271 56.3079C57.1958 56.5169 57.1507 56.7408 57.1507 56.9647C57.1507 57.226 57.286 57.2633 57.3913 57.5021C57.459 58.3605 58.0982 59.077 58.9554 59.2338C59.2562 59.286 59.6246 59.6518 59.6773 59.9503C59.7299 60.2787 59.5419 60.6743 59.2562 60.846C58.6997 61.1968 58.3538 61.8014 58.3538 62.4582V63.0553C58.3463 63.4584 58.4741 63.8614 58.7148 64.1898C58.7674 64.2645 58.8501 65.0258 58.7749 65.1452C58.602 65.4288 58.2034 65.6154 57.8726 65.5632C57.1657 65.4363 56.4439 65.7125 56.0077 66.2797V66.3394C55.94 66.3917 55.9701 66.3842 55.8874 66.4589C55.8648 66.4813 55.8498 66.4365 55.8273 66.4589C55.4438 66.8171 55.2332 67.3098 55.2257 67.8322C55.2257 68.3398 55.2257 68.3472 54.8046 68.4891C54.7219 68.5264 54.6392 68.5637 54.564 68.6085L54.5612 68.6066C54.5549 68.6075 54.5393 68.6085 54.5038 68.6085C54.376 68.6085 54 68.4667 53.7218 68.1905C53.3533 67.8322 52.8495 67.6382 52.3382 67.6531H51.6163C51.105 67.6382 50.6012 67.8322 50.2327 68.1905C49.9169 68.504 49.571 68.6309 49.1499 68.4891C48.9168 68.3622 48.7288 68.1009 48.7288 67.8322C48.7288 67.4665 48.5483 66.9739 48.3077 66.638C48.0897 66.332 47.8941 66.1827 47.7663 66.1006C47.3227 65.6602 46.6985 65.4587 46.0819 65.5632C45.7511 65.6154 45.3525 65.4288 45.1796 65.1452C44.954 64.7645 44.8788 64.6227 45.1796 64.2495C45.4503 63.9137 45.6007 63.4882 45.6007 63.0553V62.4582C45.6007 61.8014 45.2548 61.1968 44.6983 60.846C44.4126 60.6743 44.2246 60.2787 44.2773 59.9503C44.3299 59.6518 44.6983 59.286 44.9991 59.2338C45.8564 59.077 46.4955 58.3605 46.5632 57.5021C46.6685 57.2633 46.8038 57.226 46.8038 56.9647C46.8038 56.7408 46.7587 56.5169 46.6835 56.3079C46.4805 55.7033 46.4805 55.6138 46.8038 55.3525C47.082 55.1286 47.6009 55.1809 47.8866 55.3525C48.4807 55.6959 49.2176 55.6959 49.8116 55.3525H49.8718L49.9319 55.2928C49.9695 55.2779 50.0147 55.2555 50.0523 55.2331C50.5561 55.0241 50.9546 54.6136 51.1351 54.0986C51.2328 53.8 51.6765 53.5015 51.9773 53.5015ZM47.8265 72.0717C47.1648 71.8105 46.6384 71.3701 46.2023 70.8178V80.2522L50.8343 76.789C51.511 76.2889 52.4435 76.2889 53.1202 76.789L57.7523 80.2522V70.8775C57.3763 71.3328 56.9025 71.706 56.3085 71.9523V72.012C56.2709 72.0344 56.2258 71.9971 56.1882 72.012C56.1506 72.027 56.098 72.0419 56.0679 72.0717C55.4964 72.2882 54.8347 72.43 54.5038 72.43C53.6315 72.43 53.0225 71.8702 52.3382 71.4746H51.9773C51.9622 71.4821 51.9321 71.4672 51.9171 71.4746C50.7516 72.1912 49.3454 72.6166 47.8866 72.1315L47.8265 72.0717Z" fill="#0092CB"/>
<path fill-rule="evenodd" clip-rule="evenodd" d="M0 13.3754C0 6.03086 6.07578 0 13.475 0H63.525H63.8258C71.0896 0.156742 77 6.12789 77 13.3754V78.3415C77 79.3939 76.1353 80.2523 75.075 80.2523H63.525V76.4307H73.15V13.3754C73.15 8.17301 68.924 3.91857 63.7055 3.82154H63.525C58.2237 3.82154 53.9 8.1133 53.9 13.3754V19.1077C53.9 20.1601 53.0353 21.0184 51.975 21.0184H15.4V76.4307H40.425V80.2523H13.475C12.4147 80.2523 11.55 79.3939 11.55 78.3415V21.0184H1.925C0.864747 21.0184 0 20.1601 0 19.1077V13.3754ZM54.2008 3.82154H13.475C8.17373 3.82154 3.85 8.1133 3.85 13.3754V17.1969H50.05V13.3754C50.05 9.62102 51.6667 6.25478 54.2008 3.82154ZM25.025 30.5723V26.7508H63.525V30.5723H25.025ZM25.025 42.0369V38.2154H63.525V42.0369H25.025Z" fill="#2B2A29"/>
</svg>
