<svg width="95" height="69" viewBox="0 0 95 69" fill="none" xmlns="http://www.w3.org/2000/svg">
<path d="M0.000305176 0.920898V4.56954H53.3783C54.1353 4.56954 55.1001 5.49595 55.1001 6.22282V55.6505H35.9221C35.0166 50.4768 30.3334 46.5289 24.7002 46.5289C19.067 46.5289 14.3839 50.4768 13.4784 55.6505H5.70029C4.64638 55.6505 3.80029 54.8381 3.80029 53.8261V37.4073H0.000305176V53.8261C0.000305176 56.8263 2.57569 59.2991 5.70029 59.2991H13.4784C14.3839 64.4728 19.067 68.4207 24.7002 68.4207C30.3334 68.4207 35.0166 64.4728 35.9221 59.2991H64.7782C65.6837 64.4728 70.3669 68.4207 76.0001 68.4207C81.6332 68.4207 86.3164 64.4728 87.2219 59.2991H89.3C90.8809 59.2991 92.2688 58.615 93.2781 57.6458C94.2875 56.6766 95 55.344 95 53.8261V36.3241C95 34.2717 94.1836 32.3904 93.4563 30.9651C92.7289 29.5399 91.9719 28.5137 91.9719 28.5137V28.4567L84.1938 18.423H84.1344V18.3659C82.4497 16.3421 79.7481 13.6911 76.0001 13.6911H60.8001C60.1173 13.6911 59.4939 13.8123 58.9001 14.0332V6.22282C58.9001 3.30106 56.4212 0.920898 53.3783 0.920898H0.000305176ZM0.000305176 8.21817V11.8668H34.2002V8.21817H0.000305176ZM0.000305176 15.5154V19.1641H28.5002V15.5154H0.000305176ZM60.8001 17.3398H68.4001V33.7586C68.4001 35.2765 69.1126 36.6091 70.122 37.5783C71.1313 38.5475 72.5192 39.2316 74.1001 39.2316H91.2V53.8261C91.2 54.1326 90.9625 54.6243 90.5469 55.0233C90.1313 55.4224 89.6192 55.6505 89.3 55.6505H87.2219C86.3164 50.4768 81.6332 46.5289 76.0001 46.5289C70.3669 46.5289 65.6837 50.4768 64.7782 55.6505H58.9001V19.1641C58.9001 18.8577 59.1376 18.3659 59.5532 17.9669C59.9689 17.5678 60.481 17.3398 60.8001 17.3398ZM72.2001 17.3398H76.0001C77.5661 17.3398 79.7481 19.0287 81.1063 20.6463L88.8844 30.6231L88.9438 30.6801C88.9809 30.73 89.493 31.4284 90.0719 32.5614C90.5543 33.5021 90.8066 34.6209 90.9625 35.583H74.1001C73.7809 35.583 73.2688 35.3549 72.8532 34.9558C72.4376 34.5568 72.2001 34.0651 72.2001 33.7586V17.3398ZM0.000305176 22.8127V26.4614H22.8002V22.8127H0.000305176ZM0.000305176 30.11V33.7586H17.1003V30.11H0.000305176ZM24.7002 50.1775C28.9233 50.1775 32.3002 53.4199 32.3002 57.4748C32.3002 61.5296 28.9233 64.7721 24.7002 64.7721C20.4772 64.7721 17.1003 61.5296 17.1003 57.4748C17.1003 53.4199 20.4772 50.1775 24.7002 50.1775ZM76.0001 50.1775C80.2231 50.1775 83.6 53.4199 83.6 57.4748C83.6 61.5296 80.2231 64.7721 76.0001 64.7721C71.777 64.7721 68.4001 61.5296 68.4001 57.4748C68.4001 53.4199 71.777 50.1775 76.0001 50.1775Z" fill="#2B2A29"/>
<path d="M0 8.21851V11.8671H34.1999V8.21851H0Z" fill="#0092CB"/>
<path d="M0 15.5158V19.1644H28.4999V15.5158H0Z" fill="#0092CB"/>
<path d="M0 22.8131V26.4617H22.7999V22.8131H0Z" fill="#0092CB"/>
<path d="M0 30.1103V33.759H17.0999V30.1103H0Z" fill="#0092CB"/>
</svg>
