<svg width="87" height="57" viewBox="0 0 87 57" fill="none" xmlns="http://www.w3.org/2000/svg">
<path d="M4.07143 0C1.76535 0 0 1.76535 0 4.07143V42.0714C0 44.3775 1.76535 46.1429 4.07143 46.1429H5.42857V47.5C5.42857 49.8061 7.19392 51.5714 9.5 51.5714H10.8571V52.9286C10.8571 55.2347 12.6225 57 14.9286 57H82.7857C85.0918 57 86.8571 55.2347 86.8571 52.9286V14.9286C86.8571 12.6225 85.0918 10.8571 82.7857 10.8571H81.4286V9.5C81.4286 7.19392 79.6632 5.42857 77.3571 5.42857H76V4.07143C76 1.76535 74.2346 0 71.9286 0H4.07143ZM4.07143 2.71429H71.9286C72.745 2.71429 73.2857 3.25502 73.2857 4.07143V42.0714C73.2857 42.8878 72.745 43.4286 71.9286 43.4286H4.07143C3.25502 43.4286 2.71429 42.8878 2.71429 42.0714V4.07143C2.71429 3.25502 3.25502 2.71429 4.07143 2.71429ZM20.3571 5.42857C19.5407 5.42857 19 5.96931 19 6.78571V9.5C19 10.3164 19.5407 10.8571 20.3571 10.8571C21.1735 10.8571 21.7143 10.3164 21.7143 9.5V6.78571C21.7143 5.96931 21.1735 5.42857 20.3571 5.42857ZM27.1429 5.42857C26.3265 5.42857 25.7857 5.96931 25.7857 6.78571V9.5C25.7857 10.3164 26.3265 10.8571 27.1429 10.8571C27.9593 10.8571 28.5 10.3164 28.5 9.5V6.78571C28.5 5.96931 27.9593 5.42857 27.1429 5.42857ZM33.9286 5.42857C33.1122 5.42857 32.5714 5.96931 32.5714 6.78571V9.63253C28.5 12.0765 25.7857 17.1021 25.7857 23.0714C25.7857 29.0407 28.6378 34.0664 32.5714 36.5103V39.3571C32.5714 40.1735 33.1122 40.7143 33.9286 40.7143C34.745 40.7143 35.2857 40.1735 35.2857 39.3571V37.5918C36.1021 37.8622 37.0511 38 38 38C38.9489 38 39.8979 37.8622 40.7143 37.5918V39.3571C40.7143 40.1735 41.255 40.7143 42.0714 40.7143C42.8878 40.7143 43.4286 40.1735 43.4286 39.3571V36.5103C47.5 34.0664 50.2143 29.0407 50.2143 23.0714C50.2143 17.1021 47.3622 12.0765 43.4286 9.63253V6.78571C43.4286 5.96931 42.8878 5.42857 42.0714 5.42857C41.255 5.42857 40.7143 5.96931 40.7143 6.78571V8.55106C39.8979 8.28069 38.9489 8.14286 38 8.14286C37.0511 8.14286 36.1021 8.28069 35.2857 8.55106V6.78571C35.2857 5.96931 34.745 5.42857 33.9286 5.42857ZM48.8571 5.42857C48.0407 5.42857 47.5 5.96931 47.5 6.78571V9.5C47.5 10.3164 48.0407 10.8571 48.8571 10.8571C49.6735 10.8571 50.2143 10.3164 50.2143 9.5V6.78571C50.2143 5.96931 49.6735 5.42857 48.8571 5.42857ZM55.6429 5.42857C54.8265 5.42857 54.2857 5.96931 54.2857 6.78571V9.5C54.2857 10.3164 54.8265 10.8571 55.6429 10.8571C56.4593 10.8571 57 10.3164 57 9.5V6.78571C57 5.96931 56.4593 5.42857 55.6429 5.42857ZM6.78571 6.78571C5.96931 6.78571 5.42857 7.32645 5.42857 8.14286C5.42857 8.95926 5.96931 9.5 6.78571 9.5H13.5714C14.3878 9.5 14.9286 8.95926 14.9286 8.14286C14.9286 7.32645 14.3878 6.78571 13.5714 6.78571H6.78571ZM62.4286 6.78571C61.6122 6.78571 61.0714 7.32645 61.0714 8.14286C61.0714 8.95926 61.6122 9.5 62.4286 9.5H69.2143C70.0307 9.5 70.5714 8.95926 70.5714 8.14286C70.5714 7.32645 70.0307 6.78571 69.2143 6.78571H62.4286ZM76 8.14286H77.3571C78.1735 8.14286 78.7143 8.68359 78.7143 9.5V47.5C78.7143 48.3164 78.1735 48.8571 77.3571 48.8571H9.5C8.68359 48.8571 8.14286 48.3164 8.14286 47.5V46.1429H71.9286C74.2346 46.1429 76 44.3775 76 42.0714V8.14286ZM38 10.5868C43.2907 10.5868 47.6325 16.1479 47.6325 23.0714C47.6325 29.995 43.2907 35.5561 38 35.5561C32.7093 35.5561 28.3675 29.995 28.3675 23.0714C28.3675 16.1479 32.7093 10.5868 38 10.5868ZM81.4286 13.5714H82.7857C83.6021 13.5714 84.1429 14.1122 84.1429 14.9286V52.9286C84.1429 53.745 83.6021 54.2857 82.7857 54.2857H14.9286C14.1122 54.2857 13.5714 53.745 13.5714 52.9286V51.5714H77.3571C79.6632 51.5714 81.4286 49.8061 81.4286 47.5V13.5714ZM13.5714 19C10.5868 19 8.14286 21.4439 8.14286 24.4286C8.14286 27.4132 10.5868 29.8571 13.5714 29.8571C16.5561 29.8571 19 27.4132 19 24.4286C19 21.4439 16.5561 19 13.5714 19ZM62.4286 19C59.4439 19 57 21.4439 57 24.4286C57 27.4132 59.4439 29.8571 62.4286 29.8571C65.4132 29.8571 67.8571 27.4132 67.8571 24.4286C67.8571 21.4439 65.4132 19 62.4286 19ZM13.5714 21.4439C15.1989 21.4439 16.5561 22.8011 16.5561 24.4286C16.5561 26.0561 15.1989 27.4132 13.5714 27.4132C11.9439 27.4132 10.5868 26.0561 10.5868 24.4286C10.5868 22.8011 11.9439 21.4439 13.5714 21.4439ZM62.4286 21.4439C64.0561 21.4439 65.4132 22.8011 65.4132 24.4286C65.4132 26.0561 64.0561 27.4132 62.4286 27.4132C60.8011 27.4132 59.4439 26.0561 59.4439 24.4286C59.4439 22.8011 60.8011 21.4439 62.4286 21.4439ZM20.3571 35.2857C19.5407 35.2857 19 35.8265 19 36.6429V39.3571C19 40.1735 19.5407 40.7143 20.3571 40.7143C21.1735 40.7143 21.7143 40.1735 21.7143 39.3571V36.6429C21.7143 35.8265 21.1735 35.2857 20.3571 35.2857ZM27.1429 35.2857C26.3265 35.2857 25.7857 35.8265 25.7857 36.6429V39.3571C25.7857 40.1735 26.3265 40.7143 27.1429 40.7143C27.9593 40.7143 28.5 40.1735 28.5 39.3571V36.6429C28.5 35.8265 27.9593 35.2857 27.1429 35.2857ZM48.8571 35.2857C48.0407 35.2857 47.5 35.8265 47.5 36.6429V39.3571C47.5 40.1735 48.0407 40.7143 48.8571 40.7143C49.6735 40.7143 50.2143 40.1735 50.2143 39.3571V36.6429C50.2143 35.8265 49.6735 35.2857 48.8571 35.2857ZM55.6429 35.2857C54.8265 35.2857 54.2857 35.8265 54.2857 36.6429V39.3571C54.2857 40.1735 54.8265 40.7143 55.6429 40.7143C56.4593 40.7143 57 40.1735 57 39.3571V36.6429C57 35.8265 56.4593 35.2857 55.6429 35.2857ZM6.78571 36.6429C5.96931 36.6429 5.42857 37.1836 5.42857 38C5.42857 38.8164 5.96931 39.3571 6.78571 39.3571H13.5714C14.3878 39.3571 14.9286 38.8164 14.9286 38C14.9286 37.1836 14.3878 36.6429 13.5714 36.6429H6.78571ZM62.4286 36.6429C61.6122 36.6429 61.0714 37.1836 61.0714 38C61.0714 38.8164 61.6122 39.3571 62.4286 39.3571H69.2143C70.0307 39.3571 70.5714 38.8164 70.5714 38C70.5714 37.1836 70.0307 36.6429 69.2143 36.6429H62.4286Z" fill="#2B2A29"/>
<path fill-rule="evenodd" clip-rule="evenodd" d="M33.9285 5.42864C33.1121 5.42864 32.5714 5.96938 32.5714 6.78578V9.6326C28.4999 12.0765 25.7857 17.1022 25.7857 23.0715C25.7857 29.0408 28.6378 34.0665 32.5714 36.5104V39.3572C32.5714 40.1736 33.1121 40.7144 33.9285 40.7144C34.7449 40.7144 35.2857 40.1736 35.2857 39.3572V37.5919C36.1021 37.8622 37.051 38.0001 37.9999 38.0001C38.9489 38.0001 39.8978 37.8622 40.7142 37.5919V39.3572C40.7142 40.1736 41.255 40.7144 42.0714 40.7144C42.8878 40.7144 43.4285 40.1736 43.4285 39.3572V36.5104C47.4999 34.0665 50.2142 29.0408 50.2142 23.0715C50.2142 17.1022 47.3621 12.0765 43.4285 9.6326V6.78578C43.4285 5.96938 42.8878 5.42864 42.0714 5.42864C41.255 5.42864 40.7142 5.96938 40.7142 6.78578V8.55113C39.8978 8.28076 38.9489 8.14293 37.9999 8.14293C37.051 8.14293 36.1021 8.28076 35.2857 8.55113V6.78578C35.2857 5.96938 34.7449 5.42864 33.9285 5.42864ZM47.6325 23.0715C47.6325 16.148 43.2907 10.5868 37.9999 10.5868C32.7092 10.5868 28.3674 16.148 28.3674 23.0715C28.3674 29.995 32.7092 35.5562 37.9999 35.5562C43.2907 35.5562 47.6325 29.995 47.6325 23.0715Z" fill="#0092CB"/>
<path fill-rule="evenodd" clip-rule="evenodd" d="M62.4285 19.0001C59.4439 19.0001 56.9999 21.444 56.9999 24.4286C56.9999 27.4133 59.4439 29.8572 62.4285 29.8572C65.4132 29.8572 67.8571 27.4133 67.8571 24.4286C67.8571 21.444 65.4132 19.0001 62.4285 19.0001ZM65.4132 24.4286C65.4132 22.8011 64.056 21.444 62.4285 21.444C60.801 21.444 59.4439 22.8011 59.4439 24.4286C59.4439 26.0562 60.801 27.4133 62.4285 27.4133C64.056 27.4133 65.4132 26.0562 65.4132 24.4286Z" fill="#0092CB"/>
<path fill-rule="evenodd" clip-rule="evenodd" d="M13.5714 19.0001C10.5867 19.0001 8.1428 21.444 8.1428 24.4286C8.1428 27.4133 10.5867 29.8572 13.5714 29.8572C16.556 29.8572 18.9999 27.4133 18.9999 24.4286C18.9999 21.444 16.556 19.0001 13.5714 19.0001ZM16.556 24.4286C16.556 22.8011 15.1989 21.444 13.5714 21.444C11.9439 21.444 10.5867 22.8011 10.5867 24.4286C10.5867 26.0562 11.9439 27.4133 13.5714 27.4133C15.1989 27.4133 16.556 26.0562 16.556 24.4286Z" fill="#0092CB"/>
<path d="M48.8571 35.2858C48.0407 35.2858 47.4999 35.8265 47.4999 36.6429V39.3572C47.4999 40.1736 48.0407 40.7144 48.8571 40.7144C49.6735 40.7144 50.2142 40.1736 50.2142 39.3572V36.6429C50.2142 35.8265 49.6735 35.2858 48.8571 35.2858Z" fill="#0092CB"/>
<path d="M55.6428 35.2858C54.8264 35.2858 54.2857 35.8265 54.2857 36.6429V39.3572C54.2857 40.1736 54.8264 40.7144 55.6428 40.7144C56.4592 40.7144 56.9999 40.1736 56.9999 39.3572V36.6429C56.9999 35.8265 56.4592 35.2858 55.6428 35.2858Z" fill="#0092CB"/>
<path d="M62.4285 36.6429C61.6121 36.6429 61.0714 37.1837 61.0714 38.0001C61.0714 38.8165 61.6121 39.3572 62.4285 39.3572H69.2142C70.0306 39.3572 70.5714 38.8165 70.5714 38.0001C70.5714 37.1837 70.0306 36.6429 69.2142 36.6429H62.4285Z" fill="#0092CB"/>
<path d="M62.4285 6.78578C61.6121 6.78578 61.0714 7.32652 61.0714 8.14293C61.0714 8.95933 61.6121 9.50007 62.4285 9.50007H69.2142C70.0306 9.50007 70.5714 8.95933 70.5714 8.14293C70.5714 7.32652 70.0306 6.78578 69.2142 6.78578H62.4285Z" fill="#0092CB"/>
<path d="M55.6428 5.42864C54.8264 5.42864 54.2857 5.96938 54.2857 6.78578V9.50007C54.2857 10.3165 54.8264 10.8572 55.6428 10.8572C56.4592 10.8572 56.9999 10.3165 56.9999 9.50007V6.78578C56.9999 5.96938 56.4592 5.42864 55.6428 5.42864Z" fill="#0092CB"/>
<path d="M48.8571 5.42864C48.0407 5.42864 47.4999 5.96938 47.4999 6.78578V9.50007C47.4999 10.3165 48.0407 10.8572 48.8571 10.8572C49.6735 10.8572 50.2142 10.3165 50.2142 9.50007V6.78578C50.2142 5.96938 49.6735 5.42864 48.8571 5.42864Z" fill="#0092CB"/>
<path d="M27.1428 5.42864C26.3264 5.42864 25.7857 5.96938 25.7857 6.78578V9.50007C25.7857 10.3165 26.3264 10.8572 27.1428 10.8572C27.9592 10.8572 28.4999 10.3165 28.4999 9.50007V6.78578C28.4999 5.96938 27.9592 5.42864 27.1428 5.42864Z" fill="#0092CB"/>
<path d="M20.3571 5.42864C19.5407 5.42864 18.9999 5.96938 18.9999 6.78578V9.50007C18.9999 10.3165 19.5407 10.8572 20.3571 10.8572C21.1735 10.8572 21.7142 10.3165 21.7142 9.50007V6.78578C21.7142 5.96938 21.1735 5.42864 20.3571 5.42864Z" fill="#0092CB"/>
<path d="M6.78566 6.78578C5.96926 6.78578 5.42852 7.32652 5.42852 8.14293C5.42852 8.95933 5.96926 9.50007 6.78566 9.50007H13.5714C14.3878 9.50007 14.9285 8.95933 14.9285 8.14293C14.9285 7.32652 14.3878 6.78578 13.5714 6.78578H6.78566Z" fill="#0092CB"/>
<path d="M6.78566 36.6429C5.96926 36.6429 5.42852 37.1837 5.42852 38.0001C5.42852 38.8165 5.96926 39.3572 6.78566 39.3572H13.5714C14.3878 39.3572 14.9285 38.8165 14.9285 38.0001C14.9285 37.1837 14.3878 36.6429 13.5714 36.6429H6.78566Z" fill="#0092CB"/>
<path d="M20.3571 35.2858C19.5407 35.2858 18.9999 35.8265 18.9999 36.6429V39.3572C18.9999 40.1736 19.5407 40.7144 20.3571 40.7144C21.1735 40.7144 21.7142 40.1736 21.7142 39.3572V36.6429C21.7142 35.8265 21.1735 35.2858 20.3571 35.2858Z" fill="#0092CB"/>
<path d="M27.1428 35.2858C26.3264 35.2858 25.7857 35.8265 25.7857 36.6429V39.3572C25.7857 40.1736 26.3264 40.7144 27.1428 40.7144C27.9592 40.7144 28.4999 40.1736 28.4999 39.3572V36.6429C28.4999 35.8265 27.9592 35.2858 27.1428 35.2858Z" fill="#0092CB"/>
</svg>
