<svg width="61" height="57" viewBox="0 0 61 57" fill="none" xmlns="http://www.w3.org/2000/svg">
<path d="M35.5202 0C35.4106 0 35.306 0.0185551 35.2014 0.0494792L19.8481 4.92318C19.2852 5.09635 18.8917 5.72103 18.8867 6.43848C18.8867 7.16211 19.2703 7.79297 19.8282 7.9847C19.9228 8.01562 21.0088 8.75163 21.5967 10.069C22.1745 11.3617 22.4983 13.2233 21.6564 16.0622C20.7946 16.6745 19.9577 17.2992 19.1806 17.93C16.097 20.4225 14.2139 22.4574 13.1479 23.6572C12.0818 21.3379 8.73918 14.7262 2.10371 14.7262C1.65536 14.7262 1.00278 14.8066 0.489672 15.7406C0.230629 16.2106 0.135979 16.8415 0.195758 17.3919C0.255537 17.9362 0.41993 18.4186 0.669009 18.9258C1.78488 21.2575 3.78748 25.9827 3.78748 29.7679C3.78748 33.5345 1.68525 39.3854 0.489672 41.4388C0.0662374 42.1562 -0.187824 43.1768 0.17085 44.1292C0.524543 45.0817 1.36145 45.5085 2.05389 45.5085C6.91094 45.5085 10.0693 42.5892 11.8527 39.7256C12.6248 38.4886 13.0781 37.3197 13.4418 36.2992C15.818 38.9587 21.6016 44.6982 29.1388 46.9124C29.7914 48.4896 29.5871 50.209 29.2683 51.8665C29.0989 52.7572 28.8797 53.5303 28.8598 54.4889C28.8498 54.9714 28.8997 55.6269 29.3032 56.2083C29.7067 56.7959 30.3294 57 30.8076 57H35.5052C35.7394 57 35.9685 56.9196 36.1678 56.7712C36.0433 56.8639 36.6809 56.4743 37.3385 56.0352C38.001 55.596 38.8329 54.9714 39.6699 54.124C41.1743 52.5964 42.7186 50.2461 43.1669 47.0052C51.2869 45.2363 56.4179 40.7214 59.6062 34.8766C60.0445 34.0664 60.5576 33.151 60.742 31.9017C60.9213 30.6523 60.6872 29.2298 60.0097 27.7269C59.103 25.6982 57.1502 21.4368 53.2795 17.7383C51.2172 15.7715 48.5769 13.9779 45.299 12.7223C44.766 10.1123 42.5492 1.71322 35.7693 0.0309237C35.6846 0.0123702 35.5999 0 35.5202 0ZM35.4405 3.24089C39.5403 4.39128 41.5081 8.9681 42.3699 11.807C40.2029 11.2689 37.8267 10.9287 35.1565 10.9287C31.4552 10.9287 27.8535 12.2894 24.6304 14.1449C24.8297 11.8997 24.471 9.98242 23.8284 8.53516C23.5743 7.96615 23.2555 7.63216 22.9666 7.19922L35.4405 3.24089ZM35.1565 14.0954C43.1071 14.0954 48.273 16.959 51.7253 20.2555C55.1775 23.5459 56.8912 27.2754 57.7779 29.2607C57.7829 29.2607 57.7829 29.2607 57.7829 29.2607C58.2711 30.3555 58.296 30.8812 58.2312 31.3327C58.1615 31.7842 57.9174 32.3161 57.494 33.1016C53.8225 39.8369 47.5557 44.6488 35.1565 44.6488C23.5993 44.6488 13.8603 32.4831 13.8603 32.4831C13.5364 32.0687 13.0582 31.9079 12.6099 32.0625C12.1615 32.2171 11.8178 32.6562 11.7082 33.2191C11.7082 33.2191 11.2698 35.4827 9.83513 37.7835C8.52497 39.8926 6.43769 41.8594 3.01036 42.2057C4.54967 39.2308 6.33806 34.3447 6.33806 29.7679C6.33806 25.1787 4.49985 20.9235 3.2694 18.3011C8.46021 19.402 11.8128 26.7126 11.8128 26.7126C11.9971 27.1641 12.3409 27.4795 12.7444 27.5599C13.1429 27.6403 13.5514 27.4795 13.8403 27.127C13.8403 27.127 16.5254 23.8613 20.5754 20.5833C24.6255 17.2992 30.0056 14.0954 35.1565 14.0954ZM46.9978 25.3333C45.588 25.3333 44.4472 26.7559 44.4472 28.5C44.4472 30.2503 45.588 31.6667 46.9978 31.6667C48.4076 31.6667 49.5483 30.2503 49.5483 28.5C49.5483 26.7559 48.4076 25.3333 46.9978 25.3333ZM40.4719 47.4691C40.0186 49.2874 39.077 50.6296 38.0558 51.6686C37.3883 52.349 36.6958 52.8685 36.1329 53.2458C35.7244 53.5179 35.4853 53.6602 35.2064 53.8333H31.5349C31.5947 53.4684 31.6296 53.2148 31.7491 52.5964C32.0032 51.2666 32.2722 49.4482 31.9783 47.5495C33.0145 47.7103 34.0705 47.8154 35.1565 47.8154C37.0495 47.8154 38.808 47.6855 40.4719 47.4691Z" fill="#2B2A29"/>
<path d="M50.3999 28.5002C50.3999 26.4015 48.9672 24.7002 47.1999 24.7002C45.4326 24.7002 43.9999 26.4015 43.9999 28.5002C43.9999 30.5989 45.4326 32.3002 47.1999 32.3002C48.9672 32.3002 50.3999 30.5989 50.3999 28.5002Z" fill="#0092CB"/>
</svg>
