<svg width="61" height="61" viewBox="0 0 61 61" fill="none" xmlns="http://www.w3.org/2000/svg">
<path d="M46.4545 0.000305376C45.9727 -0.0100513 45.5169 0.243704 45.2734 0.657998C45.2734 0.657998 41.8028 6.64456 33.1522 6.64456C32.6756 6.63938 32.2301 6.88795 31.9867 7.30225C31.7484 7.71654 31.7484 8.22405 31.9867 8.63835C32.2301 9.05264 32.6756 9.30122 33.1522 9.29604C43.0667 9.29604 47.5526 2.02517 47.5526 2.02517C47.8013 1.62123 47.8116 1.11372 47.5889 0.694249C47.361 0.279955 46.931 0.0106634 46.4545 0.000305376ZM34.4783 0.0158417C29.2879 0.0158417 25.9312 2.95215 25.0092 3.81181C24.1441 3.41824 22.3104 2.66733 19.8913 2.66733C15.3225 2.66733 12.3233 5.70721 12.3233 5.70721C11.9762 6.03865 11.8364 6.5358 11.9607 6.99671C12.0798 7.46279 12.4424 7.82529 12.9086 7.94441C13.3696 8.06869 13.8669 7.92887 14.1985 7.5819C14.1985 7.5819 16.5036 5.31881 19.8913 5.31881C22.1032 5.31881 24.5999 6.50473 24.5999 6.50473L25.4598 6.93456L26.1332 6.25615C26.1332 6.25615 29.837 2.66733 34.4783 2.66733C34.9548 2.67251 35.4003 2.42393 35.6438 2.00963C35.882 1.59534 35.882 1.08783 35.6438 0.673535C35.4003 0.25924 34.9548 0.0106634 34.4783 0.0158417ZM47.7391 10.2696L46.9259 10.9014L34.4783 20.5804V30.5079H18.4823L17.1562 10.6218H8.0394L6.71331 30.5079H0V61H61V20.5804L47.7391 10.2696ZM10.5258 13.2733H14.6698L15.825 30.5079H11.9348V33.1594H37.1304V21.8751L47.7391 13.6254L58.3478 21.8751V58.3485H2.65217V33.1594H9.19973L10.5258 13.2733ZM41.1087 27.8564V33.1594H43.7609V27.8564H41.1087ZM46.413 27.8564V33.1594H49.0652V27.8564H46.413ZM51.7174 27.8564V33.1594H54.3696V27.8564H51.7174ZM6.63043 37.1366V39.7881H11.9348V37.1366H6.63043ZM14.587 37.1366V39.7881H19.8913V37.1366H14.587ZM22.5435 37.1366V39.7881H27.8478V37.1366H22.5435ZM30.5 37.1366V39.7881H35.8043V37.1366H30.5ZM41.1087 37.1366V42.4396H43.7609V37.1366H41.1087ZM46.413 37.1366V42.4396H49.0652V37.1366H46.413ZM51.7174 37.1366V42.4396H54.3696V37.1366H51.7174ZM41.1087 46.4168V51.7198H43.7609V46.4168H41.1087ZM46.413 46.4168V51.7198H49.0652V46.4168H46.413ZM51.7174 46.4168V51.7198H54.3696V46.4168H51.7174Z" fill="#2B2A29"/>
<path d="M45.2733 0.657998C45.5168 0.243704 45.9726 -0.0100513 46.4543 0.000305376C46.9309 0.0106634 47.3608 0.279955 47.5888 0.694249C47.8115 1.11372 47.8012 1.62123 47.5525 2.02517C47.5525 2.02517 43.0666 9.29604 33.152 9.29604C32.6755 9.30122 32.23 9.05264 31.9865 8.63835C31.7482 8.22405 31.7482 7.71654 31.9865 7.30225C32.23 6.88795 32.6755 6.63938 33.152 6.64456C41.8027 6.64456 45.2733 0.657998 45.2733 0.657998Z" fill="#0092CB"/>
<path d="M25.009 3.81181C25.9311 2.95215 29.2877 0.0158417 34.4781 0.0158417C34.9547 0.0106634 35.4002 0.25924 35.6436 0.673535C35.8819 1.08783 35.8819 1.59534 35.6436 2.00963C35.4002 2.42393 34.9547 2.67251 34.4781 2.66733C29.8368 2.66733 26.1331 6.25615 26.1331 6.25615L25.4597 6.93456L24.5998 6.50473C24.5998 6.50473 22.103 5.31881 19.8912 5.31881C16.5034 5.31881 14.1983 7.5819 14.1983 7.5819C13.8668 7.92887 13.3695 8.06869 12.9085 7.94441C12.4423 7.82529 12.0797 7.46279 11.9605 6.99671C11.8362 6.5358 11.9761 6.03865 12.3231 5.70721C12.3231 5.70721 15.3224 2.66733 19.8912 2.66733C22.3102 2.66733 24.144 3.41824 25.009 3.81181Z" fill="#0092CB"/>
</svg>
