<svg width="62" height="55" viewBox="0 0 62 55" fill="none" xmlns="http://www.w3.org/2000/svg">
<path d="M19.375 0C13.7233 0 8.76605 5.30375 8.76605 11.3488C8.76605 14.9387 9.64776 18.2103 11.2296 20.7922L5.42462 23.6606C2.07953 25.3113 0 28.6562 0 32.3869V39.9023C0 41.4038 1.22115 42.625 2.72272 42.625H9.69318C9.69225 42.6832 9.6875 42.7407 9.6875 42.7991V51.3438C9.6875 52.9461 10.9914 54.25 12.5938 54.25H49.4062C51.0086 54.25 52.3125 52.9461 52.3125 51.3438V42.7991C52.3125 42.7407 52.3078 42.6832 52.3068 42.625H59.2773C60.7788 42.625 62 41.4038 62 39.9023V32.3869C62 28.6562 59.9205 25.3104 56.5754 23.6587L50.7572 20.7846C52.2105 18.4317 53.2358 15.2904 53.2358 11.3488C53.2349 5.30279 48.2767 0 42.625 0C38.4029 0 34.5839 2.96539 32.9167 6.9837C32.2888 6.85988 31.6501 6.78125 31 6.78125C30.3545 6.78125 29.7203 6.85966 29.0966 6.98181C27.4273 2.9632 23.5986 0 19.375 0ZM19.375 1.9375C22.689 1.9375 25.7765 4.33413 27.2064 7.54187C22.7495 9.33117 19.375 14.0915 19.375 19.375C19.375 23.5889 20.4809 27.2031 22.1791 29.9688L15.5776 33.2686C12.5876 34.764 10.5348 37.5015 9.89941 40.6875H2.72272C2.28969 40.6875 1.9375 40.3353 1.9375 39.9023V32.3869C1.9375 29.3983 3.60218 26.7189 6.28174 25.3956L12.3667 22.391C13.129 23.306 13.9997 24.0929 14.9683 24.7277C15.4159 25.0222 16.0182 24.8981 16.3117 24.4496C16.6052 24.002 16.4792 23.4016 16.0317 23.1081C13.4558 21.4196 10.7036 17.4422 10.7036 11.3469C10.7026 6.42271 14.8364 1.9375 19.375 1.9375ZM42.625 1.9375C47.1636 1.9375 51.2964 6.42363 51.2964 11.3488C51.2964 17.8026 48.3183 21.7938 45.5312 23.3768C45.0662 23.6412 44.9026 24.2306 45.1661 24.6956C45.3443 25.0104 45.6719 25.1875 46.0099 25.1875C46.1717 25.1875 46.3375 25.146 46.4886 25.0607C47.5503 24.4575 48.6332 23.561 49.6144 22.3815L55.7183 25.3956C58.3988 26.7189 60.0625 29.3983 60.0625 32.3869V39.9023C60.0625 40.3343 59.7103 40.6875 59.2773 40.6875H52.1006C51.4652 37.5015 49.4116 34.764 46.4224 33.2686L39.8209 29.9688C41.5191 27.2031 42.625 23.5889 42.625 19.375C42.625 14.0915 39.2505 9.33117 34.7936 7.54187C36.2235 4.3339 39.3108 1.9375 42.625 1.9375ZM31 8.71875C36.0695 8.71875 40.6875 13.7979 40.6875 19.375C40.6875 28.8562 35.061 33.9062 31 33.9062C26.939 33.9062 21.3125 28.8562 21.3125 19.375C21.3125 13.7979 25.9305 8.71875 31 8.71875ZM23.3068 31.5714C25.4827 34.284 28.2851 35.8438 31 35.8438C33.7149 35.8438 36.5173 34.284 38.6932 31.5714L45.5558 35.0018C48.5289 36.4888 50.375 39.4753 50.375 42.7991V51.3438C50.375 51.8775 49.94 52.3125 49.4062 52.3125H12.5938C12.06 52.3125 11.625 51.8775 11.625 51.3438V42.7991C11.625 39.4763 13.472 36.4888 16.446 35.0018L23.3068 31.5714ZM16.4688 46.5C15.934 46.5 15.5 46.934 15.5 47.4688V49.4062C15.5 49.941 15.934 50.375 16.4688 50.375C17.0035 50.375 17.4375 49.941 17.4375 49.4062V47.4688C17.4375 46.934 17.0035 46.5 16.4688 46.5ZM21.3125 46.5C20.7778 46.5 20.3438 46.934 20.3438 47.4688V49.4062C20.3438 49.941 20.7778 50.375 21.3125 50.375C21.8472 50.375 22.2812 49.941 22.2812 49.4062V47.4688C22.2812 46.934 21.8472 46.5 21.3125 46.5ZM26.1562 46.5C25.6215 46.5 25.1875 46.934 25.1875 47.4688V49.4062C25.1875 49.941 25.6215 50.375 26.1562 50.375C26.691 50.375 27.125 49.941 27.125 49.4062V47.4688C27.125 46.934 26.691 46.5 26.1562 46.5ZM31 46.5C30.4653 46.5 30.0312 46.934 30.0312 47.4688V49.4062C30.0312 49.941 30.4653 50.375 31 50.375C31.5347 50.375 31.9688 49.941 31.9688 49.4062V47.4688C31.9688 46.934 31.5347 46.5 31 46.5ZM35.8438 46.5C35.309 46.5 34.875 46.934 34.875 47.4688V49.4062C34.875 49.941 35.309 50.375 35.8438 50.375C36.3785 50.375 36.8125 49.941 36.8125 49.4062V47.4688C36.8125 46.934 36.3785 46.5 35.8438 46.5ZM40.6875 46.5C40.1527 46.5 39.7188 46.934 39.7188 47.4688V49.4062C39.7188 49.941 40.1527 50.375 40.6875 50.375C41.2223 50.375 41.6562 49.941 41.6562 49.4062V47.4688C41.6562 46.934 41.2223 46.5 40.6875 46.5ZM45.5312 46.5C44.9965 46.5 44.5625 46.934 44.5625 47.4688V49.4062C44.5625 49.941 44.9965 50.375 45.5312 50.375C46.066 50.375 46.5 49.941 46.5 49.4062V47.4688C46.5 46.934 46.066 46.5 45.5312 46.5Z" fill="#2B2A29"/>
<path d="M16.4688 46.5C15.934 46.5 15.5 46.934 15.5 47.4688V49.4062C15.5 49.941 15.934 50.375 16.4688 50.375C17.0035 50.375 17.4375 49.941 17.4375 49.4062V47.4688C17.4375 46.934 17.0035 46.5 16.4688 46.5ZM21.3125 46.5C20.7778 46.5 20.3438 46.934 20.3438 47.4688V49.4062C20.3438 49.941 20.7778 50.375 21.3125 50.375C21.8472 50.375 22.2812 49.941 22.2812 49.4062V47.4688C22.2812 46.934 21.8472 46.5 21.3125 46.5ZM26.1562 46.5C25.6215 46.5 25.1875 46.934 25.1875 47.4688V49.4062C25.1875 49.941 25.6215 50.375 26.1562 50.375C26.691 50.375 27.125 49.941 27.125 49.4062V47.4688C27.125 46.934 26.691 46.5 26.1562 46.5ZM31 46.5C30.4653 46.5 30.0312 46.934 30.0312 47.4688V49.4062C30.0312 49.941 30.4653 50.375 31 50.375C31.5347 50.375 31.9688 49.941 31.9688 49.4062V47.4688C31.9688 46.934 31.5347 46.5 31 46.5ZM35.8438 46.5C35.309 46.5 34.875 46.934 34.875 47.4688V49.4062C34.875 49.941 35.309 50.375 35.8438 50.375C36.3785 50.375 36.8125 49.941 36.8125 49.4062V47.4688C36.8125 46.934 36.3785 46.5 35.8438 46.5ZM40.6875 46.5C40.1528 46.5 39.7188 46.934 39.7188 47.4688V49.4062C39.7188 49.941 40.1528 50.375 40.6875 50.375C41.2222 50.375 41.6562 49.941 41.6562 49.4062V47.4688C41.6562 46.934 41.2222 46.5 40.6875 46.5ZM45.5312 46.5C44.9965 46.5 44.5625 46.934 44.5625 47.4688V49.4062C44.5625 49.941 44.9965 50.375 45.5312 50.375C46.066 50.375 46.5 49.941 46.5 49.4062V47.4688C46.5 46.934 46.066 46.5 45.5312 46.5Z" fill="#0092CB"/>
</svg>
