<svg width="58" height="58" viewBox="0 0 58 58" fill="none" xmlns="http://www.w3.org/2000/svg">
<path d="M54.0997 54.8186H57.9989L54.0997 58V54.8186Z" fill="#054E77"/>
<path d="M0 54.8186V49.9241L58.0001 49.9241V54.8186H0Z" fill="#0092CB"/>
<path fill-rule="evenodd" clip-rule="evenodd" d="M35.6181 22.14C41.9684 19.8601 47.8824 16.5495 52.8049 10.8955C34.995 -1.28957 23.1769 2.88456 14.5659 15.815C10.206 13.7555 6.01868 11.4584 2.61238 8.08438C2.33534 12.5347 3.38491 15.0253 4.39646 17.5719C2.61749 14.8951 1.2368 11.4922 1.36355 5.34353C4.98229 8.18601 9.02411 10.6533 13.9117 12.3713C25.0501 -4.46718 39.8624 -3.0253 57.0272 10.1224C51.0895 17.339 43.9346 21.2954 35.6181 22.14Z" fill="#2B2A29"/>
<path fill-rule="evenodd" clip-rule="evenodd" d="M35.0193 6.86084C32.6046 9.98107 32.6199 15.6489 36.5655 18.8899C33.5631 13.8923 33.693 11.0136 35.0193 6.86084Z" fill="#434242"/>
<path fill-rule="evenodd" clip-rule="evenodd" d="M42.3591 8.73657C41.3915 8.73657 40.6071 9.52385 40.6071 10.4953C40.6071 11.4664 41.3915 12.2537 42.3591 12.2537C43.327 12.2537 44.1114 11.4664 44.1114 10.4953C44.1114 9.52385 43.327 8.73657 42.3591 8.73657Z" fill="#0092CB"/>
<path fill-rule="evenodd" clip-rule="evenodd" d="M56.7542 23.6033C44.6756 30.2139 37.9795 27.5437 27.6735 21.6336C16.3103 15.1172 7.57925 18.9824 1.20947 23.3219C9.76252 20.3134 18.4349 19.8194 27.0788 25.2212C40.6378 33.6946 49.4537 30.7447 56.7542 23.6033Z" fill="#0092CB"/>
<path fill-rule="evenodd" clip-rule="evenodd" d="M24.6449 30.2862C14.8912 23.7769 9.95563 23.7934 0.975952 30.2862C9.10709 26.9865 16.9895 27.0846 24.6449 30.2862Z" fill="#0092CB"/>
<path fill-rule="evenodd" clip-rule="evenodd" d="M11.6384 46.5956C11.6384 47.0152 11.6915 47.3091 11.7094 47.372H11.8275H11.8335H11.8365H18.9353C19.2903 47.372 19.8578 47.4139 19.9112 47.4348C19.9288 47.372 19.9998 46.9732 19.9998 46.5536C19.9998 46.1339 19.9288 45.7982 19.9112 45.7351C19.8578 45.7563 19.4499 45.7982 19.0952 45.7982V35.9984C19.0952 35.5787 19.1304 34.9071 19.1483 34.8443C18.3944 34.7815 17.6819 34.7815 17.2857 34.7815H16.2507C14.4059 34.7815 13.0251 36.7258 12.9216 39.1217L12.6761 44.9866C12.6406 45.7771 11.9015 45.7982 11.7123 45.7982C11.6944 45.8611 11.6413 46.1759 11.6413 46.5956H11.6384ZM14.0894 45.3155L14.3349 39.3804C14.403 37.7121 15.275 36.3552 16.4341 36.3552H17.6404V45.7982H13.6281L14.0894 45.3155ZM21.4015 46.1128C21.4015 46.5327 21.366 47.1832 21.3481 47.246H21.4368C22.5544 47.246 24.1217 47.4348 24.9493 47.4348C27.0781 47.4348 28.6749 45.9659 28.6749 43.7626C28.6749 42.3182 27.7583 41.2202 26.3597 40.7303C27.4418 40.2617 28.1426 39.3349 28.1426 38.1388C28.1426 36.0858 26.6879 34.7183 24.7721 34.7183C23.9531 34.7183 22.5663 34.8968 21.4665 34.9071H21.3481C21.366 34.9702 21.4015 35.6207 21.4015 36.0403V46.1128ZM22.856 45.7422V41.4962H24.7721C26.1025 41.4962 27.167 42.4021 27.167 43.7626C27.167 45.0847 26.0314 45.9659 24.5945 45.9659C24.0948 45.9659 23.4119 45.882 22.856 45.7422ZM22.856 39.7965V36.4041C23.3528 36.2676 23.9292 36.1872 24.4173 36.1872C25.6412 36.1872 26.6347 36.9671 26.6347 38.1388C26.6347 39.272 25.7832 40.0273 24.7721 40.0273H22.188L22.856 39.7965ZM30.0763 46.1548C30.0763 46.5747 30.0408 47.246 30.0232 47.3091C30.0763 47.33 30.4489 47.4139 30.8037 47.4139C31.1584 47.4139 31.5311 47.33 31.5842 47.3091C31.5665 47.246 31.531 46.5747 31.531 46.1548V43.5459C32.3262 43.6296 33.1217 43.7418 33.642 43.7418C35.8773 43.7418 37.3675 41.937 37.3675 39.23C37.3675 36.5231 35.8773 34.7183 33.642 34.7183C32.823 34.7183 31.253 34.8968 30.1413 34.9071H30.0232C30.0527 35.1101 30.0763 35.6383 30.0763 36.0403V46.1548ZM31.531 41.7482V36.4144C32.0929 36.2712 32.7875 36.1872 33.2872 36.1872C34.8306 36.1872 35.8597 37.4044 35.8597 39.23C35.8597 41.0557 34.8306 42.2726 33.2872 42.2726C32.5866 42.2726 31.5015 42.1049 30.9337 41.853L31.531 41.7482ZM38.7689 46.1548C38.7689 46.5747 38.7334 47.246 38.7158 47.3091C38.7689 47.33 39.1416 47.4139 39.4963 47.4139C39.8511 47.4139 40.2237 47.33 40.2769 47.3091C40.2592 47.246 40.2237 46.5747 40.2237 46.1548V42.2412L39.786 41.8742H40.9037L44.3542 47.0572C44.564 47.365 45.0312 47.4768 45.5103 47.4768C45.8472 47.4768 46.2288 47.4698 46.3589 47.2216C46.3085 47.162 45.9714 46.718 45.7437 46.3997L42.2105 41.2551L45.3859 35.7887C45.59 35.4492 46.0069 35.0122 46.0602 34.9491C45.9361 34.6975 45.5456 34.6763 45.2087 34.6763C44.7296 34.6763 44.2358 34.7744 44.0556 35.0959L40.9863 40.5521H40.2237V35.9984C40.2237 35.5787 40.2592 34.9282 40.2769 34.8651C40.2237 34.8443 39.8511 34.7395 39.4963 34.7395C39.1416 34.7395 38.7689 34.8443 38.7158 34.8651C38.7334 34.9282 38.7689 35.5787 38.7689 35.9984V46.1548Z" fill="#2B2A29"/>
</svg>
