<svg width="30" height="30" viewBox="0 0 30 30" fill="none" xmlns="http://www.w3.org/2000/svg">
<path d="M22.8465 0.000150185C22.6095 -0.00494327 22.3854 0.119854 22.2656 0.323606C22.2656 0.323606 20.5588 3.26781 16.3043 3.26781C16.07 3.26527 15.8509 3.38752 15.7311 3.59127C15.614 3.79502 15.614 4.04462 15.7311 4.24837C15.8509 4.45212 16.07 4.57437 16.3043 4.57182C21.1804 4.57182 23.3865 0.995985 23.3865 0.995985C23.5088 0.797328 23.5139 0.547732 23.4044 0.341434C23.2923 0.137683 23.0808 0.0052443 22.8465 0.000150185ZM16.9565 0.00779102C14.4039 0.00779102 12.7531 1.45188 12.2996 1.87466C11.8742 1.6811 10.9723 1.3118 9.78261 1.3118C7.53567 1.3118 6.06063 2.80683 6.06063 2.80683C5.88995 2.96983 5.82116 3.21433 5.8823 3.441C5.9409 3.67022 6.11923 3.84851 6.34851 3.90708C6.57524 3.96821 6.8198 3.89944 6.98285 3.7288C6.98285 3.7288 8.11651 2.61581 9.78261 2.61581C10.8704 2.61581 12.0983 3.19905 12.0983 3.19905L12.5212 3.41044L12.8524 3.0768C12.8524 3.0768 14.6739 1.3118 16.9565 1.3118C17.1909 1.31435 17.41 1.1921 17.5297 0.988345C17.6469 0.784593 17.6469 0.534998 17.5297 0.331247C17.41 0.127495 17.1909 0.00524429 16.9565 0.00779102ZM23.4783 5.05064L23.0783 5.36136L16.9565 10.1215V15.0039H9.08967L8.4375 5.22383H3.9538L3.30163 15.0039H0V30H30V10.1215L23.4783 5.05064ZM5.17663 6.52784H7.21467L7.78278 15.0039H5.86957V16.3079H18.2609V10.7582L23.4783 6.70103L28.6957 10.7582V28.696H1.30435V16.3079H4.52446L5.17663 6.52784ZM20.2174 13.6999V16.3079H21.5217V13.6999H20.2174ZM22.8261 13.6999V16.3079H24.1304V13.6999H22.8261ZM25.4348 13.6999V16.3079H26.7391V13.6999H25.4348ZM3.26087 18.2639V19.5679H5.86957V18.2639H3.26087ZM7.17391 18.2639V19.5679H9.78261V18.2639H7.17391ZM11.087 18.2639V19.5679H13.6957V18.2639H11.087ZM15 18.2639V19.5679H17.6087V18.2639H15ZM20.2174 18.2639V20.8719H21.5217V18.2639H20.2174ZM22.8261 18.2639V20.8719H24.1304V18.2639H22.8261ZM25.4348 18.2639V20.8719H26.7391V18.2639H25.4348ZM20.2174 22.8279V25.436H21.5217V22.8279H20.2174ZM22.8261 22.8279V25.436H24.1304V22.8279H22.8261ZM25.4348 22.8279V25.436H26.7391V22.8279H25.4348Z" fill="#2B2A29"/>
<path d="M22.2656 0.323606C22.3853 0.119854 22.6095 -0.00494327 22.8464 0.000150185C23.0808 0.0052443 23.2922 0.137683 23.4043 0.341434C23.5139 0.547732 23.5088 0.797328 23.3865 0.995985C23.3865 0.995985 21.1803 4.57182 16.3043 4.57182C16.0699 4.57437 15.8508 4.45212 15.7311 4.24837C15.6139 4.04462 15.6139 3.79502 15.7311 3.59127C15.8508 3.38752 16.0699 3.26527 16.3043 3.26781C20.5587 3.26781 22.2656 0.323606 22.2656 0.323606Z" fill="#0092CB"/>
<path d="M12.2995 1.87466C12.753 1.45188 14.4038 0.00779102 16.9565 0.00779102C17.1908 0.00524429 17.4099 0.127495 17.5297 0.331247C17.6469 0.534998 17.6469 0.784593 17.5297 0.988345C17.4099 1.1921 17.1908 1.31435 16.9565 1.3118C14.6739 1.3118 12.8524 3.0768 12.8524 3.0768L12.5212 3.41044L12.0983 3.19905C12.0983 3.19905 10.8704 2.61581 9.78256 2.61581C8.11646 2.61581 6.98279 3.7288 6.98279 3.7288C6.81975 3.89944 6.57518 3.96821 6.34845 3.90708C6.11917 3.84851 5.94084 3.67022 5.88225 3.441C5.82111 3.21433 5.88989 2.96983 6.06058 2.80683C6.06058 2.80683 7.53561 1.3118 9.78256 1.3118C10.9723 1.3118 11.8741 1.6811 12.2995 1.87466Z" fill="#0092CB"/>
</svg>
