<svg width="30" height="22" viewBox="0 0 30 22" fill="none" xmlns="http://www.w3.org/2000/svg">
<path d="M0 0V1.1522H16.8563C17.0953 1.1522 17.4 1.44476 17.4 1.6743V17.2831H11.3438C11.0578 15.6493 9.57891 14.4026 7.8 14.4026C6.02109 14.4026 4.54219 15.6493 4.25625 17.2831H1.8C1.46719 17.2831 1.2 17.0265 1.2 16.707V11.522H0V16.707C0 17.6544 0.813281 18.4353 1.8 18.4353H4.25625C4.54219 20.0691 6.02109 21.3158 7.8 21.3158C9.57891 21.3158 11.0578 20.0691 11.3438 18.4353H20.4562C20.7422 20.0691 22.2211 21.3158 24 21.3158C25.7789 21.3158 27.2578 20.0691 27.5437 18.4353H28.2C28.6992 18.4353 29.1375 18.2192 29.4562 17.9132C29.775 17.6071 30 17.1863 30 16.707V11.18C30 10.5319 29.7422 9.93777 29.5125 9.48769C29.2828 9.03761 29.0438 8.71355 29.0438 8.71355V8.69555L26.5875 5.52698H26.5688V5.50898C26.0367 4.86987 25.1836 4.03272 24 4.03272H19.2C18.9844 4.03272 18.7875 4.07097 18.6 4.14074V1.6743C18.6 0.751634 17.8172 0 16.8563 0H0ZM0 2.30441V3.45661H10.8V2.30441H0ZM0 4.60882V5.76102H9V4.60882H0ZM19.2 5.18492H21.6V10.3698C21.6 10.8492 21.825 11.27 22.1438 11.5761C22.4625 11.8821 22.9008 12.0982 23.4 12.0982H28.8V16.707C28.8 16.8037 28.725 16.959 28.5938 17.085C28.4625 17.2111 28.3008 17.2831 28.2 17.2831H27.5437C27.2578 15.6493 25.7789 14.4026 24 14.4026C22.2211 14.4026 20.7422 15.6493 20.4562 17.2831H18.6V5.76102C18.6 5.66426 18.675 5.50898 18.8062 5.38296C18.9375 5.25693 19.0992 5.18492 19.2 5.18492ZM22.8 5.18492H24C24.4945 5.18492 25.1836 5.71827 25.6125 6.22911L28.0688 9.37967L28.0875 9.39767C28.0992 9.41342 28.2609 9.63396 28.4438 9.99178C28.5961 10.2888 28.6758 10.6421 28.725 10.9459H23.4C23.2992 10.9459 23.1375 10.8739 23.0063 10.7479C22.875 10.6219 22.8 10.4666 22.8 10.3698V5.18492ZM0 6.91323V8.06543H7.2V6.91323H0ZM0 9.21764V10.3698H5.4V9.21764H0ZM7.8 15.5548C9.13359 15.5548 10.2 16.5787 10.2 17.8592C10.2 19.1397 9.13359 20.1636 7.8 20.1636C6.46641 20.1636 5.4 19.1397 5.4 17.8592C5.4 16.5787 6.46641 15.5548 7.8 15.5548ZM24 15.5548C25.3336 15.5548 26.4 16.5787 26.4 17.8592C26.4 19.1397 25.3336 20.1636 24 20.1636C22.6664 20.1636 21.6 19.1397 21.6 17.8592C21.6 16.5787 22.6664 15.5548 24 15.5548Z" fill="#2B2A29"/>
<path d="M0 2.30444V3.45665H10.8V2.30444H0Z" fill="#0092CB"/>
<path d="M0 4.60885V5.76106H9V4.60885H0Z" fill="#0092CB"/>
<path d="M0 6.91326V8.06547H7.2V6.91326H0Z" fill="#0092CB"/>
<path d="M0 9.21767V10.3699H5.4V9.21767H0Z" fill="#0092CB"/>
</svg>
