<svg width="30" height="29" viewBox="0 0 30 29" fill="none" xmlns="http://www.w3.org/2000/svg">
<path d="M17.5264 0C17.4723 0 17.4207 0.00915547 17.3691 0.0244141L9.79348 2.4292C9.51572 2.51465 9.32154 2.82288 9.31908 3.17688C9.31908 3.53394 9.50835 3.84521 9.78365 3.93982C9.83035 3.95508 10.3662 4.31824 10.6562 4.96826C10.9414 5.60608 11.1011 6.52466 10.6857 7.92541C10.2605 8.22754 9.84756 8.53577 9.4641 8.84705C7.94259 10.0769 7.01346 11.0809 6.48744 11.673C5.96143 10.5286 4.3121 7.26624 1.03801 7.26624C0.816791 7.26624 0.494791 7.30591 0.241614 7.76672C0.113797 7.99866 0.0670949 8.30994 0.0965911 8.58154C0.126087 8.8501 0.207203 9.08813 0.330103 9.33838C0.8807 10.4889 1.86882 12.8204 1.86882 14.6881C1.86882 16.5466 0.831539 19.4336 0.241614 20.4468C0.0326829 20.8008 -0.0926762 21.3043 0.0843012 21.7743C0.258821 22.2443 0.671768 22.4548 1.01343 22.4548C3.41 22.4548 4.96839 21.0144 5.84836 19.6014C6.22935 18.9911 6.45303 18.4143 6.63247 17.9108C7.80494 19.223 10.6587 22.0551 14.3777 23.1476C14.6997 23.9258 14.5989 24.7742 14.4416 25.592C14.358 26.0315 14.2499 26.413 14.24 26.886C14.2351 27.124 14.2597 27.4475 14.4588 27.7344C14.6579 28.0243 14.9652 28.125 15.2011 28.125H17.519C17.6346 28.125 17.7476 28.0853 17.846 28.0121C17.7845 28.0579 18.0991 27.8656 18.4236 27.6489C18.7505 27.4323 19.161 27.124 19.5739 26.7059C20.3163 25.9521 21.0782 24.7925 21.2995 23.1934C25.306 22.3206 27.8378 20.0928 29.4109 17.2089C29.6272 16.8091 29.8804 16.3574 29.9714 15.741C30.0599 15.1245 29.9443 14.4226 29.61 13.681C29.1627 12.6801 28.1991 10.5774 26.2892 8.75244C25.2716 7.78198 23.9689 6.89697 22.3515 6.27747C22.0885 4.98962 20.9947 0.845336 17.6493 0.0152584C17.6075 0.00610373 17.5657 0 17.5264 0ZM17.4871 1.59912C19.51 2.16675 20.4809 4.42505 20.9062 5.82581C19.8369 5.5603 18.6645 5.39246 17.347 5.39246C15.5207 5.39246 13.7435 6.06384 12.1532 6.97937C12.2515 5.87158 12.0745 4.92554 11.7574 4.21143C11.6321 3.93066 11.4748 3.76587 11.3322 3.55225L17.4871 1.59912ZM17.347 6.95496C21.27 6.95496 23.8189 8.36792 25.5223 9.99451C27.2258 11.618 28.0713 13.4583 28.5088 14.4379C28.5113 14.4379 28.5113 14.4379 28.5113 14.4379C28.7522 14.978 28.7645 15.2374 28.7325 15.4602C28.6981 15.683 28.5777 15.9454 28.3687 16.333C26.5572 19.6564 23.465 22.0306 17.347 22.0306C11.6444 22.0306 6.83894 16.0278 6.83894 16.0278C6.67917 15.8234 6.4432 15.744 6.22198 15.8203C6.00076 15.8966 5.83115 16.1133 5.77708 16.391C5.77708 16.391 5.56077 17.5079 4.85286 18.6432C4.2064 19.6838 3.17649 20.6543 1.48537 20.8252C2.2449 19.3573 3.12733 16.9464 3.12733 14.6881C3.12733 12.4237 2.22032 10.3241 1.61319 9.03015C4.17445 9.57336 5.82869 13.1805 5.82869 13.1805C5.91964 13.4033 6.08924 13.559 6.28834 13.5986C6.48498 13.6383 6.68654 13.559 6.82911 13.385C6.82911 13.385 8.15398 11.7737 10.1524 10.1562C12.1507 8.53577 14.8054 6.95496 17.347 6.95496ZM23.1897 12.5C22.4941 12.5 21.9312 13.2019 21.9312 14.0625C21.9312 14.9261 22.4941 15.625 23.1897 15.625C23.8853 15.625 24.4482 14.9261 24.4482 14.0625C24.4482 13.2019 23.8853 12.5 23.1897 12.5ZM19.9697 23.4222C19.746 24.3195 19.2814 24.9817 18.7775 25.4944C18.4482 25.8301 18.1065 26.0864 17.8287 26.2726C17.6272 26.4069 17.5092 26.477 17.3716 26.5625H15.56C15.5895 26.3824 15.6067 26.2573 15.6657 25.9521C15.791 25.296 15.9238 24.3988 15.7788 23.4619C16.29 23.5413 16.8111 23.5931 17.347 23.5931C18.281 23.5931 19.1487 23.5291 19.9697 23.4222Z" fill="#2B2A29"/>
<path d="M24.8683 14.0625C24.8683 13.027 24.1614 12.1875 23.2894 12.1875C22.4174 12.1875 21.7104 13.027 21.7104 14.0625C21.7104 15.098 22.4174 15.9375 23.2894 15.9375C24.1614 15.9375 24.8683 15.098 24.8683 14.0625Z" fill="#0092CB"/>
</svg>
