<svg width="30" height="31" viewBox="0 0 30 31" fill="none" xmlns="http://www.w3.org/2000/svg">
<path d="M15 0.439941C6.72345 0.439941 0 7.16339 0 15.4399C0 23.7165 6.72345 30.4399 15 30.4399C23.2765 30.4399 30 23.7165 30 15.4399C30 7.16339 23.2765 0.439941 15 0.439941ZM15 1.74429C22.5716 1.74429 28.6957 7.86832 28.6957 15.4399C28.6957 23.0116 22.5716 29.1356 15 29.1356C7.42838 29.1356 1.30435 23.0116 1.30435 15.4399C1.30435 7.86832 7.42838 1.74429 15 1.74429ZM15 6.30951C14.4811 6.30951 13.9834 6.51564 13.6165 6.88256C13.2496 7.24948 13.0435 7.74713 13.0435 8.26603C13.0435 8.78493 13.2496 9.28258 13.6165 9.6495C13.9834 10.0164 14.4811 10.2226 15 10.2226C15.5189 10.2226 16.0166 10.0164 16.3835 9.6495C16.7504 9.28258 16.9565 8.78493 16.9565 8.26603C16.9565 7.74713 16.7504 7.24948 16.3835 6.88256C16.0166 6.51564 15.5189 6.30951 15 6.30951ZM12.3913 12.8312V14.1356H13.0435H13.6957V22.6139H13.0435H12.3913V23.9182H13.0435H13.6957H16.3043H16.9565H17.6087V22.6139H16.9565H16.3043V12.8312H15.6522H13.0435H12.3913Z" fill="#2B2A29"/>
<path d="M15 6.30957C14.4811 6.30957 13.9834 6.5157 13.6165 6.88262C13.2496 7.24954 13.0435 7.74719 13.0435 8.26609C13.0435 8.78499 13.2496 9.28264 13.6165 9.64956C13.9834 10.0165 14.4811 10.2226 15 10.2226C15.5189 10.2226 16.0165 10.0165 16.3834 9.64956C16.7504 9.28264 16.9565 8.78499 16.9565 8.26609C16.9565 7.74719 16.7504 7.24954 16.3834 6.88262C16.0165 6.5157 15.5189 6.30957 15 6.30957Z" fill="#0092CB"/>
</svg>
