<svg width="582" height="217" viewBox="0 0 582 217" fill="none" xmlns="http://www.w3.org/2000/svg">
<path d="M182.952 136.338V181.955H158.559V213H104.073V181.955H0.801399V167.7L63.2077 3.92306H119.278L68.2762 136.338H104.073V85.0196H158.559V136.338H182.952ZM203.607 106.878C203.607 74.9881 211.104 49.2231 226.099 29.5825C241.304 9.94193 262.74 0.121651 290.406 0.121651C318.071 0.121651 339.401 9.94193 354.396 29.5825C369.601 49.2231 377.204 74.9881 377.204 106.878C377.204 139.19 369.601 165.588 354.396 186.073C339.19 206.559 317.86 216.801 290.406 216.801C262.951 216.801 241.621 206.559 226.415 186.073C211.21 165.588 203.607 139.19 203.607 106.878ZM321.45 107.194C321.45 87.5538 318.916 73.193 313.848 64.1119C308.779 54.8196 300.965 50.1734 290.406 50.1734C279.846 50.1734 272.032 54.8196 266.964 64.1119C261.895 73.193 259.361 87.5538 259.361 107.194C259.361 146.898 269.709 166.75 290.406 166.75C311.102 166.75 321.45 146.898 321.45 107.194ZM581.193 136.338V181.955H556.801V213H502.314V181.955H399.042V167.7L461.449 3.92306H517.519L466.517 136.338H502.314V85.0196H556.801V136.338H581.193Z" fill="url(#paint0_linear)" fill-opacity="0.05"/>
<defs>
<linearGradient id="paint0_linear" x1="290.5" y1="-84" x2="290.5" y2="314.412" gradientUnits="userSpaceOnUse">
<stop stop-color="white" stop-opacity="0"/>
<stop offset="0.493605" stop-color="white"/>
<stop offset="1" stop-color="white" stop-opacity="0"/>
</linearGradient>
</defs>
</svg>
