<svg width="53" height="60" viewBox="0 0 53 60" fill="none" xmlns="http://www.w3.org/2000/svg">
<path d="M26.4994 0C23.5445 0 21.0508 1.63269 17.3526 3.53827C13.6543 5.44385 8.6904 7.74467 0.941029 9.44793L0 9.67378V10.6148C0 29.0684 6.46957 41.4006 12.9486 49.0464C19.4275 56.6923 26.01 59.7365 26.01 59.7365L26.537 60L27.064 59.7365C27.064 59.7365 52.9987 46.3363 52.9987 10.6148V9.67378L52.0577 9.44793C44.3083 7.74467 39.3444 5.44385 35.6462 3.53827C31.9479 1.63269 29.4542 0 26.4994 0ZM26.4994 2.40903C28.4802 2.40903 30.7763 3.74059 34.5546 5.68381C38.1446 7.52823 43.1932 9.7914 50.5144 11.5182C50.0721 44.1813 28.0097 56.4335 26.4617 57.2522C25.7136 56.8899 20.5003 54.2832 14.7553 47.5031C8.69981 40.356 2.70546 28.8614 2.48432 11.5182C9.80552 9.7914 14.8541 7.52823 18.4442 5.68381C22.2224 3.74059 24.5185 2.40903 26.4994 2.40903ZM35.7591 17.6161L35.1192 18.6324L25.3325 33.8394L18.8582 28.005L17.9925 27.2146L16.3739 28.9837L17.2773 29.8118L24.7302 36.5872L25.7842 37.5282L26.5747 36.3237L37.1518 19.9122L37.7917 18.8959L35.7591 17.6161Z" fill="#FF7A1B"/>
</svg>
