<svg width="40" height="41" viewBox="0 0 40 41" fill="none" xmlns="http://www.w3.org/2000/svg">
<circle cx="20" cy="20.0957" r="19.5" stroke="#7C7C7C"/>
<path d="M20 13.5377C22.136 13.5377 22.3893 13.5457 23.2333 13.5844C25.4013 13.683 26.414 14.7117 26.5126 16.8637C26.5513 17.707 26.5587 17.9604 26.5587 20.0964C26.5587 22.233 26.5507 22.4857 26.5126 23.329C26.4133 25.4791 25.4034 26.5097 23.2333 26.6083C22.3893 26.647 22.1373 26.655 20 26.655C17.864 26.655 17.6107 26.647 16.7673 26.6083C14.594 26.509 13.5867 25.4757 13.488 23.3284C13.4493 22.485 13.4413 22.2323 13.4413 20.0957C13.4413 17.9597 13.45 17.707 13.488 16.863C13.5873 14.7117 14.5973 13.6824 16.7673 13.5837C17.6113 13.5457 17.864 13.5377 20 13.5377ZM20 12.0957C17.8273 12.0957 17.5553 12.105 16.702 12.1437C13.7967 12.277 12.182 13.889 12.0487 16.797C12.0093 17.651 12 17.923 12 20.0957C12 22.2684 12.0093 22.541 12.048 23.3944C12.1813 26.2997 13.7933 27.9144 16.7013 28.0477C17.5553 28.0864 17.8273 28.0957 20 28.0957C22.1727 28.0957 22.4453 28.0864 23.2987 28.0477C26.2013 27.9144 27.82 26.3024 27.9513 23.3944C27.9907 22.541 28 22.2684 28 20.0957C28 17.923 27.9907 17.651 27.952 16.7977C27.8213 13.895 26.2073 12.2777 23.2994 12.1444C22.4453 12.105 22.1727 12.0957 20 12.0957ZM20 15.9877C17.7313 15.9877 15.892 17.827 15.892 20.0957C15.892 22.3643 17.7313 24.2043 20 24.2043C22.2686 24.2043 24.108 22.365 24.108 20.0957C24.108 17.827 22.2686 15.9877 20 15.9877ZM20 22.7624C18.5273 22.7624 17.3333 21.569 17.3333 20.0957C17.3333 18.623 18.5273 17.429 20 17.429C21.4726 17.429 22.6667 18.623 22.6667 20.0957C22.6667 21.569 21.4726 22.7624 20 22.7624ZM24.2707 14.8657C23.74 14.8657 23.31 15.2957 23.31 15.8257C23.31 16.3557 23.74 16.7857 24.2707 16.7857C24.8007 16.7857 25.23 16.3557 25.23 15.8257C25.23 15.2957 24.8007 14.8657 24.2707 14.8657Z" fill="#7C7C7C"/>
</svg>
