<svg width="53" height="57" viewBox="0 0 53 57" fill="none" xmlns="http://www.w3.org/2000/svg">
<path d="M26.4812 0.000207868C26.1623 0.00519196 25.8585 0.136475 25.6363 0.365243C25.4142 0.594012 25.2919 0.901575 25.2962 1.22043V6.0355C25.294 6.19501 25.3234 6.35338 25.3829 6.5014C25.4424 6.64943 25.5307 6.78416 25.6427 6.89776C25.7547 7.01135 25.8882 7.10156 26.0354 7.16313C26.1825 7.2247 26.3405 7.25641 26.5 7.25641C26.6595 7.25641 26.8175 7.2247 26.9646 7.16313C27.1118 7.10156 27.2453 7.01135 27.3573 6.89776C27.4693 6.78416 27.5576 6.64943 27.6171 6.5014C27.6765 6.35338 27.706 6.19501 27.7038 6.0355V1.22043C27.706 1.05938 27.6758 0.899524 27.6151 0.750329C27.5545 0.601134 27.4644 0.465634 27.3504 0.351852C27.2364 0.238071 27.1008 0.148322 26.9515 0.0879204C26.8022 0.0275187 26.6422 -0.00230754 26.4812 0.000207868ZM8.61279 7.40854C8.37332 7.4086 8.13931 7.48008 7.94067 7.61384C7.74204 7.74759 7.58781 7.93755 7.4977 8.15941C7.40759 8.38128 7.38569 8.62498 7.43481 8.85936C7.48393 9.09374 7.60183 9.30814 7.77344 9.47516L11.1778 12.8796C11.2888 12.9951 11.4216 13.0873 11.5686 13.1509C11.7156 13.2144 11.8739 13.248 12.034 13.2496C12.1942 13.2512 12.353 13.2209 12.5013 13.1603C12.6496 13.0998 12.7843 13.0103 12.8975 12.897C13.0108 12.7838 13.1003 12.6491 13.1608 12.5008C13.2214 12.3525 13.2517 12.1937 13.2501 12.0335C13.2484 11.8734 13.2149 11.7152 13.1513 11.5682C13.0878 11.4211 12.9956 11.2883 12.88 11.1774L9.47564 7.77296C9.36346 7.65765 9.22931 7.56599 9.08111 7.5034C8.93291 7.4408 8.77366 7.40855 8.61279 7.40854ZM44.3519 7.40854C44.0392 7.41786 43.7424 7.54856 43.5244 7.77296L40.12 11.1774C40.0044 11.2883 39.9122 11.4211 39.8487 11.5682C39.7851 11.7152 39.7516 11.8734 39.7499 12.0335C39.7483 12.1937 39.7786 12.3525 39.8392 12.5008C39.8997 12.6491 39.9892 12.7838 40.1025 12.897C40.2157 13.0103 40.3504 13.0998 40.4987 13.1603C40.647 13.2209 40.8058 13.2512 40.966 13.2496C41.1261 13.248 41.2843 13.2144 41.4314 13.1509C41.5784 13.0873 41.7112 12.9951 41.8222 12.8796L45.2266 9.47516C45.4005 9.30608 45.5193 9.08839 45.5674 8.85062C45.6155 8.61285 45.5907 8.3661 45.4961 8.1427C45.4016 7.9193 45.2417 7.72967 45.0376 7.59866C44.8334 7.46766 44.5944 7.40139 44.3519 7.40854ZM26.5 9.64679C17.2065 9.64679 9.64727 17.206 9.64727 26.4995C9.64727 32.3886 12.2706 36.3443 14.7492 39.2543C15.9885 40.7093 17.1902 41.9315 18.0243 43.009C18.8584 44.0864 19.2774 44.9533 19.2774 45.7598V46.9635V50.3726C19.2559 50.5026 19.2559 50.6353 19.2774 50.7653V51.7786C19.2774 53.7588 20.9085 55.3899 22.8887 55.3899H23.8268C24.4878 56.1234 25.4348 56.5937 26.5 56.5937C27.5652 56.5937 28.5122 56.1234 29.1732 55.3899H30.1113C32.0915 55.3899 33.7226 53.7588 33.7226 51.7786V50.777C33.7441 50.647 33.7441 50.5144 33.7226 50.3844V46.9635V45.7598C33.7226 44.9533 34.14 44.0965 34.9734 43.0278C35.8068 41.9591 37.0083 40.748 38.2485 39.2989C40.7289 36.4007 43.3527 32.4394 43.3527 26.4995C43.3527 17.206 35.7935 9.64679 26.5 9.64679ZM26.5 12.0543C34.4925 12.0543 40.9452 18.507 40.9452 26.4995C40.9452 31.7487 38.754 35.0052 36.4193 37.7331C35.252 39.0971 34.046 40.2998 33.0737 41.5466C32.3626 42.4584 31.87 43.4711 31.5925 44.556H21.4099C21.1333 43.4684 20.6398 42.4535 19.9287 41.5348C18.9571 40.2798 17.7513 39.0647 16.583 37.6931C14.2465 34.9499 12.0548 31.6911 12.0548 26.4995C12.0548 18.507 18.5075 12.0543 26.5 12.0543ZM1.22091 25.2958C1.0614 25.2935 0.903026 25.323 0.755001 25.3824C0.606976 25.4419 0.472249 25.5302 0.35865 25.6422C0.245051 25.7542 0.154846 25.8877 0.0932759 26.0349C0.031706 26.182 0 26.34 0 26.4995C0 26.659 0.031706 26.817 0.0932759 26.9642C0.154846 27.1113 0.245051 27.2448 0.35865 27.3568C0.472249 27.4688 0.606976 27.5571 0.755001 27.6166C0.903026 27.6761 1.0614 27.7055 1.22091 27.7033H6.03597C6.19549 27.7055 6.35386 27.6761 6.50188 27.6166C6.64991 27.5571 6.78464 27.4688 6.89823 27.3568C7.01183 27.2448 7.10204 27.1113 7.16361 26.9642C7.22518 26.817 7.25689 26.659 7.25689 26.4995C7.25689 26.34 7.22518 26.182 7.16361 26.0349C7.10204 25.8877 7.01183 25.7542 6.89823 25.6422C6.78464 25.5302 6.64991 25.4419 6.50188 25.3824C6.35386 25.323 6.19549 25.2935 6.03597 25.2958H1.22091ZM46.964 25.2958C46.8045 25.2935 46.6461 25.323 46.4981 25.3824C46.3501 25.4419 46.2154 25.5302 46.1018 25.6422C45.9882 25.7542 45.898 25.8877 45.8364 26.0349C45.7748 26.182 45.7431 26.34 45.7431 26.4995C45.7431 26.659 45.7748 26.817 45.8364 26.9642C45.898 27.1113 45.9882 27.2448 46.1018 27.3568C46.2154 27.4688 46.3501 27.5571 46.4981 27.6166C46.6461 27.6761 46.8045 27.7055 46.964 27.7033H51.7791C51.9386 27.7055 52.097 27.6761 52.245 27.6166C52.393 27.5571 52.5278 27.4688 52.6413 27.3568C52.7549 27.2448 52.8452 27.1113 52.9067 26.9642C52.9683 26.817 53 26.659 53 26.4995C53 26.34 52.9683 26.182 52.9067 26.0349C52.8452 25.8877 52.7549 25.7542 52.6413 25.6422C52.5278 25.5302 52.393 25.4419 52.245 25.3824C52.097 25.323 51.9386 25.2935 51.7791 25.2958H46.964ZM12.0054 39.7551C11.6927 39.7644 11.3959 39.8951 11.1778 40.1195L7.77344 43.5239C7.65792 43.6348 7.56568 43.7677 7.50215 43.9147C7.43861 44.0617 7.40504 44.2199 7.40341 44.38C7.40179 44.5402 7.43213 44.6991 7.49267 44.8473C7.5532 44.9956 7.64272 45.1303 7.75596 45.2435C7.86921 45.3568 8.00392 45.4463 8.15219 45.5068C8.30046 45.5674 8.45933 45.5977 8.61947 45.5961C8.77962 45.5945 8.93784 45.5609 9.08485 45.4974C9.23186 45.4338 9.36472 45.3416 9.47564 45.2261L12.88 41.8217C13.054 41.6526 13.1728 41.4349 13.2209 41.1971C13.269 40.9594 13.2442 40.7126 13.1496 40.4892C13.0551 40.2658 12.8952 40.0762 12.6911 39.9452C12.4869 39.8142 12.2479 39.7479 12.0054 39.7551ZM40.957 39.7551C40.7177 39.7556 40.484 39.8274 40.2857 39.9613C40.0875 40.0953 39.9336 40.2852 39.8438 40.507C39.754 40.7288 39.7323 40.9723 39.7814 41.2064C39.8306 41.4406 39.9485 41.6548 40.12 41.8217L43.5244 45.2261C43.6353 45.3416 43.7681 45.4338 43.9151 45.4974C44.0622 45.5609 44.2204 45.5945 44.3805 45.5961C44.5407 45.5977 44.6995 45.5674 44.8478 45.5068C44.9961 45.4463 45.1308 45.3568 45.244 45.2435C45.3573 45.1303 45.4468 44.9956 45.5073 44.8473C45.5679 44.699 45.5982 44.5402 45.5966 44.38C45.5949 44.2199 45.5614 44.0617 45.4978 43.9147C45.4343 43.7677 45.3421 43.6348 45.2266 43.5239L41.8222 40.1195C41.7097 40.0039 41.5752 39.9121 41.4265 39.8494C41.2779 39.7868 41.1182 39.7547 40.957 39.7551ZM21.6849 46.9635H31.3151V49.3711H25.2962C25.1367 49.3688 24.9783 49.3983 24.8303 49.4578C24.6823 49.5173 24.5476 49.6056 24.434 49.7176C24.3204 49.8296 24.2302 49.963 24.1686 50.1102C24.107 50.2574 24.0753 50.4153 24.0753 50.5748C24.0753 50.7344 24.107 50.8923 24.1686 51.0395C24.2302 51.1866 24.3204 51.3201 24.434 51.4321C24.5476 51.5441 24.6823 51.6324 24.8303 51.6919C24.9783 51.7514 25.1367 51.7809 25.2962 51.7786H31.3151C31.3151 52.4588 30.7915 52.9824 30.1113 52.9824H22.8887C22.2085 52.9824 21.6849 52.4588 21.6849 51.7786C21.8444 51.7809 22.0028 51.7514 22.1508 51.6919C22.2989 51.6324 22.4336 51.5441 22.5472 51.4321C22.6608 51.3201 22.751 51.1866 22.8126 51.0395C22.8741 50.8923 22.9058 50.7344 22.9058 50.5748C22.9058 50.4153 22.8741 50.2574 22.8126 50.1102C22.751 49.963 22.6608 49.8296 22.5472 49.7176C22.4336 49.6056 22.2989 49.5173 22.1508 49.4578C22.0028 49.3983 21.8444 49.3688 21.6849 49.3711V46.9635Z" fill="#FF7A1B"/>
</svg>
