<svg width="53" height="50" viewBox="0 0 53 50" fill="none" xmlns="http://www.w3.org/2000/svg">
<path d="M12.4734 0C11.839 0.0584862 11.3711 0.625356 11.4296 1.25971C11.4881 1.89406 12.055 2.36195 12.6893 2.30347H20.2476L0.34417 22.2069C-0.114723 22.6658 -0.114723 23.4036 0.34417 23.8625C0.803064 24.3214 1.54089 24.3214 1.99979 23.8625L21.9032 3.95908V11.5173C21.8987 11.9312 22.1146 12.3182 22.4746 12.5296C22.8345 12.7366 23.2754 12.7366 23.6353 12.5296C23.9952 12.3182 24.2112 11.9312 24.2067 11.5173V0H12.6893C12.6533 0 12.6173 0 12.5813 0C12.5454 0 12.5094 0 12.4734 0ZM36.8757 4.60694V49.5246H53V4.60694H36.8757ZM39.1792 6.9104H50.6965V47.2211H39.1792V6.9104ZM18.448 19.5795V49.5246H34.5723V19.5795H18.448ZM20.7515 21.8829H32.2688V47.2211H20.7515V21.8829ZM0.0202449 32.2485V49.5246H16.1445V32.2485H0.0202449ZM2.32371 34.552H13.8411V47.2211H2.32371V34.552Z" fill="#FF7A1B"/>
</svg>
