<svg width="40" height="41" viewBox="0 0 40 41" fill="none" xmlns="http://www.w3.org/2000/svg">
<circle cx="20" cy="20.0957" r="19.5" stroke="#7C7C7C"/>
<path d="M12 28.0957L13.1033 24.0957C12.3862 22.8542 12 21.4753 12 20.0404C12 15.6819 15.5862 12.0957 19.9724 12.0957C24.3585 12.0957 28 15.6819 28 20.0404C28 24.399 24.3585 28.0957 19.9724 28.0957C18.5935 28.0957 17.2691 27.6542 16.0829 26.9924L12 28.0957Z" fill="#7C7C7C"/>
<path d="M16.3025 25.5578L16.5513 25.696C17.5716 26.3301 18.7578 26.7163 19.9993 26.7163C23.6131 26.7163 26.6196 23.7098 26.6196 20.0407C26.6196 16.3716 23.6131 13.4756 19.9724 13.4756C16.3302 13.4756 13.3789 16.3992 13.3789 20.0407C13.3789 21.3098 13.7375 22.5512 14.3993 23.5992L14.5651 23.8479L13.9302 26.165L16.3025 25.5578Z" fill="#7C7C7C"/>
<path d="M17.8493 16.3433L17.3256 16.3157C17.1625 16.3113 17.0041 16.3708 16.8842 16.4815C16.6355 16.7018 16.2224 17.1157 16.1118 17.6677C15.9184 18.4953 16.2216 19.4887 16.9395 20.4822C17.6565 21.4749 19.0355 23.0749 21.4631 23.7644C22.2355 23.9847 22.8427 23.8473 23.3395 23.5433C23.7249 23.2953 23.9736 22.9091 24.0565 22.4953L24.1395 22.1091C24.1524 22.0504 24.146 21.9891 24.1211 21.9344C24.0961 21.8797 24.0541 21.8346 24.0013 21.8058L22.2631 21.0058C22.2071 20.9781 22.143 20.9713 22.0824 20.9864C22.0218 21.0016 21.9685 21.0379 21.9322 21.0887L21.2427 21.9709C21.1875 22.0262 21.1045 22.0538 21.0216 22.0262C20.5533 21.8611 18.9809 21.1986 18.1256 19.5433C18.098 19.4611 18.098 19.3782 18.1533 19.3229L18.8151 18.5782C18.8704 18.4953 18.898 18.3847 18.8704 18.3018L18.0704 16.5091C18.0551 16.4621 18.0257 16.4209 17.9861 16.3912C17.9465 16.3615 17.8987 16.3448 17.8493 16.3433Z" fill="#191919"/>
</svg>
