<svg width="24" height="24" viewBox="0 0 24 24" fill="none" xmlns="http://www.w3.org/2000/svg">
<path fill-rule="evenodd" clip-rule="evenodd" d="M5.64031 17.46C5.15762 17.46 4.69469 17.6517 4.35338 17.993C4.01206 18.3343 3.82031 18.7973 3.82031 19.28C3.82031 19.7627 4.01206 20.2256 4.35338 20.5669C4.69469 20.9082 5.15762 21.1 5.64031 21.1C6.12301 21.1 6.58593 20.9082 6.92725 20.5669C7.26856 20.2256 7.46031 19.7627 7.46031 19.28C7.46031 18.7973 7.26856 18.3343 6.92725 17.993C6.58593 17.6517 6.12301 17.46 5.64031 17.46ZM17.4503 17.46C17.2006 17.4414 16.9498 17.4746 16.7135 17.5574C16.4773 17.6402 16.2606 17.7709 16.0771 17.9412C15.8937 18.1116 15.7473 18.3179 15.6472 18.5474C15.5472 18.7769 15.4955 19.0246 15.4955 19.275C15.4955 19.5253 15.5472 19.773 15.6472 20.0025C15.7473 20.232 15.8937 20.4384 16.0771 20.6087C16.2606 20.7791 16.4773 20.9097 16.7135 20.9925C16.9498 21.0753 17.2006 21.1085 17.4503 21.09C17.9084 21.0559 18.3367 20.8499 18.6492 20.5133C18.9618 20.1767 19.1355 19.7343 19.1355 19.275C19.1355 18.8156 18.9618 18.3732 18.6492 18.0366C18.3367 17.7 17.9084 17.494 17.4503 17.46Z" fill="#333333"/>
<path fill-rule="evenodd" clip-rule="evenodd" d="M6.32 6.98998H19.37L17.36 14.47H6.32V6.99998V6.98998ZM18.21 16.32C18.4052 16.3156 18.5936 16.2479 18.747 16.127C18.9003 16.0062 19.0102 15.8387 19.06 15.65L21.61 6.31998C21.648 6.18465 21.6551 6.04253 21.6309 5.90408C21.6066 5.76563 21.5517 5.63438 21.47 5.51998C21.3915 5.40674 21.2869 5.31402 21.1651 5.24963C21.0433 5.18524 20.9078 5.15107 20.77 5.14998H6.31V3.39998C6.31266 3.28178 6.292 3.16422 6.24921 3.05401C6.20641 2.9438 6.14233 2.8431 6.0606 2.75766C5.97888 2.67223 5.88113 2.60373 5.77293 2.55608C5.66473 2.50844 5.5482 2.48258 5.43 2.47998H2V4.31998H4.55V15.4C4.55 15.9 4.95 16.32 5.44 16.32H18.2H18.21Z" fill="#333333"/>
</svg>
