<svg width="54" height="54" viewBox="0 0 54 54" fill="none" xmlns="http://www.w3.org/2000/svg">
<g opacity="0.15">
<mask id="path-1-inside-1_1382_6440" fill="white">
<path d="M27 54C12.0883 54 -1.83202e-06 41.9117 -1.18021e-06 27C-5.28397e-07 12.0883 12.0883 -1.83202e-06 27 -1.18021e-06C41.9117 -5.28397e-07 54 12.0883 54 27C54 41.9117 41.9117 54 27 54ZM27 2.7C13.5795 2.7 2.7 13.5795 2.7 27C2.7 40.4205 13.5795 51.3 27 51.3C40.4205 51.3 51.3 40.4205 51.3 27C51.3 13.5795 40.4205 2.7 27 2.7Z"/>
</mask>
<path d="M27 54C12.0883 54 -1.83202e-06 41.9117 -1.18021e-06 27C-5.28397e-07 12.0883 12.0883 -1.83202e-06 27 -1.18021e-06C41.9117 -5.28397e-07 54 12.0883 54 27C54 41.9117 41.9117 54 27 54ZM27 2.7C13.5795 2.7 2.7 13.5795 2.7 27C2.7 40.4205 13.5795 51.3 27 51.3C40.4205 51.3 51.3 40.4205 51.3 27C51.3 13.5795 40.4205 2.7 27 2.7Z" stroke="white" stroke-width="10" mask="url(#path-1-inside-1_1382_6440)"/>
</g>
</svg>
