<svg width="24" height="24" viewBox="0 0 24 24" fill="none" xmlns="http://www.w3.org/2000/svg">
<g opacity="0.3">
<path d="M5.36997 20H12.92C12.9987 19.9975 13.0736 19.9651 13.1293 19.9094C13.1851 19.8537 13.2175 19.7788 13.22 19.7V18.53C13.22 18.4505 13.1884 18.3741 13.1321 18.3179C13.0758 18.2616 12.9995 18.23 12.92 18.23H5.36997C5.35203 18.2301 5.33426 18.2264 5.3178 18.2193C5.30134 18.2121 5.28654 18.2016 5.27433 18.1885C5.26211 18.1753 5.25276 18.1598 5.24685 18.1428C5.24093 18.1259 5.23859 18.1079 5.23997 18.09L5.23997 5.91002C5.23859 5.89213 5.24093 5.87414 5.24685 5.85719C5.25276 5.84025 5.26211 5.82471 5.27433 5.81156C5.28654 5.79841 5.30134 5.78793 5.3178 5.78078C5.33426 5.77363 5.35203 5.76997 5.36997 5.77002L12.75 5.77002C12.7897 5.77142 12.8294 5.76461 12.8664 5.75003C12.9034 5.73545 12.9371 5.7134 12.9652 5.68526C12.9934 5.65712 13.0154 5.62349 13.03 5.58646C13.0446 5.54943 13.0514 5.50979 13.05 5.47002V4.32002C13.05 4.24045 13.0184 4.16415 12.9621 4.10789C12.9058 4.05163 12.8295 4.02002 12.75 4.02002L5.36997 4.02002C4.87045 4.02266 4.39229 4.22295 4.04 4.57711C3.68772 4.93127 3.48997 5.41049 3.48997 5.91002L3.48997 18.09C3.48734 18.3391 3.53394 18.5862 3.62712 18.8171C3.72029 19.0481 3.85819 19.2584 4.0329 19.4359C4.20761 19.6133 4.41567 19.7546 4.64513 19.8514C4.87459 19.9482 5.12093 19.9987 5.36997 20Z" fill="#333333"/>
<path d="M9.12001 12.88L19.68 12.88V11.12L9.12001 11.12C9.04124 11.1225 8.96638 11.1549 8.91065 11.2106C8.85492 11.2664 8.82251 11.3412 8.82001 11.42V12.58C8.82251 12.6588 8.85492 12.7336 8.91065 12.7894C8.96638 12.8451 9.04124 12.8775 9.12001 12.88Z" fill="#333333"/>
<path d="M16.75 17L21.29 12.25C21.342 12.1944 21.371 12.1211 21.371 12.045C21.371 11.9689 21.342 11.8956 21.29 11.84L16.75 7.10999C16.6922 7.05438 16.6152 7.02332 16.535 7.02332C16.4548 7.02332 16.3778 7.05438 16.32 7.10999L15.49 7.90999C15.4616 7.93707 15.4389 7.96965 15.4235 8.00575C15.408 8.04185 15.4 8.08071 15.4 8.11999C15.4 8.15926 15.408 8.19813 15.4235 8.23422C15.4389 8.27032 15.4616 8.3029 15.49 8.32999L19.06 12L15.49 15.72C15.4613 15.7479 15.4384 15.7814 15.4229 15.8183C15.4073 15.8552 15.3992 15.8949 15.3992 15.935C15.3992 15.9751 15.4073 16.0148 15.4229 16.0517C15.4384 16.0886 15.4613 16.122 15.49 16.15L16.32 16.95C16.371 17.0128 16.4445 17.0531 16.5248 17.0625C16.6052 17.0718 16.686 17.0494 16.75 17Z" fill="#333333"/>
</g>
</svg>
