<svg width="19" height="18" viewBox="0 0 19 18" fill="none" xmlns="http://www.w3.org/2000/svg">
<path fill-rule="evenodd" clip-rule="evenodd" d="M5.75 7.50007C7.43 7.50007 8.8505 6.39607 9.329 4.87507L17.375 4.87507C17.6734 4.87507 17.9595 4.75655 18.1705 4.54557C18.3815 4.33459 18.5 4.04844 18.5 3.75007C18.5 3.4517 18.3815 3.16555 18.1705 2.95458C17.9595 2.7436 17.6734 2.62507 17.375 2.62507L9.329 2.62507C9.12132 1.96343 8.73431 1.3723 8.21095 0.917335C7.6876 0.462366 7.04838 0.161364 6.36428 0.0477564C5.68018 -0.0658514 4.97797 0.0123814 4.33565 0.273767C3.69333 0.535152 3.13603 0.969459 2.72564 1.52846C2.31525 2.08745 2.06783 2.74926 2.01086 3.44039C1.9539 4.13151 2.08961 4.8249 2.40293 5.44356C2.71625 6.06221 3.19491 6.58191 3.78576 6.94494C4.37662 7.30797 5.05653 7.50013 5.75 7.50007ZM5.75 6.00007C6.34674 6.00007 6.91903 5.76302 7.34099 5.34106C7.76295 4.9191 8 4.34681 8 3.75007C8 3.15333 7.76295 2.58104 7.34099 2.15908C6.91903 1.73712 6.34674 1.50007 5.75 1.50007C5.15326 1.50007 4.58097 1.73712 4.15901 2.15908C3.73705 2.58104 3.5 3.15333 3.5 3.75007C3.5 4.34681 3.73705 4.9191 4.15901 5.34106C4.58097 5.76302 5.15326 6.00007 5.75 6.00007ZM1.9325 4.87507L1.625 4.87507C1.32663 4.87507 1.04048 4.75654 0.829506 4.54557C0.618526 4.33459 0.5 4.04844 0.5 3.75007C0.5 3.4517 0.618526 3.16555 0.829506 2.95458C1.04048 2.7436 1.32663 2.62507 1.625 2.62507L1.9325 2.62507C1.73419 3.36196 1.73419 4.13818 1.9325 4.87507ZM13.25 18.0001C11.57 18.0001 10.1495 16.8961 9.671 15.3751L1.625 15.3751C1.32663 15.3751 1.04048 15.2565 0.829505 15.0456C0.618526 14.8346 0.499999 14.5484 0.499999 14.2501C0.499999 13.9517 0.618526 13.6656 0.829505 13.4546C1.04048 13.2436 1.32663 13.1251 1.625 13.1251L9.671 13.1251C9.87868 12.4634 10.2657 11.8723 10.789 11.4173C11.3124 10.9624 11.9516 10.6614 12.6357 10.5478C13.3198 10.4341 14.022 10.5124 14.6643 10.7738C15.3067 11.0352 15.864 11.4695 16.2744 12.0285C16.6848 12.5875 16.9322 13.2493 16.9891 13.9404C17.0461 14.6315 16.9104 15.3249 16.5971 15.9436C16.2838 16.5622 15.8051 17.0819 15.2142 17.4449C14.6234 17.808 13.9435 18.0001 13.25 18.0001ZM13.25 16.5001C12.6533 16.5001 12.081 16.263 11.659 15.8411C11.2371 15.4191 11 14.8468 11 14.2501C11 13.6533 11.2371 13.081 11.659 12.6591C12.081 12.2371 12.6533 12.0001 13.25 12.0001C13.8467 12.0001 14.419 12.2371 14.841 12.6591C15.2629 13.081 15.5 13.6533 15.5 14.2501C15.5 14.8468 15.2629 15.4191 14.841 15.8411C14.419 16.263 13.8467 16.5001 13.25 16.5001ZM17.0675 15.3751L17.375 15.3751C17.6734 15.3751 17.9595 15.2565 18.1705 15.0456C18.3815 14.8346 18.5 14.5484 18.5 14.2501C18.5 13.9517 18.3815 13.6656 18.1705 13.4546C17.9595 13.2436 17.6734 13.1251 17.375 13.1251L17.0675 13.1251C17.2659 13.862 17.2659 14.6382 17.0675 15.3751Z" fill="#333333"/>
</svg>
