<svg width="15" height="8" viewBox="0 0 15 8" fill="none" xmlns="http://www.w3.org/2000/svg">
<path fill-rule="evenodd" clip-rule="evenodd" d="M0.775865 5.8486C0.670057 5.94429 0.586113 6.05794 0.528839 6.18304C0.471566 6.30815 0.442087 6.44226 0.442087 6.5777C0.442087 6.71313 0.471566 6.84724 0.528839 6.97235C0.586113 7.09745 0.670056 7.2111 0.775865 7.30679C0.881494 7.40264 1.00695 7.47868 1.14505 7.53056C1.28316 7.58245 1.4312 7.60915 1.58071 7.60915C1.73022 7.60915 1.87826 7.58245 2.01636 7.53056C2.15447 7.47868 2.27992 7.40264 2.38555 7.30679L7.27267 2.87963L12.1598 7.30713C12.2654 7.40298 12.3909 7.47903 12.529 7.53091C12.6671 7.58279 12.8151 7.6095 12.9646 7.6095C13.1141 7.6095 13.2622 7.58279 13.4003 7.53091C13.5384 7.47903 13.6638 7.40298 13.7695 7.30713C13.8754 7.2114 13.9594 7.09765 14.0167 6.97241C14.0739 6.84716 14.1033 6.71291 14.103 6.57735C14.103 6.31335 13.9915 6.04935 13.7695 5.8486L8.07751 0.692353C7.97189 0.596503 7.84643 0.520461 7.70833 0.468578C7.57022 0.416695 7.42218 0.38999 7.27267 0.38999C7.12316 0.38999 6.97512 0.416695 6.83702 0.468578C6.69891 0.520461 6.57346 0.596503 6.46783 0.692353L0.775865 5.8486Z" fill="#A6A6AB"/>
</svg>
