<svg width="16" height="16" viewBox="0 0 16 16" fill="none" xmlns="http://www.w3.org/2000/svg">
<path d="M8 0C10.1217 0 12.1566 0.842855 13.6569 2.34315C15.1571 3.84344 16 5.87827 16 8C16 10.1217 15.1571 12.1566 13.6569 13.6569C12.1566 15.1571 10.1217 16 8 16C5.87827 16 3.84344 15.1571 2.34315 13.6569C0.842855 12.1566 0 10.1217 0 8C0 5.87827 0.842855 3.84344 2.34315 2.34315C3.84344 0.842855 5.87827 0 8 0V0ZM8.91733 13.2707V11.4373H7.084V13.2707H8.91733ZM9.40667 9.05067C9.94849 8.78895 10.4052 8.37923 10.7239 7.86888C11.0427 7.35853 11.2105 6.76838 11.208 6.16667C11.1969 5.31929 10.8554 4.50973 10.2562 3.91049C9.65694 3.31125 8.84738 2.96972 8 2.95867C7.14919 2.95867 6.33322 3.29665 5.7316 3.89827C5.12999 4.49989 4.792 5.31585 4.792 6.16667H6.62533C6.62533 5.40667 7.24 4.792 8 4.792C8.36161 4.80144 8.7058 4.9493 8.96158 5.20508C9.21736 5.46087 9.36523 5.80506 9.37467 6.16667C9.37467 6.69333 9.07467 7.17333 8.60133 7.404C8.13778 7.64401 7.75027 8.00842 7.48226 8.45636C7.21425 8.9043 7.07634 9.41806 7.084 9.94V10.0627H8.91733V9.94C8.90888 9.76104 8.95012 9.58324 9.03649 9.42627C9.12285 9.26931 9.25097 9.13931 9.40667 9.05067Z" fill="#333333"/>
</svg>
