<svg width="16" height="16" viewBox="0 0 16 16" fill="none" xmlns="http://www.w3.org/2000/svg">
<path fill-rule="evenodd" clip-rule="evenodd" d="M7.99902 16C5.87729 16 3.84246 15.1571 2.34217 13.6569C0.841878 12.1566 -0.000976562 10.1217 -0.000976562 8C-0.000976562 5.87827 0.841878 3.84344 2.34217 2.34315C3.84246 0.842855 5.87729 0 7.99902 0C10.1208 0 12.1556 0.842855 13.6559 2.34315C15.1562 3.84344 15.999 5.87827 15.999 8C15.999 10.1217 15.1562 12.1566 13.6559 13.6569C12.1556 15.1571 10.1208 16 7.99902 16ZM7.99902 6C8.26424 6 8.51859 6.10536 8.70613 6.29289C8.89367 6.48043 8.99902 6.73478 8.99902 7V12C8.99902 12.2652 8.89367 12.5196 8.70613 12.7071C8.51859 12.8946 8.26424 13 7.99902 13C7.73381 13 7.47945 12.8946 7.29192 12.7071C7.10438 12.5196 6.99902 12.2652 6.99902 12V7C6.99902 6.73478 7.10438 6.48043 7.29192 6.29289C7.47945 6.10536 7.73381 6 7.99902 6ZM8.99902 4C8.99902 3.73478 8.89367 3.48043 8.70613 3.29289C8.51859 3.10536 8.26424 3 7.99902 3C7.73381 3 7.47945 3.10536 7.29192 3.29289C7.10438 3.48043 6.99902 3.73478 6.99902 4C6.99902 4.26522 7.10438 4.51957 7.29192 4.70711C7.47945 4.89464 7.73381 5 7.99902 5C8.26424 5 8.51859 4.89464 8.70613 4.70711C8.89367 4.51957 8.99902 4.26522 8.99902 4Z" fill="#FFD540"/>
</svg>
