<svg width="17" height="17" viewBox="0 0 17 17" fill="none" xmlns="http://www.w3.org/2000/svg">
<path d="M6.0702 8.68606C6.0702 7.24118 7.24118 6.06957 8.68606 6.06957C10.1309 6.06957 11.3025 7.24118 11.3025 8.68606C11.3025 10.1309 10.1309 11.3025 8.68606 11.3025C7.24118 11.3025 6.0702 10.1309 6.0702 8.68606ZM4.65577 8.68606C4.65577 10.912 6.46013 12.7163 8.68606 12.7163C10.912 12.7163 12.7163 10.912 12.7163 8.68606C12.7163 6.46013 10.912 4.65577 8.68606 4.65577C6.46013 4.65577 4.65577 6.46013 4.65577 8.68606ZM11.934 4.49597C11.934 4.68226 11.9891 4.86438 12.0926 5.01931C12.196 5.17424 12.343 5.29501 12.5151 5.36636C12.6872 5.43772 12.8765 5.45645 13.0593 5.42019C13.242 5.38392 13.4098 5.29428 13.5417 5.16261C13.6734 5.03093 13.7632 4.86316 13.7996 4.68046C13.836 4.49778 13.8174 4.30839 13.7462 4.13626C13.675 3.96413 13.5543 3.81698 13.3995 3.71342C13.2446 3.60987 13.0625 3.55456 12.8763 3.55449H12.8759C12.6262 3.5546 12.3868 3.65382 12.2102 3.83035C12.0336 4.00687 11.9342 4.24628 11.934 4.49597ZM5.51513 15.0748C4.7499 15.04 4.33397 14.9125 4.05757 14.8048C3.69112 14.6621 3.42966 14.4922 3.15476 14.2177C2.87986 13.9431 2.7097 13.6819 2.56767 13.3156C2.45992 13.0393 2.33245 12.6232 2.29767 11.858C2.25962 11.0307 2.25202 10.7821 2.25202 8.68612C2.25202 6.5901 2.26024 6.34227 2.29767 5.51425C2.33252 4.74902 2.46092 4.33378 2.56767 4.05669C2.71033 3.69024 2.88024 3.42878 3.15476 3.15388C3.42928 2.87898 3.69049 2.70882 4.05757 2.56679C4.33384 2.45904 4.7499 2.33158 5.51513 2.29679C6.34246 2.25874 6.59098 2.25114 8.68606 2.25114C10.7811 2.25114 11.0299 2.25937 11.8579 2.29679C12.6232 2.33164 13.0384 2.46004 13.3155 2.56679C13.6819 2.70882 13.9434 2.87936 14.2183 3.15388C14.4932 3.4284 14.6627 3.69024 14.8054 4.05669C14.9131 4.33297 15.0406 4.74902 15.0754 5.51425C15.1134 6.34227 15.121 6.5901 15.121 8.68612C15.121 10.7821 15.1134 11.03 15.0754 11.858C15.0405 12.6232 14.9124 13.0391 14.8054 13.3156C14.6627 13.6819 14.4928 13.9434 14.2183 14.2177C13.9438 14.4919 13.6819 14.6621 13.3155 14.8048C13.0392 14.9125 12.6232 15.04 11.8579 15.0748C11.0306 15.1128 10.7821 15.1205 8.68606 15.1205C6.59004 15.1205 6.34221 15.1128 5.51513 15.0748ZM5.45014 0.884752C4.61458 0.922803 4.04363 1.05529 3.54501 1.24931C3.02861 1.44968 2.59147 1.71849 2.15463 2.15463C1.7178 2.59078 1.44968 3.02861 1.24931 3.54501C1.05529 4.04394 0.922803 4.61458 0.884752 5.45014C0.846073 6.28701 0.837219 6.55456 0.837219 8.68606C0.837219 10.8175 0.846073 11.0851 0.884752 11.922C0.922803 12.7576 1.05529 13.3282 1.24931 13.8271C1.44968 14.3431 1.71786 14.7815 2.15463 15.2174C2.5914 15.6534 3.02861 15.9218 3.54501 16.1227C4.04457 16.3168 4.61458 16.4492 5.45014 16.4873C6.28745 16.5253 6.55456 16.5349 8.68606 16.5349C10.8175 16.5349 11.0851 16.526 11.922 16.4873C12.7576 16.4492 13.3282 16.3168 13.8271 16.1227C14.3431 15.9218 14.7806 15.6536 15.2174 15.2174C15.6543 14.7813 15.9218 14.3431 16.1227 13.8271C16.3168 13.3282 16.4499 12.7575 16.4873 11.922C16.5253 11.0845 16.5343 10.8175 16.5343 8.68606C16.5343 6.55456 16.5253 6.28701 16.4873 5.45014C16.4492 4.61452 16.3168 4.04363 16.1227 3.54501C15.9218 3.02893 15.6536 2.59147 15.2174 2.15463C14.7813 1.7178 14.3431 1.44968 13.8277 1.24931C13.3282 1.05529 12.7575 0.922175 11.9226 0.884752C11.0857 0.846701 10.8182 0.837219 8.68668 0.837219C6.55519 0.837219 6.28745 0.846073 5.45014 0.884752Z" fill="white"/>
</svg>
