<svg width="8" height="14" viewBox="0 0 8 14" fill="none" xmlns="http://www.w3.org/2000/svg">
<path fill-rule="evenodd" clip-rule="evenodd" d="M7.38234 13.8144C7.45766 13.7513 7.51877 13.6752 7.56218 13.5904C7.60559 13.5055 7.63045 13.4136 7.63534 13.3199C7.64023 13.2262 7.62505 13.1325 7.59068 13.0442C7.55631 12.9559 7.50341 12.8747 7.43501 12.8053L1.7125 6.99954L7.43501 1.19495C7.5732 1.05477 7.64536 0.869691 7.6356 0.68044C7.62584 0.491189 7.53496 0.313264 7.38296 0.185808C7.23096 0.0583525 7.03029 -0.00819424 6.82509 0.000807522C6.61989 0.00980928 6.42697 0.0936222 6.28877 0.233808L0.395872 6.21211L0.385959 6.22182C0.341349 6.26697 0.282488 6.32697 0.23354 6.38468C0.175918 6.45325 0.0953719 6.56182 0.047044 6.70925C-0.0155342 6.89897 -0.0155342 7.10125 0.047044 7.29097C0.0953719 7.4384 0.175918 7.5464 0.23354 7.61554C0.282488 7.67268 0.341349 7.73268 0.385959 7.77783L0.395872 7.78811L6.28877 13.7658C6.35715 13.8353 6.43969 13.8917 6.53169 13.9317C6.6237 13.9717 6.72335 13.9947 6.82496 13.9992C6.92656 14.0037 7.02814 13.9897 7.12389 13.958C7.21963 13.9263 7.30766 13.8775 7.38296 13.8144L7.38234 13.8144Z" fill="#333333"/>
</svg>
