<svg width="192" height="35" viewBox="0 0 192 35" fill="none" xmlns="http://www.w3.org/2000/svg">
<path fill-rule="evenodd" clip-rule="evenodd" d="M29.5764 8.07818L32.2374 0H9.82936C4.40075 0 0 4.40075 0 9.82935V26.2116C0 30.5545 3.5206 34.0751 7.86348 34.0751H22.0368L24.088 26.9852H11.8973C10.0877 26.9852 8.62082 25.5183 8.62082 23.7087V11.3546C8.62082 9.54509 10.0877 8.07818 11.8973 8.07818H29.5764ZM38.0058 29.0874L36.7157 34.0751H26.7836L37.9311 0H50.397L61.5973 34.0751H51.7163L48.1191 22.6277L38.0058 29.0874ZM40.628 21.6246H47.1809L43.8812 10.4847L40.628 21.6246ZM85.2695 34.0751L79.5099 23.0738H73.3523V34.0751H65.529V5.49941e-05H78.7477C82.1153 5.49941e-05 85.9695 0.812602 88.2356 3.05182C90.5331 5.25859 91.6046 8.03204 91.6046 11.8777C91.6046 13.9222 91.4226 16.3851 90.4155 18.1051C89.4084 19.7926 88.6393 20.4613 86.9083 21.4674L93.7065 34.0751H85.2695ZM72.0978 8.03204V15.6746H79.2805C80.3191 15.707 81.1689 15.3663 81.8298 14.6523C82.4908 13.9384 82.8212 13.0135 82.8212 11.8777C82.8212 10.7418 82.4908 9.81693 81.8298 9.10297C81.1689 8.38902 80.3191 8.03204 79.2805 8.03204H72.0978ZM97.6382 5.49941e-05H105.663V27.1534H122.539L120.886 34.0751H97.6382V5.49941e-05ZM126.471 23.5905V5.49941e-05H134.059V22.6356C134.059 24.807 135.82 26.5673 137.991 26.5673H143.054C145.225 26.5673 146.985 24.807 146.985 22.6356V0.0328071H154.648V23.5905C154.648 29.381 149.954 34.0751 144.164 34.0751H136.956C131.165 34.0751 126.471 29.381 126.471 23.5905ZM157.925 5.49941e-05L170.371 17.628L158.515 34.0731H167.514L174.862 23.767L182.471 34.0731L191.325 34.0751L178.945 16.8667H174.695L181.944 14.045L192 0.00829646H183.059L175.113 11.2593L166.675 5.89873e-05L157.925 5.49941e-05Z" fill="#2274EB"/>
</svg>
