<svg width="18" height="18" viewBox="0 0 18 18" fill="none" xmlns="http://www.w3.org/2000/svg">
<path fill-rule="evenodd" clip-rule="evenodd" d="M7.20001 14.4C5.5738 14.3998 3.99555 13.8491 2.72224 12.8375C1.44894 11.826 0.555574 10.4132 0.187619 8.82912C-0.180337 7.24508 -0.00121045 5.58313 0.695831 4.11388C1.39287 2.64463 2.56677 1.45462 4.02638 0.737617C5.486 0.0206138 7.14535 -0.181149 8.73426 0.165181C10.3232 0.51151 11.748 1.38553 12.7768 2.64493C13.8057 3.90434 14.3778 5.47493 14.4002 7.10099C14.4226 8.72705 13.8938 10.3128 12.9 11.6L17.7 16.5L16.5 17.7L11.6 12.9C10.3395 13.8728 8.79219 14.4003 7.20001 14.4ZM12.6 7.20001C12.6 8.63218 12.0311 10.0057 11.0184 11.0184C10.0057 12.0311 8.63218 12.6 7.20001 12.6C5.76785 12.6 4.39433 12.0311 3.38164 11.0184C2.36894 10.0057 1.80001 8.63218 1.80001 7.20001C1.80001 5.76784 2.36894 4.39433 3.38164 3.38163C4.39433 2.36893 5.76785 1.80001 7.20001 1.80001C8.63218 1.80001 10.0057 2.36893 11.0184 3.38163C12.0311 4.39433 12.6 5.76784 12.6 7.20001Z" fill="#333333"/>
</svg>
