<svg width="16" height="22" viewBox="0 0 16 22" fill="none" xmlns="http://www.w3.org/2000/svg">
<path d="M7.99997 21.0361C2.98078 15.9804 0.471191 11.7992 0.471191 8.49264C0.471191 4.33462 3.84194 0.963867 7.99997 0.963867C12.158 0.963867 15.5288 4.33462 15.5288 8.49264C15.5288 11.7992 13.0192 15.9804 7.99997 21.0361ZM2.27119 8.49264C2.27119 10.9434 4.14896 14.3046 7.99997 18.4407C11.851 14.3046 13.7288 10.9434 13.7288 8.49264C13.7288 5.32873 11.1639 2.76387 7.99997 2.76387C4.83605 2.76387 2.27119 5.32873 2.27119 8.49264ZM4.39996 8.49264C4.39996 6.50442 6.01177 4.89264 7.99997 4.89264C9.98817 4.89264 11.6 6.50442 11.6 8.49264C11.6 10.4809 9.98817 12.0927 7.99997 12.0927C6.01177 12.0927 4.39996 10.4809 4.39996 8.49264ZM7.99997 6.69264C7.00587 6.69264 6.19997 7.49853 6.19997 8.49264C6.19997 9.48679 7.00587 10.2927 7.99997 10.2927C8.99407 10.2927 9.79997 9.48679 9.79997 8.49264C9.79997 7.49853 8.99407 6.69264 7.99997 6.69264Z" fill="white"/>
</svg>
