<svg width="8" height="14" viewBox="0 0 8 14" fill="none" xmlns="http://www.w3.org/2000/svg">
<path fill-rule="evenodd" clip-rule="evenodd" d="M7.38222 13.8144C7.45754 13.7513 7.51865 13.6752 7.56206 13.5904C7.60547 13.5055 7.63033 13.4136 7.63522 13.3199C7.64011 13.2262 7.62493 13.1325 7.59056 13.0442C7.55619 12.9559 7.50329 12.8747 7.43488 12.8053L1.71237 6.99954L7.43489 1.19495C7.57308 1.05477 7.64524 0.869691 7.63548 0.68044C7.62572 0.491189 7.53484 0.313264 7.38284 0.185808C7.23084 0.0583525 7.03017 -0.00819424 6.82497 0.000807522C6.61976 0.00980928 6.42685 0.0936222 6.28865 0.233808L0.39575 6.21211L0.385837 6.22182C0.341227 6.26697 0.282366 6.32697 0.233418 6.38468C0.175796 6.45325 0.0952498 6.56182 0.0469219 6.70925C-0.0156563 6.89897 -0.0156563 7.10125 0.0469219 7.29097C0.0952498 7.4384 0.175796 7.5464 0.233418 7.61554C0.282365 7.67268 0.341227 7.73268 0.385837 7.77783L0.39575 7.78811L6.28865 13.7658C6.35703 13.8353 6.43957 13.8917 6.53157 13.9317C6.62357 13.9717 6.72322 13.9947 6.82483 13.9992C6.92644 14.0037 7.02802 13.9897 7.12376 13.958C7.21951 13.9263 7.30754 13.8775 7.38284 13.8144L7.38222 13.8144Z" fill="#333333"/>
</svg>
