<svg width="20" height="21" viewBox="0 0 20 21" fill="none" xmlns="http://www.w3.org/2000/svg">
<path fill-rule="evenodd" clip-rule="evenodd" d="M6.8989 4.51005C7.1689 4.03005 7.5789 3.61005 8.0689 3.35005C8.77115 2.93876 9.58916 2.7698 10.3969 2.86918C11.2046 2.96857 11.9573 3.33079 12.5389 3.90005C13.1073 4.48006 13.4691 5.23098 13.5685 6.03699C13.6679 6.843 13.4994 7.65932 13.0889 8.36005C12.8189 8.85005 12.4089 9.26005 11.9189 9.52005C11.2192 9.93181 10.4035 10.102 9.59756 10.0044C8.79159 9.90685 8.04009 9.5469 7.4589 8.98005C6.88423 8.3998 6.51768 7.64572 6.41638 6.83536C6.31509 6.02501 6.48474 5.20391 6.8989 4.50005V4.51005ZM9.9989 11.88C10.9689 11.88 11.9689 11.64 12.9089 11.13C13.6686 10.7235 14.2939 10.1051 14.7089 9.35005C15.9689 7.01005 15.6389 4.35005 13.8689 2.59005C12.9848 1.72928 11.8424 1.18279 10.6174 1.03463C9.39244 0.886479 8.1527 1.14486 7.0889 1.77005C6.33188 2.17676 5.70984 2.79532 5.2989 3.55005C4.68116 4.61348 4.43068 5.85069 4.58611 7.07065C4.74154 8.29061 5.29425 9.42549 6.1589 10.3C6.66304 10.8038 7.2619 11.2027 7.92096 11.4739C8.58002 11.7451 9.28624 11.8831 9.9989 11.88ZM1.8989 18.14C2.1583 17.0458 2.7833 16.0728 3.67061 15.3818C4.55792 14.6909 5.65442 14.3234 6.7789 14.34H13.2189C14.4389 14.34 15.5989 14.75 16.5089 15.51C17.3217 16.1812 17.8823 17.1085 18.0989 18.14H1.8989ZM18.2889 14.68C17.6451 13.9697 16.8595 13.4024 15.9827 13.0149C15.1059 12.6273 14.1575 12.428 13.1989 12.43H6.7989C4.8589 12.43 2.9989 13.25 1.7089 14.68C1.07254 15.3874 0.595118 16.2228 0.308775 17.1301C0.0224327 18.0375 -0.0661824 18.9956 0.0488965 19.9401L0.0588965 20.0401H19.9389L19.9489 19.9401C20.0633 18.9956 19.9744 18.0376 19.6881 17.1304C19.4018 16.2232 18.9247 15.3877 18.2889 14.68Z" fill="#333333"/>
</svg>
