<svg width="16" height="18" viewBox="0 0 16 18" fill="none" xmlns="http://www.w3.org/2000/svg">
<path fill-rule="evenodd" clip-rule="evenodd" d="M11.52 1.95857H14.6825C14.7765 1.961 14.866 1.99945 14.9326 2.06597C14.9991 2.1325 15.0375 2.22202 15.04 2.31607V3.36932C15.0378 3.46269 14.9992 3.55152 14.9324 3.61679C14.8656 3.68206 14.7759 3.71859 14.6825 3.71857H1.31746C1.22406 3.71859 1.13435 3.68206 1.06754 3.61679C1.00073 3.55152 0.962116 3.46269 0.959961 3.36932V2.31744C0.962396 2.22339 1.00084 2.13387 1.06737 2.06735C1.13389 2.00082 1.22341 1.96238 1.31746 1.95994H4.47996V0.557441C4.47978 0.511642 4.48864 0.466258 4.50605 0.423893C4.52345 0.381528 4.54904 0.343016 4.58136 0.310567C4.61369 0.278118 4.6521 0.252371 4.69439 0.234802C4.73669 0.217234 4.78204 0.208191 4.82784 0.208191H11.1721C11.2179 0.208191 11.2632 0.217234 11.3055 0.234802C11.3478 0.252371 11.3862 0.278118 11.4186 0.310567C11.4509 0.343016 11.4765 0.381528 11.4939 0.423893C11.5113 0.466258 11.5201 0.511642 11.52 0.557441V1.95857ZM5.70784 5.47857H6.77071C6.96321 5.47857 7.11996 5.63394 7.11996 5.82644V13.9211C7.11996 14.1136 6.96321 14.2689 6.77071 14.2689H5.70784C5.61557 14.2689 5.52709 14.2323 5.46185 14.1671C5.39661 14.1018 5.35996 14.0133 5.35996 13.9211V5.82644C5.35996 5.63394 5.51534 5.47857 5.70784 5.47857ZM10.2921 5.47857H9.22784C9.13557 5.47857 9.04709 5.51522 8.98185 5.58046C8.91661 5.6457 8.87996 5.73418 8.87996 5.82644V13.9211C8.87996 14.1136 9.03534 14.2689 9.22784 14.2689H10.2921C10.4846 14.2689 10.64 14.1136 10.64 13.9211V5.82644C10.64 5.73418 10.6033 5.6457 10.5381 5.58046C10.4728 5.51522 10.3843 5.47857 10.2921 5.47857ZM12.3903 16.0111V4.94644C12.3903 4.90064 12.3994 4.85529 12.4169 4.813C12.4345 4.7707 12.4603 4.73229 12.4927 4.69997C12.5252 4.66765 12.5637 4.64205 12.606 4.62465C12.6484 4.60725 12.6938 4.59838 12.7396 4.59857H13.8121C13.9042 4.59893 13.9925 4.6357 14.0577 4.70086C14.1228 4.76602 14.1596 4.85429 14.16 4.94644V16.5157C14.1574 16.8545 14.021 17.1785 13.7803 17.4171C13.5397 17.6556 13.2145 17.7893 12.8757 17.7889H3.12284C2.78437 17.7886 2.45972 17.6546 2.21949 17.4162C1.97925 17.1778 1.84286 16.8541 1.83996 16.5157V4.94644C1.83996 4.85418 1.87661 4.7657 1.94185 4.70046C2.00709 4.63522 2.09557 4.59857 2.18784 4.59857H3.26034C3.30613 4.59838 3.35152 4.60725 3.39388 4.62465C3.43625 4.64205 3.47476 4.66765 3.50721 4.69997C3.53966 4.73229 3.56541 4.7707 3.58297 4.813C3.60054 4.85529 3.60959 4.90064 3.60959 4.94644V16.0124L12.3903 16.0111Z" fill="#333333"/>
</svg>
