<svg width="150" height="72" viewBox="0 0 150 72" fill="none" xmlns="http://www.w3.org/2000/svg">
<rect width="150" height="71.1036" fill="#C9C9C9"/>
<path d="M92.3824 50.9751H57.4232C56.3027 50.9751 55.3503 50.5829 54.566 49.7986C53.7817 49.0142 53.3895 48.0618 53.3895 46.9413V22.7388C53.3895 21.6183 53.7817 20.6659 54.566 19.8816C55.3503 19.0972 56.3027 18.7051 57.4232 18.7051H92.3824C93.5029 18.7051 94.4553 19.0972 95.2397 19.8816C96.024 20.6659 96.4162 21.6183 96.4162 22.7388V46.9413C96.4162 48.0618 96.024 49.0142 95.2397 49.7986C94.4553 50.5829 93.5029 50.9751 92.3824 50.9751ZM66.079 24.8397C65.1826 23.8873 64.0901 23.4111 62.8016 23.4111C61.513 23.4111 60.3925 23.8873 59.4401 24.8397C58.5437 25.7361 58.0955 26.8286 58.0955 28.1172C58.0955 29.4057 58.5437 30.5262 59.4401 31.4786C60.3925 32.375 61.513 32.8232 62.8016 32.8232C64.0901 32.8232 65.1826 32.375 66.079 31.4786C67.0314 30.5262 67.5076 29.4057 67.5076 28.1172C67.5076 26.8286 67.0314 25.7361 66.079 24.8397ZM58.7678 45.5968H91.0379V36.1847L83.6426 28.7894C83.1944 28.3413 82.7463 28.3413 82.2981 28.7894L70.8691 40.2184L66.163 35.5124C65.7148 35.0642 65.2666 35.0642 64.8185 35.5124L58.7678 41.563V45.5968Z" fill="#EEEEEE"/>
<rect x="23" width="100" height="71.1036" fill="#C9C9C9"/>
<path d="M90.4148 50.9751H55.4556C54.3351 50.9751 53.3827 50.5829 52.5984 49.7986C51.814 49.0142 51.4218 48.0618 51.4218 46.9413V22.7388C51.4218 21.6183 51.814 20.6659 52.5984 19.8816C53.3827 19.0972 54.3351 18.7051 55.4556 18.7051H90.4148C91.5353 18.7051 92.4877 19.0972 93.272 19.8816C94.0564 20.6659 94.4486 21.6183 94.4486 22.7388V46.9413C94.4486 48.0618 94.0564 49.0142 93.272 49.7986C92.4877 50.5829 91.5353 50.9751 90.4148 50.9751ZM64.1114 24.8397C63.215 23.8873 62.1225 23.4111 60.8339 23.4111C59.5454 23.4111 58.4249 23.8873 57.4725 24.8397C56.5761 25.7361 56.1279 26.8286 56.1279 28.1172C56.1279 29.4057 56.5761 30.5262 57.4725 31.4786C58.4249 32.375 59.5454 32.8232 60.8339 32.8232C62.1225 32.8232 63.215 32.375 64.1114 31.4786C65.0638 30.5262 65.54 29.4057 65.54 28.1172C65.54 26.8286 65.0638 25.7361 64.1114 24.8397ZM56.8002 45.5968H89.0702V36.1847L81.675 28.7894C81.2268 28.3413 80.7786 28.3413 80.3304 28.7894L68.9014 40.2184L64.1954 35.5124C63.7472 35.0642 63.299 35.0642 62.8508 35.5124L56.8002 41.563V45.5968Z" fill="#EEEEEE"/>
</svg>
