<svg width="21" height="22" viewBox="0 0 21 22" fill="none" xmlns="http://www.w3.org/2000/svg">
<path d="M1 6.34619H19.75V17.5577C19.75 18.5115 19.3769 19.4262 18.7127 20.1006C18.0485 20.775 17.1476 21.1539 16.2083 21.1539H4.54167C3.60236 21.1539 2.70152 20.775 2.03733 20.1006C1.37314 19.4262 1 18.5115 1 17.5577V6.34619Z" stroke="#111111" stroke-width="1.5"/>
<path d="M13.9173 9.09615C13.9173 9.26446 13.9832 9.42588 14.1004 9.54489C14.2176 9.66391 14.3766 9.73077 14.5423 9.73077C14.7081 9.73077 14.867 9.66391 14.9843 9.54489C15.1015 9.42588 15.1673 9.26446 15.1673 9.09615H13.9173ZM5.58398 9.09615C5.58398 9.26446 5.64983 9.42588 5.76704 9.54489C5.88425 9.66391 6.04322 9.73077 6.20898 9.73077C6.37474 9.73077 6.53372 9.66391 6.65093 9.54489C6.76814 9.42588 6.83398 9.26446 6.83398 9.09615H5.58398ZM6.83398 9.09615V4.86538H5.58398V9.09615H6.83398ZM13.9173 4.86538V9.09615H15.1673V4.86538H13.9173ZM10.3757 1.26923C11.315 1.26923 12.2158 1.64811 12.88 2.32252C13.5442 2.99693 13.9173 3.91163 13.9173 4.86538H15.1673C15.1673 3.575 14.6625 2.33747 13.7639 1.42504C12.8653 0.512602 11.6465 0 10.3757 0V1.26923ZM6.83398 4.86538C6.83398 3.91163 7.20712 2.99693 7.87131 2.32252C8.53551 1.64811 9.43634 1.26923 10.3757 1.26923V0C9.10482 0 7.88604 0.512602 6.98743 1.42504C6.08882 2.33747 5.58398 3.575 5.58398 4.86538H6.83398Z" fill="#111111"/>
</svg>
