<svg width="18" height="15" viewBox="0 0 18 15" fill="none" xmlns="http://www.w3.org/2000/svg">
<path d="M17.0001 1.71857V6.03973H12.6365" stroke="#237061" stroke-width="1.5" stroke-linecap="round" stroke-linejoin="round"/>
<path d="M1 13.2416V8.92041H5.36362" stroke="#237061" stroke-width="1.5" stroke-linecap="round" stroke-linejoin="round"/>
<path d="M2.82545 5.31948C3.1943 4.28728 3.82119 3.36443 4.64761 2.63705C5.47404 1.90966 6.47307 1.40144 7.55148 1.15981C8.6299 0.918175 9.75255 0.951009 10.8147 1.25524C11.8768 1.55948 12.8438 2.1252 13.6255 2.89962L17 6.03968M1 8.92047L4.37455 12.0605C5.15618 12.8349 6.12318 13.4007 7.18532 13.7049C8.24745 14.0091 9.3701 14.042 10.4485 13.8003C11.5269 13.5587 12.526 13.0505 13.3524 12.3231C14.1788 11.5957 14.8057 10.6729 15.1745 9.64066" stroke="#237061" stroke-width="1.5" stroke-linecap="round" stroke-linejoin="round"/>
</svg>
