<svg width="12" height="12" viewBox="0 0 12 12" fill="none" xmlns="http://www.w3.org/2000/svg">
<path opacity="0.7" d="M6.3041 5.59224L11.0521 0.848245C11.1427 0.753463 11.1926 0.626962 11.1911 0.495836C11.1896 0.36471 11.1368 0.239389 11.044 0.146715C10.9513 0.0540417 10.8259 0.00138597 10.6947 2.69711e-05C10.5636 -0.00133203 10.4372 0.0487138 10.3425 0.139445L5.6001 4.88744L0.855295 0.139445C0.760514 0.0488206 0.634012 -0.00108251 0.502887 0.000424411C0.371761 0.00193133 0.24644 0.0547284 0.153766 0.147507C0.0610924 0.240285 0.00843669 0.365666 0.00707769 0.496793C0.00571868 0.62792 0.0557645 0.754366 0.146495 0.849045L4.8953 5.59144L0.147295 10.3362C0.100612 10.3827 0.0635674 10.4379 0.0382899 10.4987C0.0130125 10.5596 0 10.6248 0 10.6906C0 10.7565 0.0130125 10.8217 0.0382899 10.8825C0.0635674 10.9434 0.100612 10.9986 0.147295 11.045C0.19377 11.0918 0.249045 11.129 0.309938 11.1543C0.370831 11.1797 0.436137 11.1927 0.502095 11.1927C0.568053 11.1927 0.63336 11.1797 0.694252 11.1543C0.755145 11.129 0.810421 11.0918 0.856895 11.045L5.5993 6.29625L10.3417 11.0442C10.3882 11.091 10.4434 11.1282 10.5043 11.1535C10.5652 11.1789 10.6305 11.1919 10.6965 11.1919C10.7625 11.1919 10.8278 11.1789 10.8887 11.1535C10.9495 11.1282 11.0048 11.091 11.0513 11.0442C11.0981 10.9978 11.1352 10.9425 11.1606 10.8816C11.1859 10.8207 11.199 10.7554 11.199 10.6894C11.199 10.6235 11.1859 10.5582 11.1606 10.4973C11.1352 10.4364 11.0981 10.3811 11.0513 10.3346L6.3041 5.59224Z" fill="#707372"/>
</svg>
