<svg width="20" height="12" viewBox="0 0 20 12" fill="none" xmlns="http://www.w3.org/2000/svg">
<path d="M10 0C6.17879 0 2.71351 1.94475 0.15649 5.10353C-0.0521633 5.36233 -0.0521633 5.72387 0.15649 5.98267C2.71351 9.14526 6.17879 11.09 10 11.09C13.8212 11.09 17.2865 9.14526 19.8435 5.98647C20.0522 5.72768 20.0522 5.36613 19.8435 5.10734C17.2865 1.94475 13.8212 0 10 0ZM10.2741 9.44972C7.73755 9.59814 5.64284 7.6534 5.80239 5.29002C5.93331 3.34146 7.63118 1.76207 9.72589 1.64029C12.2625 1.49186 14.3572 3.43661 14.1976 5.79999C14.0626 7.74473 12.3647 9.32413 10.2741 9.44972ZM10.1473 7.64578C8.78081 7.72571 7.65163 6.67912 7.74164 5.408C7.81119 4.3576 8.72763 3.50892 9.85681 3.44041C11.2233 3.36049 12.3525 4.40708 12.2625 5.67821C12.1888 6.7324 11.2724 7.58109 10.1473 7.64578Z" fill="#8E8E8E"/>
</svg>
