<svg width="20" height="25" viewBox="0 0 20 25" fill="none" xmlns="http://www.w3.org/2000/svg">
<path fill-rule="evenodd" clip-rule="evenodd" d="M10 6C7.79687 6 6 7.79688 6 10C6 12.2031 7.79687 14 10 14C12.2031 14 14 12.2031 14 10C14 7.79688 12.2031 6 10 6ZM12.8571 10C12.8571 8.41518 11.5848 7.14286 10 7.14286C8.41518 7.14286 7.14286 8.41518 7.14286 10C7.14286 11.5848 8.41518 12.8571 10 12.8571C11.5848 12.8571 12.8571 11.5848 12.8571 10Z" fill="#001424" stroke="#001424" stroke-width="0.3"/>
<path d="M10 1.08326C5.02759 1.08326 1 5.28199 1 9.33392C1 12.684 3.1709 16.2847 5.30664 19.0743C7.44238 21.8639 9.57812 23.8442 9.57812 23.8442C9.68579 23.9427 9.8396 24 10 24C10.1604 24 10.3142 23.9427 10.4219 23.8442C10.4219 23.8442 12.5598 21.8227 14.6934 19.017C16.8269 16.2113 19 12.6195 19 9.33392C19 5.28199 14.9724 1.08326 10 1.08326ZM10 2C14.366 2 17.875 5.77617 17.875 9.33392C17.875 12.2829 15.8293 15.7887 13.7441 18.53C11.9973 20.8272 10.5186 22.3062 10 22.8129C9.47705 22.3097 7.99829 20.863 6.25586 18.5873C4.17285 15.8657 2.125 12.3545 2.125 9.33392C2.125 5.77617 5.63403 2 10 2Z" fill="#001424" stroke="#001424" stroke-width="0.3"/>
</svg>
