<svg width="20" height="20" viewBox="0 0 20 20" fill="none" xmlns="http://www.w3.org/2000/svg">
<circle opacity="0.5" cx="10" cy="10" r="10" fill="white"/>
<path d="M14.4678 8.28027L14.9072 8.71973L10 13.627L5.09277 8.71973L5.53223 8.28027L10 12.748L14.4678 8.28027Z" fill="white"/>
<path d="M14.4678 8.28027L14.6799 8.06814L14.4678 7.85601L14.2556 8.06814L14.4678 8.28027ZM14.9072 8.71973L15.1194 8.93186L15.3315 8.71973L15.1194 8.50759L14.9072 8.71973ZM10 13.627L9.78787 13.8391L10 14.0512L10.2121 13.8391L10 13.627ZM5.09277 8.71973L4.88064 8.50759L4.66851 8.71973L4.88064 8.93186L5.09277 8.71973ZM5.53223 8.28027L5.74436 8.06814L5.53223 7.85601L5.32009 8.06814L5.53223 8.28027ZM10 12.748L9.78787 12.9602L10 13.1723L10.2121 12.9602L10 12.748ZM14.2556 8.49241L14.6951 8.93186L15.1194 8.50759L14.6799 8.06814L14.2556 8.49241ZM14.6951 8.50759L9.78787 13.4148L10.2121 13.8391L15.1194 8.93186L14.6951 8.50759ZM10.2121 13.4148L5.30491 8.50759L4.88064 8.93186L9.78787 13.8391L10.2121 13.4148ZM5.30491 8.93186L5.74436 8.49241L5.32009 8.06814L4.88064 8.50759L5.30491 8.93186ZM5.32009 8.49241L9.78787 12.9602L10.2121 12.5359L5.74436 8.06814L5.32009 8.49241ZM10.2121 12.9602L14.6799 8.49241L14.2556 8.06814L9.78787 12.5359L10.2121 12.9602Z" fill="white"/>
</svg>
