<svg width="40" height="40" viewBox="0 0 40 40" fill="none" xmlns="http://www.w3.org/2000/svg">
<circle cx="20" cy="20" r="20" fill="#FECA00"/>
<path d="M16.4165 27.7655L24.3919 19.7815L16.4165 11.7975L17.1883 11.0257L25.9527 19.7815L17.1883 28.5373L16.4165 27.7655Z" fill="white"/>
<path d="M16.4165 27.7655L15.7625 27.1122L15.1096 27.7658L15.7629 28.4191L16.4165 27.7655ZM24.3919 19.7815L25.0459 20.4348L25.6984 19.7815L25.0459 19.1282L24.3919 19.7815ZM16.4165 11.7975L15.7629 11.1439L15.1096 11.7972L15.7625 12.4508L16.4165 11.7975ZM17.1883 11.0257L17.8416 10.3718L17.188 9.71879L16.5347 10.3721L17.1883 11.0257ZM25.9527 19.7815L26.606 20.4355L27.2606 19.7815L26.606 19.1276L25.9527 19.7815ZM17.1883 28.5373L16.5347 29.1909L17.188 29.8442L17.8416 29.1912L17.1883 28.5373ZM17.0705 28.4188L25.0459 20.4348L23.7379 19.1282L15.7625 27.1122L17.0705 28.4188ZM25.0459 19.1282L17.0705 11.1443L15.7625 12.4508L23.7379 20.4348L25.0459 19.1282ZM17.0701 12.4512L17.8419 11.6794L16.5347 10.3721L15.7629 11.1439L17.0701 12.4512ZM16.535 11.6797L25.2993 20.4355L26.606 19.1276L17.8416 10.3718L16.535 11.6797ZM25.2993 19.1276L16.535 27.8833L17.8416 29.1912L26.606 20.4355L25.2993 19.1276ZM17.8419 27.8837L17.0701 27.1119L15.7629 28.4191L16.5347 29.1909L17.8419 27.8837Z" fill="white"/>
</svg>
