<svg width="13" height="17" viewBox="0 0 13 17" fill="none" xmlns="http://www.w3.org/2000/svg">
<path d="M7.52035 15.1564C7.40247 15.3146 7.24866 15.4432 7.07132 15.5319C6.89397 15.6205 6.69806 15.6667 6.49937 15.6667C6.30067 15.6667 6.10476 15.6205 5.92741 15.5319C5.75007 15.4432 5.59626 15.3146 5.47838 15.1564C2.49279 11.1533 1 8.24789 1 6.44015C1 4.99733 1.57946 3.61361 2.61091 2.59338C3.64236 1.57316 5.04131 1 6.5 1C7.95869 1 9.35764 1.57316 10.3891 2.59338C11.4205 3.61361 12 4.99733 12 6.44015C12 8.24789 10.5072 11.1533 7.52098 15.1577L7.52035 15.1564ZM6.47463 8.71456C6.77348 8.71456 7.06939 8.65634 7.34549 8.54322C7.62158 8.4301 7.87245 8.26431 8.08376 8.05529C8.29508 7.84628 8.4627 7.59814 8.57706 7.32505C8.69143 7.05196 8.75029 6.75926 8.75029 6.46367C8.75029 6.16808 8.69143 5.87538 8.57706 5.60229C8.4627 5.3292 8.29508 5.08107 8.08376 4.87205C7.87245 4.66304 7.62158 4.49724 7.34549 4.38412C7.06939 4.271 6.77348 4.21278 6.47463 4.21278C5.87118 4.21278 5.29244 4.44989 4.86573 4.87196C4.43902 5.29402 4.1993 5.86647 4.1993 6.46336C4.1993 7.06025 4.43902 7.63269 4.86573 8.05476C5.29244 8.47682 5.87118 8.71456 6.47463 8.71456Z" stroke="#31383A" stroke-width="1.46667"/>
</svg>
