<svg width="40" height="40" viewBox="0 0 40 40" fill="none" xmlns="http://www.w3.org/2000/svg">
<circle cx="20" cy="20" r="20" fill="white" fill-opacity="0.3"/>
<circle cx="20" cy="20" r="20" fill="#FACB18"/>
<path d="M19.56 21.1222C16.8786 21.1222 14.6972 18.9934 14.6972 16.3762C14.6972 13.7591 16.8786 11.6289 19.56 11.6289C22.2414 11.6289 24.4215 13.7591 24.4215 16.3762C24.4215 18.9934 22.2414 21.1222 19.56 21.1222ZM19.56 9C15.3849 9 12 12.2996 12 16.3697C12 16.6807 12.0263 16.9839 12.0656 17.2858C12.7101 23.0424 19.0691 29.6758 19.0691 29.6758C19.1621 29.7803 19.2733 29.867 19.3973 29.9317L19.4025 29.9344L19.6138 30L19.8251 29.9344L19.8317 29.9317C19.9545 29.8657 20.0654 29.7797 20.1598 29.6771C20.1598 29.6771 26.4257 23.0306 27.057 17.2727C27.0938 16.9761 27.12 16.6742 27.12 16.3671C27.1187 12.2996 23.7351 9 19.56 9Z" fill="white"/>
</svg>
