<svg width="192" height="49" viewBox="0 0 192 49" fill="none" xmlns="http://www.w3.org/2000/svg">
<path fill-rule="evenodd" clip-rule="evenodd" d="M68.6562 24.0459L70.9055 22.6993C72.5681 25.681 74.4262 27.1238 76.4798 27.1238C79.1203 27.1238 81.4674 25.2963 81.4674 22.6032C81.4674 19.8139 77.9468 17.2169 75.8931 15.678C73.1548 13.6581 70.221 11.6383 70.221 7.98334C70.221 4.32839 73.1548 1.73145 76.7732 1.73145C80.0005 1.73145 82.0542 3.65511 83.9123 6.05968L81.663 7.69479C80.3916 5.9635 79.0225 4.42457 76.6754 4.42457C74.6217 4.42457 72.9592 5.77114 72.9592 7.79098C72.9592 10.6765 76.1865 12.4078 78.1424 13.9467C80.9784 15.9665 84.3034 18.7558 84.3034 22.507C84.3034 26.6429 80.685 29.6245 76.5776 29.6245C72.8614 29.6245 70.5144 27.2199 68.6562 24.0459ZM90.7579 2.40473H93.4962V28.9512H90.7579V2.40473ZM100.537 2.40473H103.276V26.4505H113.74V29.0474H100.635V2.40473H100.537ZM145.034 6.82915L142.98 8.75281C140.242 6.15587 136.526 4.32838 132.712 4.32838C126.355 4.32838 120.585 9.13755 120.585 15.5818C120.585 22.3146 126.551 27.1238 133.103 27.1238C138.286 27.1238 142.883 24.0459 143.567 18.852H134.961V16.2551H146.599C146.501 24.4306 141.318 29.6245 133.005 29.6245C124.693 29.6245 117.749 24.0459 117.749 15.678C117.749 7.40624 124.497 1.73145 132.614 1.73145C137.504 1.73145 141.416 3.55893 145.034 6.82915ZM152.662 2.40473H168.114V5.00168H155.303V13.3696H167.918V15.9665H155.303V26.4505H167.918V29.0474H152.564V2.40473H152.662ZM173.884 2.40473H179.262C184.445 2.40473 190.802 2.5971 190.802 9.52228C190.802 15.1009 186.304 16.6398 181.414 16.6398L191.193 29.0474H187.868L178.089 16.6398H176.524V28.9512H173.786V2.40473H173.884ZM176.622 5.00168V14.0429H181.316C184.543 14.0429 188.064 13.3696 188.064 9.42609C188.064 5.48258 184.543 5.00168 181.414 5.00168H176.622Z" fill="white"/>
<path fill-rule="evenodd" clip-rule="evenodd" d="M70.4102 46.2638V33.9524H76.669V35.1065H71.6815V39.0501H72.2683C74.8109 39.0501 77.9404 39.531 77.9404 42.705C77.9404 44.9172 76.0823 46.2638 73.9308 46.2638H70.4102ZM71.6815 40.3004V45.0134H73.2462C74.8109 45.0134 76.669 44.6287 76.669 42.705C76.669 40.3966 74.2242 40.3004 72.4639 40.3004H71.6815ZM85.3728 33.9524L91.2405 46.2638H89.8713L87.9154 42.2241H82.5367L80.5808 46.2638H79.2117L85.0794 33.9524H85.3728ZM85.275 36.5493L83.1235 41.0699H87.4265L85.275 36.5493ZM93.2942 35.1065C94.1743 34.1447 95.2501 33.5676 96.5214 33.5676C98.4773 33.5676 100.042 34.7218 100.042 36.7417C100.042 38.0882 99.4552 38.9539 98.1839 39.531C99.8464 40.0119 100.629 41.1661 100.629 42.8012C100.629 45.2058 98.8685 46.5523 96.5214 46.5523C94.5655 46.5523 93.392 45.6867 92.3162 44.0516L93.2942 43.4745C94.0765 44.6287 94.9567 45.3981 96.5214 45.3981C98.1839 45.3981 99.3575 44.4363 99.3575 42.705C99.3575 40.4928 97.4993 40.2042 95.739 40.2042H95.5435V39.1462H95.9346C97.7927 39.1462 98.7707 38.3768 98.7707 36.934C98.7707 35.5875 97.8905 34.7218 96.5214 34.7218C95.6412 34.7218 94.8589 35.1065 94.1743 35.876L93.2942 35.1065ZM108.159 33.9524L114.027 46.2638H112.658L110.702 42.2241H105.323L103.367 46.2638H101.998L107.866 33.9524H108.159ZM108.061 36.5493L105.91 41.0699H110.213L108.061 36.5493ZM126.642 33.6638C130.358 33.6638 133.292 36.3569 133.292 40.1081C133.292 43.763 130.456 46.5523 126.74 46.5523C123.024 46.5523 120.09 43.763 120.09 40.1081C120.188 36.5493 123.024 33.6638 126.642 33.6638ZM126.74 34.818C123.708 34.818 121.459 37.2226 121.459 40.1081C121.459 42.9936 123.806 45.302 126.74 45.302C129.772 45.302 132.021 42.9936 132.021 40.0119C132.021 37.1264 129.674 34.818 126.74 34.818ZM134.466 35.1065V33.9524H141.311V35.1065H138.475V46.2638H137.204V35.2027H134.466V35.1065ZM143.072 47.1294H141.8V45.1096H142.778L147.668 33.9524H148.059L153.242 45.1096H154.22V47.1294H152.949V46.1676H142.974V47.1294H143.072ZM144.245 45.1096H151.873L147.962 36.5493L144.245 45.1096ZM155.981 33.9524H157.252V39.2424H158.132C160.87 39.2424 164 39.1462 164 42.705C164 46.1676 161.164 46.2638 158.426 46.2638H155.883V33.9524H155.981ZM157.252 45.0134H158.621C160.479 45.0134 162.729 45.2058 162.729 42.705C162.729 40.1081 160.186 40.3966 158.328 40.3966H157.252V45.0134ZM165.565 33.9524H166.836V46.2638H165.565V33.9524ZM169.085 33.9524H170.552L173.584 38.7615L176.615 33.9524H178.082L174.366 39.9157L178.376 46.2638H176.909L173.682 41.0699L170.454 46.2638H168.987L172.997 39.9157L169.085 33.9524ZM185.319 33.9524L191.187 46.2638H189.818L187.862 42.2241H182.483L180.527 46.2638H179.158L185.026 33.9524H185.319ZM185.221 36.5493L183.07 41.0699H187.373L185.221 36.5493Z" fill="white"/>
<path fill-rule="evenodd" clip-rule="evenodd" d="M54.7652 37.1266C56.5255 33.6641 57.5034 29.7206 57.5034 25.5847C57.5034 11.4458 45.8658 0 31.49 0C17.1141 0 5.47651 11.4458 5.47651 25.5847C5.47651 29.7206 6.45447 33.6641 8.21478 37.1266C15.1582 36.261 22.1994 35.7801 29.2407 35.7801L28.0671 22.8916C20.2435 23.4687 13.8869 22.1221 13.7891 20.0061C13.6913 19.3328 14.2781 18.5633 15.3538 17.9862L25.2311 11.6381C27.5782 10.0992 28.2627 10.003 30.9032 11.1572L41.7584 15.774C42.932 16.2549 43.5187 16.832 43.6165 17.5053C43.8121 19.7175 37.7488 22.0259 30.023 22.7954L31.1966 35.8763H31.6856C32.0767 35.8763 32.4679 35.8763 32.8591 35.8763V26.0656C32.8591 25.3923 33.4459 24.9114 34.0326 24.9114H43.3232C44.0077 24.9114 44.4967 25.4885 44.4967 26.0656V36.261C47.8217 36.3572 51.2445 36.7419 54.7652 37.1266ZM62.9799 40.0121C61.2196 39.7236 59.3615 39.435 57.6012 39.1465C50.8534 39.3389 47.3327 41.2625 43.9099 42.9938C40.4871 44.8213 37.3577 46.4564 31.49 46.4564C25.7201 46.4564 22.4928 44.7251 19.07 42.9938C15.745 41.2625 12.2244 39.3389 5.37872 39.1465C3.52062 39.435 1.76031 39.6274 0 40.0121C9.19272 45.4946 19.9502 48.5724 31.49 48.5724C43.0298 48.5724 53.7872 45.4946 62.9799 40.0121ZM49.9732 38.377C47.1372 39.1465 44.9857 40.3007 42.932 41.3587C39.8025 42.9938 36.7709 44.6289 31.49 44.6289C26.209 44.6289 23.1774 43.09 20.048 41.3587C17.9943 40.3007 15.8428 39.1465 13.0067 38.377C19.07 37.7999 25.2311 37.5114 31.49 37.5114C37.7488 37.4152 43.9099 37.7037 49.9732 38.377ZM35.0106 32.4137H41.954C42.2474 32.4137 42.5408 32.7022 42.5408 32.9908V33.6641H34.326V32.9908C34.4238 32.7022 34.6194 32.4137 35.0106 32.4137ZM42.5408 34.6259V36.0686C39.8025 35.8763 37.0643 35.7801 34.326 35.7801V34.6259H42.5408Z" fill="white" fill-opacity="0.3"/>
<path fill-rule="evenodd" clip-rule="evenodd" d="M54.7652 37.1266C56.5255 33.6641 57.5034 29.7206 57.5034 25.5847C57.5034 11.4458 45.8658 0 31.49 0C17.1141 0 5.47651 11.4458 5.47651 25.5847C5.47651 29.7206 6.45447 33.6641 8.21478 37.1266C15.1582 36.261 22.1994 35.7801 29.2407 35.7801L28.0671 22.8916C20.2435 23.4687 13.8869 22.1221 13.7891 20.0061C13.6913 19.3328 14.2781 18.5633 15.3538 17.9862L25.2311 11.6381C27.5782 10.0992 28.2627 10.003 30.9032 11.1572L41.7584 15.774C42.932 16.2549 43.5187 16.832 43.6165 17.5053C43.8121 19.7175 37.7488 22.0259 30.023 22.7954L31.1966 35.8763H31.6856C32.0767 35.8763 32.4679 35.8763 32.8591 35.8763V26.0656C32.8591 25.3923 33.4459 24.9114 34.0326 24.9114H43.3232C44.0077 24.9114 44.4967 25.4885 44.4967 26.0656V36.261C47.8217 36.3572 51.2445 36.7419 54.7652 37.1266ZM62.9799 40.0121C61.2196 39.7236 59.3615 39.435 57.6012 39.1465C50.8534 39.3389 47.3327 41.2625 43.9099 42.9938C40.4871 44.8213 37.3577 46.4564 31.49 46.4564C25.7201 46.4564 22.4928 44.7251 19.07 42.9938C15.745 41.2625 12.2244 39.3389 5.37872 39.1465C3.52062 39.435 1.76031 39.6274 0 40.0121C9.19272 45.4946 19.9502 48.5724 31.49 48.5724C43.0298 48.5724 53.7872 45.4946 62.9799 40.0121ZM49.9732 38.377C47.1372 39.1465 44.9857 40.3007 42.932 41.3587C39.8025 42.9938 36.7709 44.6289 31.49 44.6289C26.209 44.6289 23.1774 43.09 20.048 41.3587C17.9943 40.3007 15.8428 39.1465 13.0067 38.377C19.07 37.7999 25.2311 37.5114 31.49 37.5114C37.7488 37.4152 43.9099 37.7037 49.9732 38.377ZM35.0106 32.4137H41.954C42.2474 32.4137 42.5408 32.7022 42.5408 32.9908V33.6641H34.326V32.9908C34.4238 32.7022 34.6194 32.4137 35.0106 32.4137ZM42.5408 34.6259V36.0686C39.8025 35.8763 37.0643 35.7801 34.326 35.7801V34.6259H42.5408Z" fill="#FACB18"/>
</svg>
