<svg width="67" height="92" viewBox="0 0 67 92" fill="none" xmlns="http://www.w3.org/2000/svg">
<path d="M33.753 11.4964C33.753 22.9411 22.0209 11.4964 33.753 11.4964C22.0209 11.4964 33.753 0.0516558 33.753 11.4964C45.4851 11.4964 33.753 0.0516558 33.753 11.4964C33.753 22.9411 45.4851 11.4964 33.753 11.4964ZM33.753 0C15.4859 0 0.675781 14.4293 0.675781 32.2278C0.675781 33.588 0.790633 34.9139 0.96291 36.234C3.78251 61.4078 31.6053 90.4156 31.6053 90.4156C32.0121 90.8725 32.4985 91.2517 33.0409 91.5349L33.0639 91.5463L33.9885 91.8333L34.913 91.5463L34.9417 91.5349C35.4789 91.2461 35.9641 90.8698 36.3774 90.4214C36.3774 90.4214 63.7924 61.3561 66.5546 36.1766C66.7154 34.8794 66.8303 33.5593 66.8303 32.2163C66.8245 14.4293 52.0201 0 33.753 0Z" fill="white"/>
<path fill-rule="evenodd" clip-rule="evenodd" d="M50.5722 44.9498C48.4121 45.5807 46.7213 46.4361 45.0868 47.263C44.9607 47.3268 44.8349 47.3904 44.7093 47.4538C41.618 49.0991 38.7918 50.5712 33.4925 50.5712C28.4471 50.5712 25.5545 49.11 22.5699 47.6023C22.472 47.5528 22.3739 47.5033 22.2757 47.4538C22.1993 47.4142 22.1229 47.3744 22.0463 47.3346C20.5629 46.5636 19.0193 45.7614 17.0786 45.1343C16.2566 44.1237 15.529 43.0369 14.9088 41.8868C20.3874 41.2874 25.9242 40.9592 31.4611 40.9592L30.4012 29.3556C23.3355 29.8751 17.5947 28.6628 17.5063 26.7577C17.418 26.1516 17.948 25.4588 18.9195 24.9392L27.8399 19.224C29.9596 17.8385 30.5779 17.7519 32.9626 18.791L42.7662 22.9476C43.8261 23.3805 44.356 23.9001 44.4443 24.5063C44.621 26.4979 39.145 28.5762 32.1677 29.269L33.2275 41.0458H33.6691H34.729V32.2132C34.729 31.607 35.2589 31.174 35.7888 31.174H44.1794C44.7976 31.174 45.2392 31.6936 45.2392 32.2132V41.3922C47.6217 41.4609 50.0599 41.6931 52.5536 41.9591C51.9801 43.013 51.3163 44.0132 50.5722 44.9498ZM0.675781 32.2278C0.675781 14.4293 15.4859 0 33.753 0C52.0202 0 66.8245 14.4293 66.8303 32.2163C66.8303 33.5593 66.7154 34.8794 66.5546 36.1766C63.7924 61.3561 36.3774 90.4214 36.3774 90.4214C35.9641 90.8698 35.4789 91.2461 34.9417 91.5349L34.913 91.5463L33.9885 91.8333L33.0639 91.5463L33.0409 91.5349C32.4985 91.2517 32.0121 90.8725 31.6053 90.4156C31.6053 90.4156 3.78251 61.4078 0.96291 36.234C0.790633 34.9139 0.675781 33.588 0.675781 32.2278ZM44.1511 45.8144C45.9092 44.9093 47.7731 43.9497 50.1852 43.2973C44.7093 42.6911 39.145 42.4313 33.4925 42.5179C27.8399 42.5179 22.2757 42.7777 16.7998 43.2973C19.2119 43.9497 21.0757 44.9092 22.8338 45.8144C22.9425 45.8704 23.0509 45.9262 23.1589 45.9817C25.9852 47.5404 28.7231 48.9259 33.4925 48.9259C38.1766 48.9259 40.9013 47.5059 43.6746 46.0606C43.7251 46.0343 43.7756 46.008 43.8261 45.9817C43.9341 45.9262 44.0424 45.8704 44.1511 45.8144ZM42.9428 37.9284H36.6721C36.3188 37.9284 36.1421 38.1882 36.0538 38.448V39.0541H43.4728V38.448C43.4728 38.1882 43.2078 37.9284 42.9428 37.9284ZM43.4728 41.219V39.9201H36.0538V40.9592C38.5268 40.9592 40.9998 41.0458 43.4728 41.219Z" fill="url(#paint0_linear)"/>
<defs>
<linearGradient id="paint0_linear" x1="33.753" y1="0" x2="33.753" y2="91.8333" gradientUnits="userSpaceOnUse">
<stop stop-color="#FAAD16"/>
<stop offset="1" stop-color="#FACB18"/>
</linearGradient>
</defs>
</svg>
