<svg width="24" height="24" viewBox="0 0 24 24" fill="none" xmlns="http://www.w3.org/2000/svg">
<path opacity="0.3" d="M13.9089 7.05245C13.7352 6.95046 13.6304 6.70597 13.876 6.37898C14.0392 6.16299 14.3746 6.12999 14.6531 5.767C14.5154 6.19149 14.5783 6.51097 14.5094 6.74197C14.3911 7.13345 14.0841 7.15295 13.9089 7.05245ZM12.0192 5.37252C12.1615 5.51501 12.4639 5.57801 12.6796 5.22852C12.8053 5.02153 12.8293 4.69754 13.0719 4.32256C12.7095 4.60155 12.3756 4.54755 12.1644 4.71404C11.8395 4.96603 11.8769 5.23002 12.0192 5.37252ZM11.0144 3.51559C11.1896 3.34909 11.296 3.04311 11.6269 2.74162C11.2046 2.91711 10.8976 2.77912 10.6491 2.88561C10.2717 3.04611 10.2388 3.3101 10.3391 3.48409C10.4394 3.65808 10.715 3.79758 11.0144 3.51559ZM12.3367 9.87685C12.5388 9.99234 12.8922 9.97134 13.027 9.52136C13.1063 9.25587 13.0344 8.88989 13.1902 8.4039C12.8727 8.81939 12.4894 8.85839 12.3022 9.10588C12.0192 9.47936 12.1375 9.76135 12.3367 9.87685ZM10.4859 7.49194C10.6311 7.25645 10.6581 6.88446 10.9351 6.45398C10.5203 6.77197 10.1385 6.71047 9.89439 6.90096C9.52453 7.19045 9.56496 7.49344 9.72817 7.65693C9.89289 7.81893 10.2403 7.89242 10.4859 7.49194ZM8.28018 5.08603C8.48084 4.89554 8.60213 4.54305 8.98396 4.19956C8.5003 4.40055 8.14692 4.24306 7.86241 4.36456C7.43116 4.54755 7.39222 4.85054 7.50752 5.05003C7.62282 5.24952 7.93878 5.40852 8.28018 5.08603ZM10.6805 11.9108C10.3331 12.3728 10.4799 12.7192 10.7239 12.8602C10.971 13.0012 11.4053 12.9757 11.5715 12.4238C11.6673 12.0983 11.5805 11.6468 11.7736 11.0498C11.3828 11.5598 10.9096 11.6078 10.6805 11.9108ZM8.25772 9.84835C8.43741 9.55886 8.46886 9.10138 8.81176 8.5704C8.29965 8.96488 7.82947 8.88838 7.52999 9.12238C7.07477 9.47786 7.12718 9.84985 7.32634 10.0508C7.52849 10.2503 7.95525 10.3403 8.25772 9.84835ZM5.46806 6.69997C5.71513 6.46748 5.86487 6.03249 6.33206 5.61101C5.73759 5.8585 5.30335 5.66351 4.95295 5.8135C4.42138 6.03999 4.37496 6.41198 4.51721 6.65797C4.65946 6.90246 5.04729 7.09745 5.46806 6.69997ZM13.6379 17.2611C6.91156 16.7571 5.37822 14.3737 1.33523 14.3737C1.33523 14.9647 2.62898 21.9664 5.55341 21.9664H6.58512C6.11194 23.1019 5.0982 22.9309 5.37822 23.8308C5.43362 24.0108 6.63005 24.0978 6.95947 23.8308C7.6378 23.2848 7.72764 22.2529 7.73962 21.9664H18.6257C18.6377 22.2529 18.7276 23.2848 19.4059 23.8308C19.7353 24.0978 20.9332 24.0108 20.9886 23.8308C21.2687 22.9294 20.2549 23.1019 19.7817 21.9664H20.508C22.1222 21.9664 22.8095 16.6716 22.8095 16.6716C22.8095 16.6716 20.3627 17.7636 13.6379 17.2611ZM23.4249 14.8837L23.4114 14.8852C22.9952 14.8942 22.7361 14.9977 22.6822 15.0097L22.5759 15.0442C22.4062 15.1088 22.2327 15.1629 22.0563 15.2061V8.25391C22.0563 7.42444 21.8931 6.84846 21.6879 6.44948C20.9148 4.6596 19.8126 3.03136 18.4386 1.64966C15.9289 -0.856747 13.5585 0.112216 12.7275 0.586198C12.6855 0.604198 12.4729 0.743692 12.4729 0.743692C12.1465 1.07218 12.1165 1.59116 12.1165 1.59116L15.7043 5.17303C15.7043 5.17303 16.1805 5.10253 16.5039 4.77854C16.5039 4.77854 16.7839 4.21306 16.775 3.88907C16.8858 3.70908 17.1748 3.50959 17.883 4.05707C18.9043 4.84304 20.1786 6.53647 20.7026 7.25945C20.7745 7.48894 20.8314 7.80843 20.8314 8.25541V15.4566C19.4373 15.6741 17.1418 15.8481 13.6798 15.5901C10.1564 15.3261 8.11397 14.5432 6.3126 13.8517C4.70439 13.2322 3.31629 12.6997 1.33523 12.6997H0.616473C0.537675 12.694 0.458547 12.7047 0.384027 12.7309C0.309508 12.7572 0.241195 12.7986 0.183351 12.8525C0.125507 12.9064 0.0793726 12.9717 0.0478267 13.0442C0.0162808 13.1168 0 13.1951 0 13.2742C0 13.3534 0.0162808 13.4316 0.0478267 13.5042C0.0793726 13.5768 0.125507 13.642 0.183351 13.6959C0.241195 13.7498 0.309508 13.7912 0.384027 13.8175C0.458547 13.8438 0.537675 13.8544 0.616473 13.8487H1.33523C3.10216 13.8487 4.33752 14.3227 5.89931 14.9227C7.68272 15.6051 9.90038 16.4571 13.593 16.7331C14.8643 16.8276 15.9858 16.8681 16.9696 16.8681C20.8629 16.8681 22.6238 16.2621 22.9772 16.1211C23.1239 16.0911 23.2078 16.0386 23.4369 16.0326C23.589 16.0291 23.7336 15.9654 23.839 15.8556C23.9445 15.7457 24.0023 15.5985 23.9999 15.4461C23.9964 15.2957 23.9343 15.1527 23.8268 15.0476C23.7194 14.9424 23.5751 14.8836 23.4249 14.8837Z" fill="#31383A"/>
</svg>
