<svg width="24" height="18" viewBox="0 0 24 18" fill="none" xmlns="http://www.w3.org/2000/svg">
<path opacity="0.3" d="M23.976 2.9968C23.976 1.344 22.632 0 20.9792 0H3.0448C1.392 0 0.048 1.344 0.048 2.9968H0V17.9568H1.5584V16.52H22.5376V17.9584H23.976V2.9968ZM24 12.0112H0.024V10.5488H0.888V9.952C0.888 8.992 1.6304 8.224 2.5888 8.224H21.4352C22.3936 8.224 23.1376 8.992 23.1376 9.952V10.5504H24V12.0112ZM13.4992 4.7952C13.4992 4.3152 13.8832 3.9312 14.3616 3.9312H18.6288C19.1088 3.9312 19.4928 4.3152 19.4928 4.7952V7.552H13.4992V4.7952ZM4.5552 4.7952C4.5552 4.3152 4.9152 3.9312 5.4192 3.9312H9.6624C9.77773 3.92821 9.8925 3.94835 9.99992 3.99043C10.1073 4.0325 10.2053 4.09567 10.2879 4.1762C10.3705 4.25673 10.4361 4.35299 10.481 4.4593C10.5258 4.56562 10.5488 4.67983 10.5488 4.7952V7.552H4.5552V4.7952Z" fill="#31383A"/>
</svg>
