<svg width="10" height="20" viewBox="0 0 10 20" fill="none" xmlns="http://www.w3.org/2000/svg">
<path opacity="0.3" d="M9.71515 0H0.330029C0.203288 0 0 0.2 0 0.3275V11.795H10V0.3275C10 0.2 9.84314 0 9.71515 0ZM1.81704 10.81C1.81704 10.9913 1.69406 11.14 1.54223 11.14C1.39164 11.14 1.26741 10.9913 1.26741 10.81V9.4975C1.26741 9.31625 1.39164 7.85625 1.54223 7.85625C1.69406 7.85625 1.81704 9.3175 1.81704 9.4975V10.81ZM6.42866 1.8225H3.46468V1.25H6.42866V1.8225ZM0 12.1237V19.6712C0 19.7987 0.203288 20 0.330029 20H9.66997C9.79922 20 10 19.7987 10 19.6712V12.1237H0ZM1.81704 14.0925C1.81704 14.2725 1.69406 15.7337 1.54223 15.7337C1.39164 15.7337 1.26741 14.2725 1.26741 14.0925V13.1075C1.26741 12.9275 1.39164 12.7787 1.54223 12.7787C1.69406 12.7787 1.81704 12.9275 1.81704 13.1075V14.0925Z" fill="#31383A"/>
</svg>
