<svg width="8" height="20" viewBox="0 0 8 20" fill="none" xmlns="http://www.w3.org/2000/svg">
<path opacity="0.3" d="M7 3C7 3.79565 6.68393 4.55871 6.12132 5.12132C5.55871 5.68393 4.79565 6 4 6C3.20435 6 2.44129 5.68393 1.87868 5.12132C1.31607 4.55871 1 3.79565 1 3C1 2.20435 1.31607 1.44129 1.87868 0.87868C2.44129 0.316071 3.20435 0 4 0C4.79565 0 5.55871 0.316071 6.12132 0.87868C6.68393 1.44129 7 2.20435 7 3ZM3.031 7H4.946C6.61 7 7.954 8.157 8 9.588V12.058C8 12.686 7.521 13.255 6.815 13.471L6.45 13.569L6.063 19.274C6.04 19.686 5.653 20 5.173 20H2.827C2.349 20 1.961 19.686 1.938 19.274L1.55 13.57L1.185 13.472C0.48 13.274 0 12.706 0 12.059V9.589C0.023 8.156 1.368 7 3.031 7Z" fill="#31383A"/>
</svg>
