<svg width="24" height="17" viewBox="0 0 24 17" fill="none" xmlns="http://www.w3.org/2000/svg">
<g opacity="0.3">
<path d="M21.3165 13.1549C21.0161 13.1504 20.7297 13.0235 20.52 12.8019C20.3103 12.5803 20.1943 12.2821 20.1975 11.9726C20.1975 11.3189 20.6985 10.7919 21.3165 10.7919C21.933 10.7919 22.434 11.3189 22.434 11.9726C22.4376 12.282 22.322 12.5802 22.1125 12.8018C21.903 13.0234 21.6167 13.1504 21.3165 13.1549ZM24 0V17H18.633V0H24ZM22.9185 11.9726C22.9185 11.0392 22.2 10.2804 21.3165 10.2804C20.433 10.2804 19.7145 11.0376 19.7145 11.9726C19.7145 12.9076 20.433 13.6649 21.3165 13.6649C22.2 13.6649 22.9185 12.9076 22.9185 11.9726ZM23.217 1.377H19.416V3.30573H23.217V1.377ZM18.186 0V17H0V0H18.186ZM16.8435 3.30573H1.3425V13.6958H16.845V3.30573H16.8435ZM8.8305 4.95782C5.613 7.26827 11.514 8.57109 9.0525 12.0406C12.7425 7.70409 7.1535 7.63145 8.8305 4.95782ZM12.0165 12.0406C14.4765 8.57109 8.5755 7.26827 11.793 4.95782C10.116 7.63145 15.7065 7.70409 12.0165 12.0406ZM6.0915 12.0406C8.553 8.57109 2.652 7.26827 5.8695 4.95782C4.1895 7.63145 9.7815 7.70409 6.0915 12.0406Z" fill="#31383A"/>
</g>
</svg>
