<svg width="20" height="14" viewBox="0 0 20 14" fill="none" xmlns="http://www.w3.org/2000/svg">
<path opacity="0.3" d="M13.232 2.344V14H10.848V7.296C10.848 7.14133 10.8507 6.97333 10.856 6.792C10.8667 6.61067 10.8827 6.42667 10.904 6.24L7.808 12.232C7.712 12.4187 7.58133 12.56 7.416 12.656C7.256 12.752 7.072 12.8 6.864 12.8H6.496C6.288 12.8 6.10133 12.752 5.936 12.656C5.776 12.56 5.648 12.4187 5.552 12.232L2.456 6.224C2.472 6.416 2.48533 6.60533 2.496 6.792C2.50667 6.97333 2.512 7.14133 2.512 7.296V14H0.128V2.344H2.192C2.30933 2.344 2.41067 2.34667 2.496 2.352C2.58667 2.35733 2.66667 2.37333 2.736 2.4C2.80533 2.42667 2.86667 2.46933 2.92 2.528C2.97867 2.58133 3.03467 2.65867 3.088 2.76L6.088 8.672C6.19467 8.87467 6.296 9.08533 6.392 9.304C6.49333 9.52267 6.58933 9.74667 6.68 9.976C6.77067 9.74133 6.864 9.512 6.96 9.288C7.06133 9.064 7.168 8.85067 7.28 8.648L10.272 2.76C10.3253 2.65867 10.3787 2.58133 10.432 2.528C10.4907 2.46933 10.5547 2.42667 10.624 2.4C10.6933 2.37333 10.7707 2.35733 10.856 2.352C10.9467 2.34667 11.0507 2.344 11.168 2.344H13.232ZM18.6874 5.248C18.874 5.248 19.018 5.29867 19.1194 5.4C19.226 5.496 19.2794 5.62667 19.2794 5.792V6.8H14.7194V6.248C14.7194 6.14133 14.7407 6.02667 14.7834 5.904C14.826 5.78133 14.9007 5.66933 15.0074 5.568L16.5914 4.016C16.698 3.90933 16.7967 3.79467 16.8874 3.672C16.9834 3.544 17.066 3.41867 17.1354 3.296C17.2047 3.168 17.258 3.04533 17.2954 2.928C17.338 2.80533 17.3594 2.69333 17.3594 2.592C17.3594 2.464 17.3327 2.352 17.2794 2.256C17.226 2.15467 17.13 2.104 16.9914 2.104C16.8794 2.104 16.7887 2.13067 16.7194 2.184C16.6554 2.23733 16.5914 2.32267 16.5274 2.44C16.4847 2.50933 16.4394 2.568 16.3914 2.616C16.3434 2.664 16.2874 2.704 16.2234 2.736C16.1647 2.76267 16.0927 2.77867 16.0074 2.784C15.9274 2.78933 15.8287 2.78133 15.7114 2.76L14.7194 2.608C14.7674 2.28267 14.858 2.00267 14.9914 1.768C15.1247 1.53333 15.2927 1.34133 15.4954 1.192C15.7034 1.03733 15.9407 0.922666 16.2074 0.848C16.4794 0.773333 16.7727 0.735999 17.0874 0.735999C17.4287 0.735999 17.7274 0.783999 17.9834 0.879999C18.2447 0.975999 18.4607 1.10667 18.6314 1.272C18.8074 1.43733 18.938 1.62933 19.0234 1.848C19.1087 2.06133 19.1514 2.288 19.1514 2.528C19.1514 2.74667 19.1167 2.94667 19.0474 3.128C18.9834 3.30933 18.8954 3.48267 18.7834 3.648C18.6767 3.81333 18.5514 3.97333 18.4074 4.128C18.2634 4.28267 18.1167 4.44 17.9674 4.6L17.1594 5.416C17.3354 5.36267 17.5087 5.32267 17.6794 5.296C17.85 5.264 18.0047 5.248 18.1434 5.248H18.6874Z" fill="#31383A"/>
</svg>
