<svg width="25" height="19" viewBox="0 0 25 19" fill="none" xmlns="http://www.w3.org/2000/svg">
<path opacity="0.3" d="M21.5988 5.83949C20.7558 4.61999 20.0268 3.56699 20.1648 2.62349C20.2893 1.99649 20.6343 1.54649 21.1128 1.39049C21.5643 1.24049 22.0638 1.37399 22.4793 1.75499C22.7343 1.98899 22.8618 2.45099 22.7823 2.85149C22.7553 2.99999 22.6713 3.25499 22.4433 3.35249C22.3038 3.38849 22.1283 3.40499 22.0428 3.29699C22.0071 3.24785 21.9854 3.18992 21.9801 3.1294C21.9749 3.06888 21.9861 3.00807 22.0128 2.95349C22.0833 2.81054 22.0965 2.64604 22.0495 2.49372C22.0026 2.3414 21.8992 2.21281 21.7604 2.13433C21.6217 2.05586 21.4582 2.03344 21.3035 2.07168C21.1487 2.10992 21.0145 2.20592 20.9283 2.33999C20.7811 2.61052 20.7157 2.91797 20.7399 3.22499C20.7641 3.53202 20.877 3.8254 21.0648 4.06949C21.4578 4.56749 22.1088 4.74599 22.8123 4.54499L22.8543 4.52999C23.4498 4.31099 23.8698 3.78599 24.0078 3.09299C24.1683 2.26649 23.8938 1.35899 23.3208 0.835487C22.5738 0.152987 21.6048 -0.0810125 20.7243 0.206987C20.1258 0.403487 19.6458 0.842987 19.3173 1.42649H4.74181C4.41481 0.845987 3.93181 0.404987 3.32881 0.206987C2.44981 -0.0825125 1.47931 0.152987 0.732311 0.835487C0.159311 1.36049 -0.115189 2.26799 0.0453108 3.09299C0.183311 3.78599 0.601811 4.31099 1.19731 4.52999L1.24231 4.54499C1.94281 4.74449 2.59681 4.56599 2.98981 4.06799C3.37081 3.58499 3.42631 2.87399 3.12481 2.33999C3.08472 2.26858 3.03091 2.20581 2.96646 2.15529C2.90202 2.10477 2.82822 2.06749 2.74931 2.0456C2.6704 2.02371 2.58794 2.01765 2.50668 2.02775C2.42542 2.03786 2.34695 2.06394 2.27581 2.10449C2.20441 2.14458 2.14164 2.19839 2.09111 2.26284C2.04059 2.32728 2.00331 2.40108 1.98142 2.47999C1.95954 2.5589 1.95347 2.64136 1.96358 2.72262C1.97368 2.80388 1.99976 2.88234 2.04031 2.95349C2.06618 3.00827 2.07704 3.06894 2.07177 3.12929C2.0665 3.18965 2.04529 3.24752 2.01031 3.29699C1.92481 3.40499 1.74931 3.38849 1.60981 3.35249C1.38031 3.25499 1.29931 2.99999 1.27081 2.85149C1.19131 2.45099 1.31881 1.98899 1.57531 1.75499C1.99081 1.37549 2.48731 1.24199 2.94181 1.39049C3.41881 1.54649 3.76531 1.99649 3.88381 2.59199C4.02631 3.56699 3.29731 4.61999 2.45431 5.83949C0.456311 8.72699 -1.69319 12.039 2.37631 16.5V18.0015H21.9108V16.2345C25.7358 11.841 23.6178 8.75549 21.5988 5.83949ZM20.5743 6.54749C22.4853 9.31349 23.9583 11.4465 21.5763 14.676H19.2153C20.1723 11.2095 19.0458 7.86899 18.0918 5.98949C17.7168 5.24999 17.3928 4.57499 17.2083 3.91799H19.0893C19.3743 4.80599 19.9593 5.66099 20.5743 6.54749ZM15.0678 14.676C15.6423 12.0615 15.0768 9.13949 14.5053 7.21799C14.1708 6.09299 13.8603 5.01299 13.7868 3.91799H15.9288C16.1208 4.80899 16.5273 5.66699 16.9773 6.55349C17.9448 8.45399 18.9363 11.5605 17.9358 14.676H15.0678ZM10.2648 14.676C9.65881 12.3165 10.1793 9.46949 10.7433 7.57349C11.0928 6.39599 11.4408 5.18849 11.5158 3.91949H12.5403C12.6138 5.18849 12.9633 6.39599 13.3128 7.57349C13.8753 9.46949 14.3973 12.3165 13.7898 14.676H10.2648ZM6.11731 14.676C5.11681 11.562 6.10981 8.45549 7.07431 6.55499C7.52431 5.66849 7.93231 4.81049 8.12431 3.91949H10.2663C10.1928 5.01449 9.88231 6.09449 9.54781 7.21949C8.97781 9.13949 8.41081 12.063 8.98531 14.6775H6.11731V14.676ZM3.48031 6.54749C4.09231 5.66399 4.67581 4.81049 4.96231 3.91949H6.84631C6.66031 4.57499 6.33631 5.25149 5.96131 5.99099C5.00731 7.86899 3.88231 11.211 4.83931 14.6775H2.48581C0.178811 11.49 1.62481 9.22799 3.48031 6.54749Z" fill="#31383A"/>
</svg>
