<svg width="14" height="13" viewBox="0 0 14 13" fill="none" xmlns="http://www.w3.org/2000/svg">
<g clip-path="url(#clip0_1872_4303)">
<path d="M13.2857 8.17432L13.2857 10.6886C13.2857 11.022 13.1533 11.3418 12.9175 11.5775C12.6817 11.8133 12.362 11.9457 12.0286 11.9457L1.97143 11.9457C1.63801 11.9457 1.31826 11.8133 1.0825 11.5775C0.846735 11.3418 0.714287 11.022 0.714287 10.6886L0.714287 8.17432L1.97143 8.17432L1.97143 10.6886L12.0286 10.6886L12.0286 8.17432L13.2857 8.17432V8.17432Z" fill="white"/>
<path d="M7.55105 6.44047L9.36343 4.52647L10.1429 5.34885L7 8.66666L3.85715 5.34885L4.63553 4.52647L6.44896 6.44047L6.44896 0.285706L7.55105 0.285706L7.55105 6.44047Z" fill="white"/>
</g>
<defs>
<clipPath id="clip0_1872_4303">
<rect width="12.5714" height="12" fill="white" transform="translate(0.714294 0.285706)"/>
</clipPath>
</defs>
</svg>
