<svg width="101" height="55" viewBox="0 0 101 55" fill="none" xmlns="http://www.w3.org/2000/svg">
<path d="M87.3788 41.4627H95.6838C96.6237 41.4627 97.5251 41.0893 98.1897 40.4247C98.8543 39.7601 99.2277 38.8587 99.2277 37.9189V27.9145C99.2274 27.1556 98.9834 26.4168 98.5317 25.8069C98.08 25.197 97.4445 24.7482 96.7186 24.5266L83.3299 20.437C81.126 19.7636 79.1196 18.563 77.4843 16.9392L63.2398 2.7992C62.5753 2.14019 61.6772 1.77074 60.7414 1.77149H23.8055C23.3052 1.77116 22.8104 1.87678 22.3538 2.0814C21.8973 2.28602 21.4892 2.58501 21.1565 2.95868L5.26933 20.8357C3.65906 22.6469 2.54006 24.8408 2.01922 27.2077C1.49837 29.5747 1.59306 32.0356 2.29426 34.3555L3.68168 38.9448C3.9019 39.6729 4.35054 40.3108 4.96129 40.7643C5.57204 41.2177 6.31249 41.4626 7.07316 41.4627L15.0614 41.6399M35.5445 41.4627H67.3861" stroke="white" stroke-width="2.65789"/>
<path d="M32.5821 19.4131H68.8676M35.6953 41.463C35.6953 47.2147 30.9962 51.8943 25.1772 51.8943C19.3582 51.8943 14.6572 47.2164 14.6572 41.463C14.6572 35.7113 19.3582 31.0316 25.1772 31.0316C30.9962 31.0316 35.6953 35.7113 35.6953 41.463ZM87.5332 41.463C87.5332 47.2147 82.8322 51.8943 77.0132 51.8943C71.1942 51.8943 66.4933 47.2164 66.4933 41.463C66.4933 35.7113 71.1942 31.0316 77.0132 31.0316C82.8322 31.0316 87.5332 35.7113 87.5332 41.463Z" stroke="white" stroke-width="2.65789"/>
</svg>
