<svg width="19" height="34" viewBox="0 0 19 34" fill="none" xmlns="http://www.w3.org/2000/svg">
<g filter="url(#filter0_d)">
<path d="M0.359259 0.352142C0.245751 0.460727 0.155369 0.591415 0.0936089 0.736261C0.0318485 0.881106 0 1.03708 0 1.1947C0 1.35233 0.0318485 1.5083 0.0936089 1.65315C0.155369 1.79799 0.245751 1.92868 0.359259 2.03727L15.3862 16.9781L0.359259 31.9594C0.246081 32.068 0.15598 32.1985 0.0944164 32.3432C0.0328529 32.4878 0.0011092 32.6435 0.0011092 32.8009C0.0011092 32.9583 0.0328529 33.114 0.0944164 33.2586C0.15598 33.4033 0.246081 33.5338 0.359259 33.6424C0.469879 33.7557 0.6018 33.8456 0.747326 33.907C0.892853 33.9685 1.04907 34.0001 1.20687 34.0001C1.36467 34.0001 1.52089 33.9685 1.66641 33.907C1.81194 33.8456 1.94386 33.7557 2.05448 33.6424L17.93 17.8579C18.0438 17.7493 18.1349 17.6189 18.198 17.4744C18.2611 17.3299 18.2949 17.1742 18.2974 17.0164C18.2998 16.8573 18.268 16.6995 18.2042 16.5539C18.1405 16.4083 18.0462 16.2783 17.9279 16.1728L2.05237 0.388267C1.94643 0.269206 1.81731 0.173328 1.67302 0.106583C1.52873 0.0398382 1.37236 0.00364934 1.21361 0.000262022C1.05485 -0.00312529 0.897093 0.0263612 0.750128 0.086892C0.603162 0.147423 0.470121 0.237707 0.359259 0.352142Z" fill="#F3F3F3"/>
</g>
<defs>
<filter id="filter0_d" x="-20" y="-16" width="58.2975" height="74.0001" filterUnits="userSpaceOnUse" color-interpolation-filters="sRGB">
<feFlood flood-opacity="0" result="BackgroundImageFix"/>
<feColorMatrix in="SourceAlpha" type="matrix" values="0 0 0 0 0 0 0 0 0 0 0 0 0 0 0 0 0 0 127 0"/>
<feOffset dy="4"/>
<feGaussianBlur stdDeviation="10"/>
<feColorMatrix type="matrix" values="0 0 0 0 0 0 0 0 0 0 0 0 0 0 0 0 0 0 0.1 0"/>
<feBlend mode="normal" in2="BackgroundImageFix" result="effect1_dropShadow"/>
<feBlend mode="normal" in="SourceGraphic" in2="effect1_dropShadow" result="shape"/>
</filter>
</defs>
</svg>
