<svg width="18" height="18" viewBox="0 0 18 18" fill="none" xmlns="http://www.w3.org/2000/svg">
<path fill-rule="evenodd" clip-rule="evenodd" d="M17.4714 1.47189C17.7317 1.21154 17.7317 0.789433 17.4714 0.529084C17.211 0.268734 16.7889 0.268734 16.5286 0.529084L8.99997 8.05768L1.47137 0.529084C1.21102 0.268734 0.788915 0.268734 0.528565 0.529084C0.268215 0.789433 0.268215 1.21154 0.528565 1.47189L8.05716 9.00049L0.528565 16.5291C0.268215 16.7894 0.268215 17.2115 0.528565 17.4719C0.788915 17.7322 1.21102 17.7322 1.47137 17.4719L8.99997 9.9433L16.5286 17.4719C16.7889 17.7322 17.211 17.7322 17.4714 17.4719C17.7317 17.2115 17.7317 16.7894 17.4714 16.5291L9.94278 9.00049L17.4714 1.47189Z" fill="#B3BFCB"/>
</svg>
