<svg width="16" height="16" viewBox="0 0 16 16" fill="none" xmlns="http://www.w3.org/2000/svg">
<path fill-rule="evenodd" clip-rule="evenodd" d="M8.7128 11.1482C8.5294 11.3635 8.2563 11.5001 7.9513 11.5001C7.7924 11.5001 7.6421 11.463 7.5087 11.3971C7.4121 11.3498 7.3215 11.286 7.2412 11.2057L3.9413 7.9059C3.5508 7.5153 3.5508 6.8822 3.9413 6.4916C4.3319 6.1011 4.965 6.1011 5.3555 6.4916L6.9513 8.0874V1C6.9513 0.4477 7.399 0 7.9513 0C8.5036 0 8.9513 0.4477 8.9513 1V8.0814L10.541 6.4916C10.9315 6.1011 11.5647 6.1011 11.9552 6.4916C12.3457 6.8822 12.3457 7.5153 11.9552 7.9059L8.7128 11.1482ZM2 13.3998C2 13.5048 2.0474 13.6432 2.1975 13.7719C2.3524 13.9046 2.5913 13.9998 2.8667 13.9998H13.1333C13.4087 13.9998 13.6476 13.9046 13.8025 13.7719C13.9526 13.6432 14 13.5048 14 13.3998C14 12.8475 14.4477 12.3998 15 12.3998C15.5523 12.3998 16 12.8475 16 13.3998C16 14.1435 15.6541 14.819 15.1041 15.2904C14.5588 15.7578 13.8481 15.9998 13.1333 15.9998H2.8667C2.1519 15.9998 1.4412 15.7578 0.8959 15.2904C0.3459 14.819 0 14.1435 0 13.3998C0 12.8475 0.4477 12.3998 1 12.3998C1.5523 12.3998 2 12.8475 2 13.3998Z" fill="#2067F0"/>
</svg>
