<svg width="28" height="16" viewBox="0 0 28 16" fill="none" xmlns="http://www.w3.org/2000/svg">
<path fill-rule="evenodd" clip-rule="evenodd" d="M28 3C28 4.6569 26.6569 6 25 6C23.3431 6 22 4.6569 22 3C22 1.3431 23.3431 0 25 0C26.6569 0 28 1.3431 28 3ZM1 3C1 2.4477 1.4477 2 2 2H19C19.5523 2 20 2.4477 20 3C20 3.5523 19.5523 4 19 4H2C1.4477 4 1 3.5523 1 3ZM6 13C6 14.6569 4.6569 16 3 16C1.3431 16 0 14.6569 0 13C0 11.3431 1.3431 10 3 10C4.6569 10 6 11.3431 6 13ZM8 13C8 12.4477 8.4477 12 9 12H26C26.5523 12 27 12.4477 27 13C27 13.5523 26.5523 14 26 14H9C8.4477 14 8 13.5523 8 13Z" fill="white"/>
</svg>
