<svg width="23" height="22" viewBox="0 0 23 22" fill="none" xmlns="http://www.w3.org/2000/svg">
<path fill-rule="evenodd" clip-rule="evenodd" d="M18.026 0.761719C20.5059 0.761719 22.524 2.72534 22.524 5.13962V17.4314C22.524 19.8457 20.5059 21.8093 18.026 21.8093H4.73628C2.25638 21.8093 0.238281 19.8457 0.238281 17.4314V5.13962C0.238281 2.72534 2.25638 0.761719 4.73628 0.761719H18.026ZM11.3811 15.2561C13.632 15.2561 15.4619 13.4745 15.4619 11.2855C15.4619 9.09658 13.632 7.31372 11.3811 7.31372C9.13028 7.31372 7.30038 9.09658 7.30038 11.2855C7.30038 13.4745 9.13028 15.2561 11.3811 15.2561ZM11.3811 5.40086C14.7153 5.40086 17.428 8.04048 17.428 11.2855C17.428 14.5306 14.7153 17.1702 11.3811 17.1702C8.04695 17.1702 5.33428 14.5306 5.33428 11.2855C5.33428 8.04048 8.04695 5.40086 11.3811 5.40086ZM17.397 4.19991C17.9641 4.19991 18.4222 4.64562 18.4222 5.19781C18.4222 5.74877 17.9641 6.19572 17.397 6.19572C17.2642 6.19752 17.1323 6.17313 17.0089 6.12396C16.8855 6.07478 16.773 6.00177 16.6778 5.90911C16.5826 5.81644 16.5066 5.70593 16.4541 5.58389C16.4016 5.46184 16.3737 5.33065 16.3719 5.19781C16.3719 4.64562 16.8312 4.19991 17.397 4.19991Z" fill="white"/>
</svg>
