<svg width="28" height="22" viewBox="0 0 28 22" fill="none" xmlns="http://www.w3.org/2000/svg">
<path fill-rule="evenodd" clip-rule="evenodd" d="M14.3339 2.39233C12.9009 4.21327 8.81369 10.0922 8.34789 10.8534C7.45118 12.312 7.37193 13.0188 7.34559 13.4897C7.31959 13.9519 7.3196 14.7853 8.04903 15.4648C9.27106 16.5881 10.985 16.4066 12.5059 16.4066H25.0328C25.569 16.4066 25.7275 16.2433 26.0175 15.845C27.0195 14.2686 27.4681 12.5565 27.4681 11.0254C27.4681 7.74597 25.4025 3.61538 20.1717 1.74906L19.5823 2.61875C23.7314 4.64749 25.4462 7.30183 25.4462 11.016C25.4725 12.0126 25.2172 13.0905 24.5842 14.0871H12.3998C11.6704 14.0871 11.5648 13.2356 11.8285 12.7553C12.8731 10.8395 14.0389 8.99668 15.3183 7.23875C16.5491 5.54473 17.762 3.9593 19.0368 2.30161C19.3798 1.83977 19.1509 1.39567 18.4654 1.25092C17.0413 0.942903 15.5559 0.725586 13.7536 0.725586C3.75897 0.725586 0.101562 6.64087 0.101562 11.0254C0.101562 15.7815 3.78498 21.2985 13.78 21.2985C19.327 21.2985 22.958 19.459 25.0588 17.0949H22.9399C21.1024 18.8433 17.9465 20.0849 13.78 20.0849C5.31437 20.0849 2.19397 15.1836 2.19397 10.9619C2.25519 7.19336 5.60448 1.99359 13.9913 1.82163C14.3079 1.81256 14.5543 2.11151 14.3339 2.39233Z" fill="#B3BFCB"/>
</svg>
