<svg width="40" height="31" viewBox="0 0 40 31" fill="none" xmlns="http://www.w3.org/2000/svg">
<path d="M12.9 17.0998C12.4 16.5998 12 16.0998 11.7 15.4998C11.3 15.4998 10.9 15.5998 10.4 15.5998C8.7 15.5998 7.1 15.0998 5.8 14.2998C2.5 15.0998 0 18.1998 0 21.7998V25.9998H6.8C6.9 21.9998 9.4 18.5998 12.9 17.0998Z" fill="#2067F0"/>
<path d="M10.4998 13.3C10.5998 13.3 10.7998 13.3 10.8998 13.3C10.6998 12.6 10.5998 11.9 10.5998 11.2C10.5998 7.6 12.7998 4.4 15.9998 3C14.7998 1.2 12.7998 0 10.4998 0C6.7998 0 3.7998 3 3.7998 6.7C3.7998 10.4 6.7998 13.3 10.4998 13.3Z" fill="#2067F0"/>
<path d="M33.1996 14.2998C31.7996 15.0998 30.2996 15.5998 28.5996 15.5998C28.1996 15.5998 27.6996 15.5998 27.2996 15.4998C26.9996 16.0998 26.5996 16.5998 26.0996 17.0998C29.5996 18.5998 32.0996 21.9998 32.1996 25.9998H38.9996V21.7998C39.0996 18.1998 36.5996 15.0998 33.1996 14.2998Z" fill="#2067F0"/>
<path d="M28.4996 11.2C28.4996 11.9 28.3996 12.6 28.1996 13.3C28.2996 13.3 28.4996 13.3 28.5996 13.3C32.2996 13.3 35.1996 10.3 35.1996 6.7C35.1996 3.1 32.2996 0 28.5996 0C26.2996 0 24.1996 1.2 23.0996 3C26.1996 4.4 28.4996 7.5 28.4996 11.2Z" fill="#2067F0"/>
<path d="M30 26.4004C30 22.8004 27.5 19.7004 24.1 18.9004C22.7 19.7004 21.2 20.2004 19.5 20.2004C17.8 20.2004 16.2 19.7004 14.9 18.9004C11.5 19.8004 9 22.8004 9 26.4004V30.6004H30V26.4004Z" fill="#2067F0"/>
<path d="M19.6 4.5C15.9 4.5 13 7.5 13 11.1C13 14.8 16 17.7 19.6 17.7C23.3 17.7 26.2 14.7 26.2 11.1C26.2 7.5 23.2 4.5 19.6 4.5Z" fill="#2067F0"/>
</svg>
