<svg width="26" height="18" viewBox="0 0 26 18" fill="none" xmlns="http://www.w3.org/2000/svg">
<path fill-rule="evenodd" clip-rule="evenodd" d="M22.9756 0.724195C24.0596 1.0162 24.9116 1.8682 25.1996 2.9482C25.7236 4.9082 25.7236 9.0002 25.7236 9.0002C25.7236 9.0002 25.7236 13.0922 25.1996 15.0522C24.9076 16.1362 24.0556 16.9882 22.9756 17.2762C21.0156 17.8002 13.1516 17.8002 13.1516 17.8002C13.1516 17.8002 5.29159 17.8002 3.32759 17.2762C2.24359 16.9842 1.39159 16.1322 1.10359 15.0522C0.57959 13.0922 0.57959 9.0002 0.57959 9.0002C0.57959 9.0002 0.57959 4.9082 1.10359 2.9482C1.39559 1.8642 2.24759 1.0122 3.32759 0.724195C5.29159 0.200195 13.1516 0.200195 13.1516 0.200195C13.1516 0.200195 21.0156 0.200195 22.9756 0.724195ZM10.6399 12.7717L17.1719 8.99972L10.6399 5.22772V12.7717Z" fill="white"/>
</svg>
