<svg width="25" height="25" viewBox="0 0 25 25" fill="none" xmlns="http://www.w3.org/2000/svg">
<g clip-path="url(#clip0)">
<path d="M16.4773 1.22516e-07H24.4318C24.5064 -4.89007e-05 24.5803 0.0146146 24.6493 0.0431519C24.7183 0.0716893 24.7809 0.113541 24.8337 0.166313C24.8865 0.219085 24.9283 0.281742 24.9568 0.350701C24.9854 0.419661 25 0.493569 25 0.5682V8.52273C25 8.59736 24.9854 8.67127 24.9568 8.74023C24.9283 8.80919 24.8865 8.87185 24.8337 8.92462C24.7809 8.97739 24.7183 9.01924 24.6493 9.04778C24.5803 9.07632 24.5064 9.09098 24.4318 9.09093H23.2955C23.2208 9.09098 23.1469 9.07632 23.078 9.04778C23.009 9.01924 22.9463 8.97739 22.8936 8.92462C22.8408 8.87185 22.7989 8.80919 22.7704 8.74023C22.7419 8.67127 22.7272 8.59736 22.7273 8.52273V2.27275H16.4773C16.4026 2.2728 16.3287 2.25813 16.2598 2.22959C16.1908 2.20106 16.1282 2.15921 16.0754 2.10643C16.0226 2.05366 15.9808 1.991 15.9522 1.92205C15.9237 1.85309 15.909 1.77918 15.9091 1.70455V0.5682C15.909 0.493569 15.9237 0.419661 15.9522 0.350701C15.9808 0.281742 16.0226 0.219085 16.0754 0.166313C16.1282 0.113541 16.1908 0.0716893 16.2598 0.0431519C16.3287 0.0146146 16.4026 -4.89007e-05 16.4773 1.22516e-07ZM0.568148 1.22516e-07H8.52273C8.59736 -4.89007e-05 8.67127 0.0146146 8.74023 0.0431519C8.80919 0.0716893 8.87185 0.113541 8.92462 0.166313C8.97739 0.219085 9.01924 0.281742 9.04778 0.350701C9.07632 0.419661 9.09098 0.493569 9.09093 0.5682V1.70455C9.09098 1.77918 9.07632 1.85309 9.04778 1.92205C9.01924 1.991 8.97739 2.05366 8.92462 2.10643C8.87185 2.15921 8.80919 2.20106 8.74023 2.22959C8.67127 2.25813 8.59736 2.2728 8.52273 2.27275H2.27275V8.52273C2.2728 8.59736 2.25813 8.67127 2.2296 8.74023C2.20106 8.80919 2.15921 8.87185 2.10643 8.92462C2.05366 8.97739 1.991 9.01924 1.92204 9.04778C1.85309 9.07632 1.77918 9.09098 1.70455 9.09093H0.568201C0.49357 9.09098 0.419661 9.07632 0.3507 9.04778C0.281742 9.01924 0.219084 8.97739 0.166313 8.92462C0.113541 8.87185 0.0716896 8.80919 0.0431519 8.74023C0.0146141 8.67127 -4.95911e-05 8.59736 0 8.52273V0.5682C-4.95911e-05 0.493574 0.0146122 0.41967 0.0431461 0.350714C0.071682 0.281758 0.113527 0.219103 0.166292 0.166332C0.219059 0.11356 0.28171 0.0717077 0.350664 0.0431672C0.419617 0.0146267 0.493521 -4.18972e-05 0.568148 1.22516e-07ZM0.568148 15.9091H1.70449C1.77912 15.9091 1.85303 15.9237 1.92199 15.9523C1.99095 15.9808 2.05361 16.0227 2.10638 16.0754C2.15915 16.1282 2.201 16.1909 2.22954 16.2598C2.25808 16.3288 2.27274 16.4027 2.27269 16.4773V22.7273H8.52273C8.59736 22.7273 8.67127 22.7419 8.74023 22.7705C8.80919 22.799 8.87185 22.8408 8.92462 22.8936C8.97739 22.9464 9.01924 23.009 9.04778 23.078C9.07632 23.147 9.09098 23.2209 9.09093 23.2955V24.4319C9.09098 24.5065 9.07632 24.5804 9.04778 24.6494C9.01924 24.7183 8.97739 24.781 8.92462 24.8337C8.87185 24.8865 8.80919 24.9284 8.74023 24.9569C8.67127 24.9854 8.59736 25.0001 8.52273 25.0001H0.568201C0.49357 25.0001 0.419661 24.9854 0.3507 24.9569C0.281742 24.9284 0.219084 24.8865 0.166313 24.8337C0.113541 24.781 0.0716896 24.7183 0.0431519 24.6494C0.0146141 24.5804 -4.95911e-05 24.5065 0 24.4319V16.4773C-4.19617e-05 16.4026 0.0146236 16.3287 0.0431614 16.2598C0.0716991 16.1908 0.113546 16.1282 0.166313 16.0754C0.219078 16.0227 0.281727 15.9808 0.350676 15.9523C0.419626 15.9237 0.493525 15.9091 0.568148 15.9091ZM16.4773 22.7273H22.7273V16.4773C22.7272 16.4026 22.7419 16.3287 22.7704 16.2598C22.7989 16.1908 22.8408 16.1282 22.8936 16.0754C22.9463 16.0226 23.009 15.9808 23.078 15.9522C23.1469 15.9237 23.2208 15.909 23.2955 15.9091H24.4318C24.5064 15.909 24.5803 15.9237 24.6493 15.9522C24.7182 15.9808 24.7809 16.0226 24.8337 16.0754C24.8864 16.1282 24.9283 16.1908 24.9568 16.2598C24.9854 16.3287 25 16.4026 25 16.4773V24.4318C25 24.5064 24.9854 24.5803 24.9568 24.6493C24.9283 24.7183 24.8865 24.7809 24.8337 24.8337C24.7809 24.8865 24.7183 24.9283 24.6493 24.9568C24.5803 24.9854 24.5064 25 24.4318 25H16.4773C16.4026 25 16.3287 24.9854 16.2598 24.9568C16.1908 24.9283 16.1282 24.8865 16.0754 24.8337C16.0226 24.7809 15.9808 24.7183 15.9522 24.6493C15.9237 24.5803 15.909 24.5064 15.9091 24.4318V23.2955C15.909 23.2208 15.9237 23.1469 15.9522 23.078C15.9808 23.009 16.0226 22.9464 16.0754 22.8936C16.1282 22.8408 16.1908 22.799 16.2598 22.7705C16.3287 22.7419 16.4026 22.7273 16.4773 22.7273Z" fill="#2067F0"/>
</g>
<defs>
<clipPath id="clip0">
<rect width="25" height="25" fill="white" transform="matrix(-1 0 0 1 25 0)"/>
</clipPath>
</defs>
</svg>
