<svg width="21" height="20" viewBox="0 0 21 20" fill="none" xmlns="http://www.w3.org/2000/svg">
<path d="M15.9696 3.4624C15.3071 3.4624 14.7695 3.99928 14.7695 4.662C14.7695 5.32449 15.3071 5.86197 15.9696 5.86197C16.632 5.86197 17.1695 5.32449 17.1695 4.662C17.1695 3.99947 16.632 3.46199 15.9696 3.4624Z" fill="white"/>
<path fill-rule="evenodd" clip-rule="evenodd" d="M6.50832 0.0604238C7.57466 0.0118625 7.91531 0 10.6285 0C13.3452 0 13.6848 0.0118625 14.7515 0.0604238C15.8161 0.109174 16.5431 0.277706 17.1807 0.52501C17.839 0.780209 18.3952 1.12188 18.9515 1.67814C19.5078 2.23393 19.8493 2.79187 20.1056 3.44959C20.3514 4.08541 20.5202 4.81207 20.5702 5.87665C20.618 6.94331 20.6305 7.28414 20.6305 9.99994C20.6305 12.7158 20.618 13.0558 20.5702 14.1224C20.5202 15.1866 20.3514 15.9134 20.1056 16.5496C19.8493 17.207 19.5078 17.765 18.9515 18.3208C18.3958 18.8771 17.8387 19.2195 17.1813 19.4749C16.5449 19.7223 15.8175 19.8908 14.7529 19.9395C13.6863 19.9881 13.3465 20 10.6304 20C7.91477 20 7.5742 19.9881 6.50748 19.9395C5.44311 19.8908 4.71627 19.7223 4.07998 19.4749C3.42273 19.2195 2.86479 18.8771 2.30914 18.3208C1.75313 17.765 1.41149 17.207 1.15583 16.5493C0.908795 15.9134 0.740265 15.1868 0.691285 14.1223C0.642914 13.0555 0.630859 12.7158 0.630859 9.99994C0.630859 7.28414 0.643371 6.94312 0.691055 5.87643C0.738967 4.81229 0.907726 4.08541 1.15568 3.44935C1.41187 2.79187 1.75359 2.23393 2.30984 1.67814C2.86564 1.12208 3.42356 0.7804 4.08128 0.52501C4.71711 0.277706 5.44381 0.109174 6.50832 0.0604238ZM10.2884 1.80201L10.6316 1.80211C13.3016 1.80211 13.6181 1.81169 14.6724 1.8596C15.6475 1.9042 16.1766 2.06708 16.5291 2.20399C16.9958 2.38522 17.3285 2.60189 17.6783 2.95189C18.0282 3.30188 18.2449 3.6352 18.4267 4.10188C18.5636 4.45397 18.7266 4.98315 18.7709 5.95814C18.8189 7.01227 18.8293 7.32896 18.8293 9.99774C18.8293 12.6665 18.8189 12.9831 18.7709 14.0373C18.7264 15.0122 18.5636 15.5415 18.4267 15.8935C18.2454 16.3602 18.0282 16.6924 17.6783 17.0422C17.3283 17.3923 16.996 17.6089 16.5291 17.7902C16.1771 17.9277 15.6475 18.0902 14.6724 18.1347C13.6183 18.1827 13.3016 18.1931 10.6316 18.1931C7.96146 18.1931 7.645 18.1827 6.59079 18.1347C5.61584 18.0898 5.08668 17.9268 4.73396 17.79C4.26728 17.6087 3.93396 17.392 3.58393 17.042C3.23398 16.6921 3.0173 16.3596 2.83565 15.8926C2.6987 15.5406 2.53559 15.0114 2.49126 14.0365C2.44335 12.9823 2.43374 12.6656 2.43374 9.99522C2.43374 7.32481 2.44335 7.0098 2.49126 5.95561C2.53582 4.98063 2.6987 4.45146 2.83565 4.09895C3.01684 3.6323 3.23398 3.29898 3.58393 2.94894C3.93396 2.59895 4.26728 2.38232 4.73396 2.20064C5.08644 2.06315 5.61584 1.90065 6.59079 1.85586C7.51332 1.81416 7.87083 1.80169 9.73452 1.79959V1.80211C9.90587 1.80184 10.09 1.80192 10.2884 1.80201Z" fill="white"/>
<path fill-rule="evenodd" clip-rule="evenodd" d="M5.49414 9.99858C5.49414 7.16251 7.79353 4.86316 10.6296 4.86316C13.4654 4.86316 15.7641 7.16251 15.7641 9.99858C15.7641 12.8346 13.4656 15.1329 10.6296 15.1329C7.79353 15.1329 5.49414 12.8346 5.49414 9.99858ZM13.9629 9.99851C13.9629 8.15749 12.4704 6.66519 10.6296 6.66519C8.78854 6.66519 7.29625 8.15749 7.29625 9.99851C7.29625 11.8394 8.78854 13.3318 10.6296 13.3318C12.4704 13.3318 13.9629 11.8394 13.9629 9.99851Z" fill="white"/>
</svg>
