<svg width="171" height="50" viewBox="0 0 171 50" fill="none" xmlns="http://www.w3.org/2000/svg">
<path d="M24.4062 3.81123C24.4062 2.25593 25.6671 0.995117 27.2224 0.995117H148.364C149.173 0.995117 149.943 1.34285 150.477 1.94973L169.36 23.3849C170.297 24.4489 170.297 26.0439 169.36 27.1079L150.477 48.543C149.943 49.1499 149.173 49.4976 148.364 49.4976H27.2224C25.6671 49.4976 24.4062 48.2368 24.4062 46.6815V3.81123Z" fill="#F22F3B"/>
<path d="M62.6196 40.6406C61.3048 40.6406 60.1129 40.358 59.0438 39.7927C57.987 39.2152 57.1515 38.4226 56.5371 37.415C55.9349 36.3951 55.6339 35.2462 55.6339 33.9682C55.6339 32.6903 55.9349 31.5475 56.5371 30.5399C57.1515 29.52 57.987 28.7274 59.0438 28.1621C60.1129 27.5846 61.3109 27.2958 62.6381 27.2958C63.7563 27.2958 64.7639 27.4924 65.6609 27.8857C66.5702 28.2789 67.3321 28.8441 67.9465 29.5814L66.0295 31.3509C65.1571 30.3433 64.0758 29.8395 62.7855 29.8395C61.9868 29.8395 61.2741 30.0176 60.6474 30.374C60.0207 30.718 59.5292 31.2034 59.1728 31.8301C58.8288 32.4568 58.6567 33.1695 58.6567 33.9682C58.6567 34.7669 58.8288 35.4797 59.1728 36.1063C59.5292 36.733 60.0207 37.2246 60.6474 37.5809C61.2741 37.925 61.9868 38.097 62.7855 38.097C64.0758 38.097 65.1571 37.587 66.0295 36.5671L67.9465 38.3366C67.3321 39.0862 66.5702 39.6576 65.6609 40.0508C64.7516 40.444 63.7378 40.6406 62.6196 40.6406ZM78.2081 37.6546H72.2177L71.0749 40.4194H68.0152L73.7659 27.517H76.7151L82.4843 40.4194H79.3509L78.2081 37.6546ZM77.268 35.3875L75.2221 30.4477L73.1761 35.3875H77.268ZM95.6563 27.517V40.4194H93.2048L86.772 32.5858V40.4194H83.8229V27.517H86.2928L92.7071 35.3506V27.517H95.6563ZM107.206 37.6546H101.216L100.073 40.4194H97.0132L102.764 27.517H105.713L111.482 40.4194H108.349L107.206 37.6546ZM106.266 35.3875L104.22 30.4477L102.174 35.3875H106.266ZM112.821 27.517H118.682C120.083 27.517 121.318 27.7874 122.387 28.328C123.469 28.8564 124.304 29.606 124.894 30.5767C125.496 31.5475 125.797 32.678 125.797 33.9682C125.797 35.2585 125.496 36.389 124.894 37.3597C124.304 38.3305 123.469 39.0862 122.387 39.6269C121.318 40.1552 120.083 40.4194 118.682 40.4194H112.821V27.517ZM118.535 37.968C119.825 37.968 120.851 37.6116 121.613 36.8989C122.387 36.1739 122.774 35.197 122.774 33.9682C122.774 32.7394 122.387 31.7687 121.613 31.056C120.851 30.331 119.825 29.9685 118.535 29.9685H115.807V37.968H118.535ZM136.366 37.6546H130.376L129.233 40.4194H126.173L131.924 27.517H134.873L140.642 40.4194H137.509L136.366 37.6546ZM135.426 35.3875L133.38 30.4477L131.334 35.3875H135.426Z" fill="white"/>
<path d="M59.7875 20.341C58.9199 20.341 58.0785 20.226 57.2631 19.996C56.4583 19.7556 55.8102 19.4473 55.3189 19.071L56.1813 17.1581C56.6516 17.503 57.2109 17.78 57.8589 17.9891C58.507 18.1981 59.1551 18.3027 59.8032 18.3027C60.5244 18.3027 61.0575 18.1981 61.4025 17.9891C61.7474 17.7696 61.9199 17.4821 61.9199 17.1267C61.9199 16.8654 61.8153 16.6511 61.6063 16.4839C61.4077 16.3062 61.1464 16.1651 60.8223 16.0605C60.5087 15.956 60.0802 15.841 59.5366 15.7156C58.7004 15.517 58.0157 15.3184 57.4826 15.1198C56.9495 14.9212 56.4896 14.6024 56.1029 14.1634C55.7266 13.7243 55.5384 13.139 55.5384 12.4073C55.5384 11.7696 55.7109 11.1947 56.0558 10.6826C56.4008 10.1599 56.9182 9.74702 57.6081 9.44389C58.3084 9.14076 59.1603 8.98919 60.1638 8.98919C60.8641 8.98919 61.5488 9.07282 62.2178 9.24006C62.8868 9.40731 63.4721 9.64772 63.9739 9.96131L63.1899 11.8899C62.176 11.315 61.162 11.0275 60.1481 11.0275C59.4373 11.0275 58.9095 11.1425 58.5645 11.3724C58.23 11.6024 58.0628 11.9055 58.0628 12.2818C58.0628 12.6581 58.2562 12.9404 58.6429 13.1285C59.0401 13.3062 59.6412 13.4839 60.446 13.6616C61.2823 13.8602 61.9669 14.0588 62.5 14.2574C63.0331 14.456 63.4878 14.7696 63.8641 15.1982C64.2509 15.6267 64.4442 16.2069 64.4442 16.9386C64.4442 17.5658 64.2665 18.1407 63.9111 18.6633C63.5662 19.1755 63.0436 19.5832 62.3432 19.8863C61.6429 20.1894 60.791 20.341 59.7875 20.341ZM68.3002 11.247H64.7881V9.17734H74.3524V11.247H70.8403V20.1528H68.3002V11.247ZM80.4116 20.341C78.8437 20.341 77.6207 19.9072 76.7427 19.0396C75.8751 18.172 75.4413 16.9334 75.4413 15.3236V9.17734H77.9813V15.2295C77.9813 17.1947 78.7966 18.1772 80.4273 18.1772C81.2217 18.1772 81.828 17.9421 82.2461 17.4717C82.6642 16.9908 82.8733 16.2435 82.8733 15.2295V9.17734H85.3819V15.3236C85.3819 16.9334 84.9429 18.172 84.0649 19.0396C83.1973 19.9072 81.9795 20.341 80.4116 20.341ZM87.892 9.17734H92.878C94.0696 9.17734 95.1201 9.40731 96.0295 9.86723C96.9494 10.3167 97.6602 10.9543 98.1619 11.7801C98.6741 12.6059 98.9302 13.5675 98.9302 14.6651C98.9302 15.7626 98.6741 16.7243 98.1619 17.5501C97.6602 18.3758 96.9494 19.0187 96.0295 19.4786C95.1201 19.9281 94.0696 20.1528 92.878 20.1528H87.892V9.17734ZM92.7525 18.0675C93.8501 18.0675 94.7229 17.7644 95.371 17.1581C96.0295 16.5414 96.3588 15.7104 96.3588 14.6651C96.3588 13.6198 96.0295 12.794 95.371 12.1878C94.7229 11.571 93.8501 11.2627 92.7525 11.2627H90.432V18.0675H92.7525ZM105.639 16.2644V20.1528H103.099V16.233L98.8502 9.17734H101.547L104.479 14.0536L107.411 9.17734H109.904L105.639 16.2644Z" fill="white"/>
<path d="M34.0897 43.7778C34.1559 44.0519 34.2353 44.3582 34.3188 44.6694L24.5247 43.41L24.3138 43.3828L24.237 43.3932L24.1751 43.3859L23.9779 43.4113L14.1837 44.6707C14.2673 44.3595 14.3466 44.0532 14.4129 43.7791L14.4133 43.7772C14.6459 42.8093 14.511 41.9976 14.238 41.3865C14.1069 41.0928 13.9527 40.8648 13.8188 40.6995C13.7516 40.6166 13.6888 40.5486 13.6351 40.4947C13.6081 40.4677 13.5833 40.4441 13.5612 40.4238C13.5543 40.4175 13.5478 40.4116 13.5414 40.4059L2.94291 30.743C3.37569 30.5264 3.7496 30.2322 4.03158 29.8508C4.35848 29.4085 4.49692 28.9366 4.53124 28.522C4.56435 28.1221 4.50113 27.7831 4.43819 27.5553C4.41246 27.4622 4.38488 27.3808 4.35936 27.3132L3.14571 22.5007C3.15138 22.502 3.15706 22.5034 3.16274 22.5047C4.53618 22.8309 6.07635 23.1945 6.67977 23.3286C7.23544 23.452 7.79321 23.4329 8.31231 23.2382C8.82483 23.046 9.18816 22.7248 9.43117 22.4199C9.66801 22.1228 9.80514 21.8247 9.88298 21.6163C9.92331 21.5083 9.95175 21.4135 9.97139 21.3392C9.98001 21.3066 9.9871 21.2774 9.99287 21.252L10.1036 20.8242C10.2283 20.9279 10.355 21.0332 10.4822 21.1391C11.6832 22.138 12.927 23.1735 13.1543 23.3663C13.3888 23.5659 13.95 24.039 14.7424 24.0628C15.6011 24.0886 16.1949 23.5891 16.4895 23.3117C17.2542 22.5917 17.2775 21.6426 17.2524 21.2207C17.2375 20.9694 17.1971 20.7535 17.1623 20.6035C17.1613 20.5994 17.1604 20.5953 17.1594 20.5912L16.974 13.4831C17.3756 13.6981 17.7704 13.8939 18.0938 14.0228L18.096 14.0236C19.3892 14.5367 20.446 13.9732 20.9992 13.5017C21.2733 13.2681 21.4739 13.0234 21.6026 12.847C21.669 12.756 21.7215 12.676 21.76 12.6141C21.7794 12.583 21.7955 12.556 21.8083 12.5339L21.8252 12.5044L21.8318 12.4926L21.8347 12.4874L21.836 12.4849L21.8367 12.4838C21.837 12.4832 21.8373 12.4827 20.4182 11.708L21.8373 12.4827L21.8543 12.4516L21.8699 12.4198L24.251 7.56345L26.6313 12.4196L26.647 12.4515L26.664 12.4827L28.0831 11.708C26.664 12.4827 26.6643 12.4832 26.6646 12.4838L26.6652 12.4849L26.6666 12.4874L26.6694 12.4926L26.6761 12.5044L26.6929 12.5339C26.7058 12.556 26.7219 12.583 26.7412 12.6141C26.7797 12.676 26.8323 12.756 26.8986 12.847C27.0274 13.0234 27.228 13.2681 27.502 13.5017C28.0553 13.9732 29.112 14.5367 30.4052 14.0236L30.4075 14.0227C30.7308 13.8939 31.1257 13.6981 31.5272 13.4831L31.3419 20.5904C31.341 20.5942 31.3401 20.598 31.3392 20.6018C31.3042 20.752 31.2635 20.9682 31.2484 21.2197C31.2231 21.6424 31.2463 22.5915 32.0117 23.3116C32.3062 23.5889 32.9 24.0886 33.7589 24.0628C34.5514 24.039 35.1127 23.5657 35.3471 23.3661C35.5748 23.1731 36.8183 22.1378 38.019 21.1391C38.1467 21.0329 38.2737 20.9273 38.3988 20.8233L38.5098 21.2513C38.5155 21.2765 38.5226 21.3055 38.5311 21.3379C38.5508 21.4121 38.5792 21.507 38.6195 21.615C38.6974 21.8234 38.8345 22.1215 39.0714 22.4186C39.3144 22.7234 39.6777 23.0447 40.1902 23.2369C40.7093 23.4316 41.2671 23.4507 41.8228 23.3273C42.4262 23.1932 43.9663 22.8296 45.3398 22.5034C45.3455 22.5021 45.3511 22.5007 45.3568 22.4994L44.1433 27.3116C44.1177 27.3791 44.0902 27.4603 44.0644 27.5532C44.0013 27.781 43.9378 28.1201 43.9707 28.5203C44.0049 28.9353 44.1433 29.4078 44.4708 29.8505C44.7529 30.2318 45.1269 30.5256 45.5595 30.7418L34.9611 40.4046C34.9548 40.4103 34.9482 40.4162 34.9413 40.4225C34.9192 40.4428 34.8944 40.4664 34.8675 40.4934C34.8137 40.5472 34.7509 40.6153 34.6838 40.6982C34.5498 40.8635 34.3957 41.0915 34.2645 41.3851C33.9915 41.9963 33.8566 42.808 34.0892 43.7759L34.0897 43.7778Z" fill="white" stroke="white" stroke-width="3.2335"/>
<mask id="mask0" mask-type="alpha" maskUnits="userSpaceOnUse" x="0" y="0" width="25" height="50">
<path d="M0 0.995117H24.2513V49.4976H0V0.995117Z" fill="#C4C4C4"/>
</mask>
<g mask="url(#mask0)">
<path d="M34.0897 43.7778C34.1559 44.0519 34.2353 44.3582 34.3188 44.6694L24.5247 43.41L24.3138 43.3828L24.237 43.3932L24.1751 43.3859L23.9779 43.4113L14.1837 44.6707C14.2673 44.3595 14.3466 44.0532 14.4129 43.7791L14.4133 43.7772C14.6459 42.8093 14.511 41.9976 14.238 41.3865C14.1069 41.0928 13.9527 40.8648 13.8188 40.6995C13.7516 40.6166 13.6888 40.5486 13.6351 40.4947C13.6081 40.4677 13.5833 40.4441 13.5612 40.4238C13.5543 40.4175 13.5478 40.4116 13.5414 40.4059L2.94291 30.743C3.37569 30.5264 3.7496 30.2322 4.03158 29.8508C4.35848 29.4085 4.49692 28.9366 4.53124 28.522C4.56435 28.1221 4.50113 27.7831 4.43819 27.5553C4.41246 27.4622 4.38488 27.3808 4.35936 27.3132L3.14571 22.5007C3.15138 22.502 3.15706 22.5034 3.16274 22.5047C4.53618 22.8309 6.07635 23.1945 6.67977 23.3286C7.23544 23.452 7.79321 23.4329 8.31231 23.2382C8.82483 23.046 9.18816 22.7248 9.43117 22.4199C9.66801 22.1228 9.80514 21.8247 9.88298 21.6163C9.92331 21.5083 9.95175 21.4135 9.97139 21.3392C9.98001 21.3066 9.9871 21.2774 9.99287 21.252L10.1036 20.8242C10.2283 20.9279 10.355 21.0332 10.4822 21.1391C11.6832 22.138 12.927 23.1735 13.1543 23.3663C13.3888 23.5659 13.95 24.039 14.7424 24.0628C15.6011 24.0886 16.1949 23.5891 16.4895 23.3117C17.2542 22.5917 17.2775 21.6426 17.2524 21.2207C17.2375 20.9694 17.1971 20.7535 17.1623 20.6035C17.1613 20.5994 17.1604 20.5953 17.1594 20.5912L16.974 13.4831C17.3756 13.6981 17.7704 13.8939 18.0938 14.0228L18.096 14.0236C19.3892 14.5367 20.446 13.9732 20.9992 13.5017C21.2733 13.2681 21.4739 13.0234 21.6026 12.847C21.669 12.756 21.7215 12.676 21.76 12.6141C21.7794 12.583 21.7955 12.556 21.8083 12.5339L21.8252 12.5044L21.8318 12.4926L21.8347 12.4874L21.836 12.4849L21.8367 12.4838C21.837 12.4832 21.8373 12.4827 20.4182 11.708L21.8373 12.4827L21.8543 12.4516L21.8699 12.4198L24.251 7.56345L26.6313 12.4196L26.647 12.4515L26.664 12.4827L28.0831 11.708C26.664 12.4827 26.6643 12.4832 26.6646 12.4838L26.6652 12.4849L26.6666 12.4874L26.6694 12.4926L26.6761 12.5044L26.6929 12.5339C26.7058 12.556 26.7219 12.583 26.7412 12.6141C26.7797 12.676 26.8323 12.756 26.8986 12.847C27.0274 13.0234 27.228 13.2681 27.502 13.5017C28.0553 13.9732 29.112 14.5367 30.4052 14.0236L30.4075 14.0227C30.7308 13.8939 31.1257 13.6981 31.5272 13.4831L31.3419 20.5904C31.341 20.5942 31.3401 20.598 31.3392 20.6018C31.3042 20.752 31.2635 20.9682 31.2484 21.2197C31.2231 21.6424 31.2463 22.5915 32.0117 23.3116C32.3062 23.5889 32.9 24.0886 33.7589 24.0628C34.5514 24.039 35.1127 23.5657 35.3471 23.3661C35.5748 23.1731 36.8183 22.1378 38.019 21.1391C38.1467 21.0329 38.2737 20.9273 38.3988 20.8233L38.5098 21.2513C38.5155 21.2765 38.5226 21.3055 38.5311 21.3379C38.5508 21.4121 38.5792 21.507 38.6195 21.615C38.6974 21.8234 38.8345 22.1215 39.0714 22.4186C39.3144 22.7234 39.6777 23.0447 40.1902 23.2369C40.7093 23.4316 41.2671 23.4507 41.8228 23.3273C42.4262 23.1932 43.9663 22.8296 45.3398 22.5034C45.3455 22.5021 45.3511 22.5007 45.3568 22.4994L44.1433 27.3116C44.1177 27.3791 44.0902 27.4603 44.0644 27.5532C44.0013 27.781 43.9378 28.1201 43.9707 28.5203C44.0049 28.9353 44.1433 29.4078 44.4708 29.8505C44.7529 30.2318 45.1269 30.5256 45.5595 30.7418L34.9611 40.4046C34.9548 40.4103 34.9482 40.4162 34.9413 40.4225C34.9192 40.4428 34.8944 40.4664 34.8675 40.4934C34.8137 40.5472 34.7509 40.6153 34.6838 40.6982C34.5498 40.8635 34.3957 41.0915 34.2645 41.3851C33.9915 41.9963 33.8566 42.808 34.0892 43.7759L34.0897 43.7778Z" fill="white" stroke="white" stroke-width="3.2335"/>
</g>
</svg>
