<svg width="53" height="50" viewBox="0 0 53 50" fill="none" xmlns="http://www.w3.org/2000/svg">
<path d="M51.7013 25C51.7013 38.2487 40.483 49.0566 26.5592 49.0566C12.6354 49.0566 1.41703 38.2487 1.41703 25C1.41703 11.7513 12.6354 0.943396 26.5592 0.943396C40.483 0.943396 51.7013 11.7513 51.7013 25Z" stroke="#F22F3B" stroke-width="1.88679"/>
<path d="M17.2946 22.0453C16.3285 21.0994 15.8455 19.9522 15.8455 18.6038C15.8455 17.2553 16.3285 16.1082 17.2946 15.1623C18.2606 14.2164 19.4279 13.7434 20.7964 13.7434C22.1449 13.7434 23.3021 14.2164 24.2681 15.1623C25.2342 16.1082 25.7172 17.2553 25.7172 18.6038C25.7172 19.9522 25.2342 21.0994 24.2681 22.0453C23.3021 22.9912 22.1449 23.4642 20.7964 23.4642C19.4279 23.4642 18.2606 22.9912 17.2946 22.0453ZM19.8304 34L31.2417 14.0755H33.3247L21.9134 34H19.8304ZM22.9398 20.8377C23.5034 20.234 23.7851 19.4893 23.7851 18.6038C23.7851 17.7182 23.5034 16.9736 22.9398 16.3698C22.3763 15.766 21.6618 15.4642 20.7964 15.4642C19.931 15.4642 19.2166 15.766 18.653 16.3698C18.0895 16.9535 17.8078 17.6981 17.8078 18.6038C17.8078 19.5094 18.0895 20.2642 18.653 20.8679C19.2166 21.4516 19.931 21.7434 20.7964 21.7434C21.6618 21.7434 22.3763 21.4415 22.9398 20.8377ZM28.8568 32.883C27.9109 31.9371 27.4379 30.7899 27.4379 29.4415C27.4379 28.0931 27.9109 26.9459 28.8568 26C29.8027 25.0541 30.96 24.5811 32.3285 24.5811C33.6971 24.5811 34.8644 25.0541 35.8304 26C36.7964 26.9459 37.2795 28.0931 37.2795 29.4415C37.2795 30.7899 36.7964 31.9371 35.8304 32.883C34.8644 33.8289 33.6971 34.3019 32.3285 34.3019C30.96 34.3019 29.8027 33.8289 28.8568 32.883ZM35.3172 29.4415C35.3172 28.5358 35.0354 27.7912 34.4719 27.2075C33.9084 26.6038 33.204 26.3019 32.3587 26.3019C31.4933 26.3019 30.7788 26.6038 30.2153 27.2075C29.6518 27.7912 29.37 28.5358 29.37 29.4415C29.37 30.327 29.6518 31.0717 30.2153 31.6755C30.7788 32.2591 31.4933 32.5509 32.3587 32.5509C33.204 32.5509 33.9084 32.2591 34.4719 31.6755C35.0354 31.0717 35.3172 30.327 35.3172 29.4415Z" fill="#F22F3B"/>
</svg>
