<svg width="19" height="19" viewBox="0 0 19 19" fill="none" xmlns="http://www.w3.org/2000/svg">
<path d="M15.5051 17.7429C6.49061 16.1345 2.39311 8.4903 1.05543 3.22323C0.759306 2.05725 1.68976 1 2.89275 1H5.18567C6.04653 1 6.8108 1.55086 7.08303 2.36754L7.73629 4.32736C7.97589 5.04603 7.78879 5.83837 7.25316 6.37403L7.10592 6.52127C6.81679 6.8104 6.72879 7.2491 6.9155 7.6129C7.96128 9.6506 9.55749 11.0255 10.5928 11.6913C10.9114 11.8961 11.3186 11.8564 11.6216 11.6292L12.2889 11.1287C12.8139 10.735 13.4987 10.6238 14.1213 10.8314L16.2597 11.5442C17.0763 11.8164 17.6272 12.5807 17.6272 13.4415V15.8622C17.6272 17.0192 16.6441 17.9461 15.5051 17.7429Z" stroke="white" stroke-width="1.5"/>
</svg>
