<svg width="40" height="40" viewBox="0 0 40 40" fill="none" xmlns="http://www.w3.org/2000/svg">
<path d="M20.1168 0.192383C9.19155 0.192383 0.316406 9.06752 0.316406 19.9928C0.316406 30.9181 9.19155 39.7932 20.1168 39.7932C31.0421 39.7932 39.9172 30.9181 39.9172 19.9928C39.9172 9.06752 31.0421 0.192383 20.1168 0.192383ZM20.1168 1.91416C30.1116 1.91416 38.1954 9.99804 38.1954 19.9928C38.1954 29.9875 30.1116 38.0714 20.1168 38.0714C10.1221 38.0714 2.03818 29.9875 2.03818 19.9928C2.03818 9.99804 10.1221 1.91416 20.1168 1.91416ZM20.1319 10.523C20.0064 10.5208 19.8818 10.546 19.7671 10.597L4.27111 17.4841C4.13223 17.5456 4.0121 17.6428 3.92291 17.7658C3.83372 17.8887 3.77865 18.0331 3.76328 18.1842C3.74791 18.3353 3.7728 18.4878 3.83541 18.6262C3.89802 18.7646 3.99613 18.8839 4.11978 18.9722L6.34262 20.5594V25.3986C5.83055 25.6978 5.48173 26.2471 5.48173 26.8799C5.48173 27.8269 7.2035 30.3234 7.2035 30.3234C7.2035 30.3234 8.92528 27.8269 8.92528 26.8799C8.92528 26.2471 8.57645 25.6978 8.06439 25.3986V21.7902L9.78617 23.0193V24.2972C9.78617 24.736 10.0322 25.0789 10.2671 25.2876C10.5019 25.4962 10.7587 25.6329 11.0506 25.7584C11.6343 26.0093 12.3719 26.1993 13.2667 26.362C15.0562 26.6874 17.4595 26.8799 20.1168 26.8799C22.7741 26.8799 25.1774 26.6874 26.9669 26.362C27.8617 26.1993 28.5993 26.0093 29.183 25.7584C29.4749 25.6329 29.7317 25.4962 29.9666 25.2876C30.2014 25.0789 30.4475 24.736 30.4475 24.2972V23.0193L36.1138 18.9722C36.2375 18.8839 36.3356 18.7646 36.3982 18.6262C36.4608 18.4878 36.4857 18.3353 36.4703 18.1842C36.455 18.0331 36.3999 17.8887 36.3107 17.7658C36.2215 17.6428 36.1014 17.5456 35.9625 17.4841L20.4665 10.597C20.3611 10.5502 20.2473 10.525 20.1319 10.523V10.523ZM20.1168 12.3255L33.886 18.4459L30.4475 20.9024V19.9928C30.4475 19.6173 30.2653 19.2801 30.0574 19.0579C29.8494 18.8357 29.6109 18.6863 29.3444 18.5535C28.8115 18.288 28.1436 18.0961 27.2948 17.9314C25.5971 17.6019 23.1915 17.4101 20.1168 17.4101C17.0422 17.4101 14.6365 17.6019 12.9388 17.9314C12.09 18.0961 11.4221 18.288 10.8892 18.5535C10.6227 18.6863 10.3842 18.8357 10.1763 19.0579C9.96829 19.2801 9.78617 19.6173 9.78617 19.9928V20.9024L6.34766 18.4459L20.1168 12.3255ZM20.1168 19.1319C23.1183 19.1319 25.4487 19.3265 26.9669 19.6212C27.726 19.7685 28.2845 19.9493 28.5777 20.0954C28.6753 20.144 28.6922 20.1624 28.7257 20.1878V22.6814C28.2218 22.5086 27.6554 22.3576 26.9669 22.2324C25.1774 21.9071 22.7741 21.7146 20.1168 21.7146C17.4595 21.7146 15.0562 21.9071 13.2667 22.2324C12.5783 22.3576 12.0118 22.5086 11.5079 22.6814V20.1878C11.5415 20.1624 11.5583 20.144 11.6559 20.0954C11.9491 19.9493 12.5076 19.7685 13.2667 19.6212C14.7849 19.3265 17.1153 19.1319 20.1168 19.1319ZM20.1168 23.4363C22.6895 23.4363 25.0214 23.6295 26.6592 23.9273C27.2764 24.0395 27.6684 24.1708 28.0481 24.2972C27.6684 24.4237 27.2764 24.5549 26.6592 24.6671C25.0214 24.9649 22.6895 25.1581 20.1168 25.1581C17.5441 25.1581 15.2123 24.9649 13.5744 24.6671C12.9572 24.5549 12.5653 24.4237 12.1856 24.2972C12.5653 24.1708 12.9572 24.0395 13.5744 23.9273C15.2123 23.6295 17.5441 23.4363 20.1168 23.4363Z" fill="#F22F3B"/>
</svg>
