<svg width="41" height="40" viewBox="0 0 41 40" fill="none" xmlns="http://www.w3.org/2000/svg">
<path d="M8.63494 0.192505C8.2575 0.263663 7.98524 0.597795 7.99143 0.984521V2.56855C7.98833 2.85318 8.13684 3.11925 8.38434 3.26466C8.63185 3.40698 8.93504 3.40698 9.18255 3.26466C9.43005 3.11925 9.57855 2.85318 9.57546 2.56855V1.77654H37.296V19.9929H34.0537L34.92 18.4089L34.0537 16.8248H26.9998V19.9929H18.2876C18.2629 19.9929 18.2381 19.9929 18.2134 19.9929C17.7772 20.0146 17.4368 20.3858 17.4585 20.8221C17.4802 21.2583 17.8514 21.5986 18.2876 21.5769H38.8801V22.369H18.2876C18.003 22.3659 17.7369 22.5144 17.5915 22.7619C17.4492 23.0094 17.4492 23.3126 17.5915 23.5601C17.7369 23.8076 18.003 23.9561 18.2876 23.953H39.6721C40.1083 23.953 40.4641 23.5972 40.4641 23.161V20.7849C40.4641 20.3487 40.1083 19.9929 39.6721 19.9929H38.8801V0.984521C38.8801 0.548294 38.5243 0.192505 38.088 0.192505H8.78344C8.75869 0.192505 8.73394 0.192505 8.70919 0.192505C8.68444 0.192505 8.65969 0.192505 8.63494 0.192505ZM10.3675 4.15259C7.7532 4.15259 5.61538 6.29041 5.61538 8.90468C5.61538 11.519 7.7532 13.6568 10.3675 13.6568C12.9817 13.6568 15.1196 11.519 15.1196 8.90468C15.1196 6.29041 12.9817 4.15259 10.3675 4.15259ZM10.3675 13.6568H8.53594C7.93883 13.6568 7.06947 13.731 6.25889 14.2755C5.44831 14.8201 4.82336 15.8689 4.82336 17.3694V25.8835C3.43115 26.4992 2.44731 27.8852 2.44731 29.4971C2.44731 30.6975 3.00729 31.7649 3.85809 32.4919C2.08534 33.4201 0.863281 35.2918 0.863281 37.4173V39.0013C0.863281 39.4375 1.21907 39.7933 1.6553 39.7933H11.1595C11.1842 39.7933 11.209 39.7933 11.2337 39.7933H30.1679C30.1926 39.7933 30.2174 39.7933 30.2421 39.7933H39.6721C40.1083 39.7933 40.4641 39.4375 40.4641 39.0013V37.4173C40.4641 35.2918 39.242 33.4201 37.4693 32.4919C38.3201 31.7649 38.8801 30.6975 38.8801 29.4971C38.8801 27.3191 37.098 25.537 34.92 25.537C32.7419 25.537 30.9599 27.3191 30.9599 29.4971C30.9599 30.6975 31.5199 31.7649 32.3707 32.4919C31.4673 32.9653 30.6938 33.7016 30.1679 34.571C29.6388 33.6892 28.8778 32.9715 27.9651 32.4919C28.8159 31.7649 29.3759 30.6975 29.3759 29.4971C29.3759 27.3191 27.5938 25.537 25.4158 25.537C23.2377 25.537 21.4557 27.3191 21.4557 29.4971C21.4557 30.6975 22.0157 31.7649 22.8665 32.4919C21.9631 32.9653 21.1896 33.7016 20.6637 34.571C20.1346 33.6954 19.3736 32.9684 18.4609 32.4919C19.3117 31.7649 19.8717 30.6975 19.8717 29.4971C19.8717 27.5913 18.5042 25.9825 16.7036 25.6113V18.4089L20.0944 17.1961L20.1192 17.1714C20.1254 17.1683 20.1377 17.1744 20.1439 17.1714C20.8184 16.9672 21.3722 16.6052 21.7527 16.1071H21.7775L25.7375 10.9837C25.7375 10.9744 25.7375 10.9683 25.7375 10.959C26.4677 9.98752 26.3563 8.55199 25.3415 7.79091C24.8558 7.42584 24.2587 7.28353 23.6832 7.3454C23.1078 7.40728 22.554 7.67953 22.1735 8.18692L18.7826 12.5678L13.5355 13.6568H10.3675ZM10.3675 5.73662C12.1279 5.73662 13.5355 7.1443 13.5355 8.90468C13.5355 10.6651 12.1279 12.0727 10.3675 12.0727C8.6071 12.0727 7.19941 10.6651 7.19941 8.90468C7.19941 7.1443 8.6071 5.73662 10.3675 5.73662ZM23.8565 8.92943C24.0298 8.90778 24.2278 8.94181 24.3763 9.05319C24.6238 9.23882 24.6764 9.6967 24.4753 9.99371C24.4691 9.99989 24.4815 10.0123 24.4753 10.0185L20.5152 15.1418C20.5152 15.1511 20.5152 15.1573 20.5152 15.1666C20.4286 15.281 20.0511 15.5471 19.6489 15.6616C19.6334 15.6678 19.6149 15.677 19.5994 15.6863L15.6393 17.0971C15.3176 17.2147 15.1103 17.524 15.1196 17.8644V25.6113C13.319 25.9825 11.9515 27.5913 11.9515 29.4971C11.9515 30.6975 12.5115 31.7649 13.3623 32.4919C12.4589 32.9653 11.6854 33.7016 11.1595 34.571C10.6305 33.6892 9.86937 32.9715 8.9567 32.4919C9.8075 31.7649 10.3675 30.6975 10.3675 29.4971C10.3675 27.3191 8.58544 25.537 6.4074 25.537V17.3694C6.4074 16.2556 6.72915 15.8534 7.12516 15.5873C7.52117 15.3213 8.1028 15.2408 8.53594 15.2408H13.5355C13.5943 15.2377 13.6531 15.2315 13.7088 15.2161L19.4014 14.028C19.5839 13.994 19.751 13.8981 19.8717 13.7558L23.4357 9.15219C23.5317 9.02534 23.6832 8.95109 23.8565 8.92943ZM6.4074 27.1211C7.72845 27.1211 8.78344 28.176 8.78344 29.4971C8.78344 30.8182 7.72845 31.8732 6.4074 31.8732C5.08634 31.8732 4.03135 30.8182 4.03135 29.4971C4.03135 28.4266 4.72436 27.5202 5.68963 27.2201C5.73604 27.2046 5.79173 27.2077 5.83813 27.1953C5.87217 27.1891 5.9062 27.1798 5.93714 27.1706C6.09183 27.1396 6.24342 27.1211 6.4074 27.1211ZM25.4158 27.1211C26.7368 27.1211 27.7918 28.176 27.7918 29.4971C27.7918 30.8182 26.7368 31.8732 25.4158 31.8732C24.0947 31.8732 23.0397 30.8182 23.0397 29.4971C23.0397 28.176 24.0947 27.1211 25.4158 27.1211ZM34.92 27.1211C36.241 27.1211 37.296 28.176 37.296 29.4971C37.296 30.8182 36.241 31.8732 34.92 31.8732C33.5989 31.8732 32.5439 30.8182 32.5439 29.4971C32.5439 28.176 33.5989 27.1211 34.92 27.1211ZM15.7136 27.1458C15.7229 27.1458 15.7291 27.1458 15.7383 27.1458C15.8435 27.1675 15.9549 27.1675 16.0601 27.1458C16.0694 27.1458 16.0756 27.1458 16.0848 27.1458C17.3193 27.2386 18.2876 28.2379 18.2876 29.4971C18.2876 30.8182 17.2326 31.8732 15.9116 31.8732C14.5905 31.8732 13.5355 30.8182 13.5355 29.4971C13.5355 28.2441 14.4915 27.2479 15.7136 27.1458ZM6.4074 33.4572C8.58853 33.4572 10.3675 35.2361 10.3675 37.4173V38.2093H2.44731V37.4173C2.44731 35.2361 4.22626 33.4572 6.4074 33.4572ZM15.9116 33.4572C18.0927 33.4572 19.8717 35.2361 19.8717 37.4173V38.2093H11.9515V37.4173C11.9515 35.2361 13.7305 33.4572 15.9116 33.4572ZM25.4158 33.4572C27.5969 33.4572 29.3759 35.2361 29.3759 37.4173V38.2093H21.4557V37.4173C21.4557 35.2361 23.2346 33.4572 25.4158 33.4572ZM34.92 33.4572C37.1011 33.4572 38.8801 35.2361 38.8801 37.4173V38.2093H30.9599V37.4173C30.9599 35.2361 32.7388 33.4572 34.92 33.4572Z" fill="#F22F3B"/>
</svg>
