<svg width="51" height="38" viewBox="0 0 51 38" fill="none" xmlns="http://www.w3.org/2000/svg">
<path d="M14.5757 0.182533C14.1309 0.178667 13.7365 0.472443 13.6127 0.901511C13.6127 0.901511 13.6127 0.901511 13.6088 0.901511L0.792721 27.2872C0.665101 27.5462 0.657366 27.8516 0.773384 28.1145C0.889402 28.3812 1.11757 28.5822 1.39601 28.6672C1.39601 28.6672 7.10797 30.4028 8.45764 30.8396C8.90625 30.9826 9.38966 30.7971 9.62556 30.3874C11.42 27.2215 12.6498 23.7271 13.5044 21.0174C14.2972 24.3186 15.6082 29.22 17.9363 33.7851C18.0523 34.017 18.2573 34.1948 18.5087 34.276C20.0672 34.7863 28.5249 37.5578 28.8768 37.6738C29.1166 37.8091 29.4028 37.84 29.6657 37.7588C29.6735 37.7588 29.6773 37.7549 29.6812 37.7549C29.6928 37.7511 29.7044 37.7472 29.716 37.7433C29.7199 37.7433 29.7237 37.7395 29.7276 37.7356L29.774 37.7202L49.528 30.8087C49.7871 30.7198 49.996 30.5304 50.1081 30.2791C50.2164 30.0317 50.2203 29.7495 50.1158 29.4983L38.2356 0.801009C38.1351 0.553618 37.9378 0.360344 37.6865 0.259842C37.4389 0.163205 37.1605 0.167071 36.9169 0.275304C36.4953 0.464712 35.165 0.812604 33.4711 1.07932C31.7773 1.34218 29.6657 1.56251 27.4343 1.66301C22.9715 1.86401 17.9905 1.53545 14.9585 0.267573C14.9547 0.263708 14.9469 0.263708 14.9392 0.259842C14.916 0.248246 14.8928 0.240514 14.8657 0.232784C14.8618 0.228919 14.8541 0.228919 14.8464 0.228919C14.8425 0.225052 14.8386 0.225052 14.8309 0.221187C14.7497 0.197995 14.6646 0.186398 14.5757 0.182533ZM36.7235 2.32401L47.8883 29.2896L29.9596 35.5632L16.3159 2.784C19.6573 3.66146 23.7527 3.80835 27.5233 3.63827C29.8282 3.53776 32.0016 3.3097 33.7766 3.03525C35.0992 2.82652 35.9114 2.57913 36.7235 2.32401ZM14.5061 3.58802L27.6586 35.1921C25.4582 34.4693 21.2042 33.0777 19.549 32.5366C16.4822 26.3209 14.5873 17.0824 14.5873 17.0824C14.4983 16.6301 14.1077 16.3016 13.6475 16.2861C13.1873 16.2745 12.7774 16.576 12.6614 17.0244C12.6614 17.0244 10.7316 23.9127 8.20627 28.6904C6.52788 28.1686 4.18045 27.4496 3.07828 27.1133L14.5061 3.58802Z" fill="#F22F3B"/>
</svg>
