<svg width="34" height="42" viewBox="0 0 34 42" fill="none" xmlns="http://www.w3.org/2000/svg">
<path d="M2.93474 0.202393C1.51014 0.202393 0.335938 1.37659 0.335938 2.8012V39.1844C0.335938 40.6091 1.51014 41.7832 2.93474 41.7832H30.6553C32.0799 41.7832 33.2541 40.6091 33.2541 39.1844V2.8012C33.2541 1.37659 32.0799 0.202393 30.6553 0.202393H2.93474ZM2.93474 1.93493H30.6553C31.1358 1.93493 31.5216 2.32069 31.5216 2.8012V39.1844C31.5216 39.665 31.1358 40.0507 30.6553 40.0507H2.93474C2.45423 40.0507 2.06847 39.665 2.06847 39.1844V2.8012C2.06847 2.32069 2.45423 1.93493 2.93474 1.93493ZM16.795 7.13254C11.5568 7.13254 7.26608 11.4233 7.26608 16.6615C7.26608 21.8997 11.5568 26.1904 16.795 26.1904C22.0332 26.1904 26.324 21.8997 26.324 16.6615C26.324 11.4233 22.0332 7.13254 16.795 7.13254ZM15.9288 9.13578V15.7952H13.3841C13.4856 13.88 13.8849 12.1474 14.494 10.9225C14.9305 10.0393 15.4347 9.45048 15.9288 9.13578ZM17.6613 9.13578C18.1553 9.45048 18.6595 10.0393 19.0961 10.9225C19.7051 12.1474 20.1044 13.88 20.206 15.7952H17.6613V9.13578ZM13.1675 9.75841C13.0931 9.89038 13.0186 10.0257 12.951 10.1645C12.193 11.6906 11.726 13.6431 11.6245 15.7952H9.05276C9.34715 13.1829 10.9376 10.936 13.1675 9.75841ZM20.4225 9.75841C22.6525 10.936 24.2429 13.1829 24.5373 15.7952H21.9656C21.864 13.6431 21.3971 11.6906 20.6391 10.1645C20.5714 10.0257 20.497 9.89038 20.4225 9.75841ZM9.05276 17.5277H11.6245C11.726 19.6799 12.193 21.6324 12.951 23.1585C13.0186 23.2972 13.0931 23.4326 13.1675 23.5646C10.9376 22.387 9.34715 20.1401 9.05276 17.5277ZM13.3841 17.5277H15.9288V24.1872C15.4347 23.8725 14.9305 23.2837 14.494 22.4005C13.8849 21.1756 13.4856 19.443 13.3841 17.5277ZM17.6613 17.5277H20.206C20.1044 19.443 19.7051 21.1756 19.0961 22.4005C18.6595 23.2837 18.1553 23.8725 17.6613 24.1872V17.5277ZM21.9656 17.5277H24.5373C24.2429 20.1401 22.6525 22.387 20.4225 23.5646C20.497 23.4326 20.5714 23.2972 20.6391 23.1585C21.3971 21.6324 21.864 19.6799 21.9656 17.5277ZM6.23739 32.2543C5.76026 32.2983 5.40834 32.7247 5.45233 33.2018C5.49632 33.6789 5.92269 34.0308 6.39981 33.9868H27.1902C27.5016 33.9902 27.7926 33.8278 27.9516 33.5571C28.1073 33.2864 28.1073 32.9548 27.9516 32.6841C27.7926 32.4133 27.5016 32.2509 27.1902 32.2543H6.39981C6.37274 32.2543 6.34567 32.2543 6.3186 32.2543C6.29153 32.2543 6.26446 32.2543 6.23739 32.2543Z" fill="#F22F3B"/>
</svg>
