<svg width="41" height="43" viewBox="0 0 41 43" fill="none" xmlns="http://www.w3.org/2000/svg">
<path d="M22.3672 5.14368e-05C17.4119 5.14368e-05 13.8195 1.94468 11.9334 4.81085C10.1606 7.50521 9.98879 10.9298 11.1837 14.0888C10.7424 14.6355 10.3715 15.3462 10.4652 16.463C10.4652 16.4825 10.4652 16.5059 10.4652 16.5255C10.6331 17.7438 11.0001 18.6028 11.4648 19.212C11.6913 19.5088 12.0271 19.5166 12.3083 19.6806C12.4762 20.7622 12.7964 21.8595 13.2454 22.742C13.4993 23.2418 13.7531 23.6831 14.0264 24.054C14.1475 24.2181 14.3076 24.3235 14.4325 24.4602C14.4208 25.3153 14.3701 26.0846 14.3076 26.8968H14.2763C14.1006 26.8929 13.9288 26.9358 13.7765 27.0217C13.7765 27.0217 12.0779 28.0917 10.6839 30.0519C4.50245 31.4811 0.375 36.4442 0.375 40.9856C0.375 41.5361 0.82406 41.9852 1.37465 41.9852H18.025C18.2163 42.0438 18.4272 42.0438 18.6185 41.9852H22.1798C22.3711 42.0438 22.582 42.0438 22.7733 41.9852H39.3612C39.9118 41.9852 40.3609 41.5361 40.3609 40.9856C40.3609 35.5109 35.4212 31.0984 29.9583 30.1456C29.7006 29.802 28.6423 28.4236 27.1468 27.3341C27.1273 27.3107 27.1077 27.2912 27.0843 27.2717C27.0335 27.2365 26.9789 27.2131 26.9281 27.1779C26.7524 27.0374 26.5298 26.9593 26.3033 26.9593C26.2448 26.1158 26.2213 25.3231 26.2096 24.4914C26.319 24.3586 26.4791 24.2688 26.5845 24.1165C26.85 23.7378 27.1234 23.2731 27.3655 22.7733C27.795 21.8908 28.1308 20.8521 28.3339 19.8368C28.6541 19.6728 29.0211 19.6611 29.271 19.337C29.7513 18.7083 30.0325 17.8141 30.1457 16.5879C30.2082 15.8616 30.1574 15.2056 29.9271 14.6511C29.8529 14.4754 29.7279 14.3114 29.6147 14.1513C29.9388 13.4523 30.1457 12.6518 30.2394 11.7459C30.3761 10.4495 30.3214 9.00468 29.9583 7.59112C29.5951 6.17756 28.9196 4.80304 27.834 3.74873C26.8969 2.83889 25.5809 2.2805 24.0541 2.1243L23.2732 0.562353C23.1052 0.21482 22.7538 -0.00385318 22.3672 5.14368e-05ZM21.7737 2.06182L22.4609 3.43634C22.6289 3.78387 22.9803 4.00254 23.3669 3.99864C24.757 3.99864 25.7176 4.46332 26.4595 5.18572C27.2015 5.90812 27.7247 6.94291 28.0215 8.09094C28.3182 9.23897 28.3807 10.469 28.2714 11.5272C28.1621 12.5854 27.8301 13.464 27.5841 13.7764C27.385 14.0302 27.3225 14.37 27.4162 14.6785C27.5099 14.9869 27.7442 15.2329 28.0527 15.3384C28.0488 15.3462 28.0332 15.3579 28.0527 15.4009C28.123 15.5727 28.2167 15.928 28.1777 16.4005C28.0879 17.3728 27.8458 17.9 27.6778 18.1186C27.5099 18.3373 27.424 18.3061 27.4592 18.3061C26.975 18.3139 26.565 18.6692 26.4908 19.1495C26.3619 20.0008 25.9675 21.0512 25.5536 21.8986C25.3466 22.3242 25.1436 22.6952 24.9601 22.9607C24.7765 23.2262 24.5813 23.3902 24.6789 23.3356C24.3782 23.5113 24.1869 23.8315 24.1791 24.179C24.1791 25.5379 24.2767 26.4009 24.3665 27.8027C24.3665 27.834 24.3665 27.8652 24.3665 27.8964C24.3665 27.9082 24.3665 27.916 24.3665 27.9277C24.3665 27.9472 24.3665 27.9706 24.3665 27.9902C24.3665 28.0917 24.3587 28.1971 24.304 28.3025C24.2494 28.4119 24.1557 28.5134 24.0229 28.6462C23.7613 28.9039 23.3473 29.1499 22.8983 29.3647C22.4961 29.556 22.1134 29.7005 21.8049 29.802C21.7542 29.8176 21.6956 29.8489 21.6487 29.8645C21.4535 29.9231 21.2426 29.9738 21.1801 29.9895H19.5557C19.3878 29.9465 18.642 29.7473 17.8376 29.3647C17.3885 29.1499 16.9746 28.9039 16.713 28.6462C16.4513 28.3885 16.3693 28.1893 16.3693 27.9902C16.3772 27.8535 16.3537 27.7129 16.3069 27.584C16.3928 26.2915 16.4631 25.4793 16.4631 24.0853C16.467 23.726 16.2756 23.3902 15.9632 23.2106C16.0374 23.2535 15.8422 23.1247 15.6508 22.867C15.4595 22.6092 15.233 22.25 15.0261 21.8361C14.6082 21.0122 14.2334 19.9539 14.1514 19.0871C14.1084 18.6068 13.7257 18.2241 13.2454 18.1811C13.2806 18.1889 13.2572 18.1811 13.183 18.1811C13.1439 18.1577 13.0893 18.1108 13.0268 18.0249C12.8511 17.7945 12.6011 17.2283 12.4645 16.3068C12.4645 16.2873 12.4645 16.2951 12.4645 16.2755C12.4606 16.2599 12.4684 16.2599 12.4645 16.2443C12.4489 15.4868 12.9174 15.065 12.8393 15.1197C13.2298 14.8464 13.3743 14.3387 13.183 13.9014C11.9568 11.1289 12.1326 8.16123 13.6203 5.90421C15.0339 3.75654 17.7009 2.21411 21.7737 2.06182ZM13.6203 29.6458C13.7336 30.1144 13.8663 30.5986 14.0264 31.1765C14.3974 32.5198 14.8816 34.0778 15.3697 35.5812C15.975 37.436 16.4943 38.9121 16.8692 39.9859H13.839L10.8088 36.1748L12.7456 34.8002C13.0893 34.566 13.2494 34.1403 13.1517 33.7381L12.4332 31.0203C12.8472 30.4502 13.265 29.9777 13.6203 29.6458ZM27.0531 29.8957C27.6193 30.4463 28.0527 30.9735 28.2714 31.239L27.5841 33.7381C27.4865 34.1403 27.6466 34.566 27.9902 34.8002L29.9271 36.1748L26.8969 39.9859H23.8667C24.2416 38.9121 24.7609 37.436 25.3662 35.5812C25.8543 34.0778 26.3385 32.5198 26.7094 31.1765C26.8422 30.6923 26.9515 30.3018 27.0531 29.8957ZM15.9008 30.5518C16.2561 30.8056 16.631 31.0047 16.9941 31.1765C17.533 31.4343 18.0523 31.61 18.4624 31.7388L19.3683 33.988L18.2437 37.8617C17.9352 36.9635 17.6306 36.042 17.2753 34.9564C16.7911 33.4726 16.2912 31.938 15.932 30.6455C15.9203 30.6103 15.9086 30.5869 15.9008 30.5518ZM24.8351 30.5518C24.8273 30.5869 24.8156 30.6103 24.8039 30.6455C24.4446 31.938 23.9448 33.4726 23.4606 34.9564C23.1052 36.042 22.8007 36.9635 22.4922 37.8617L21.3676 33.988L22.2735 31.7388C22.6835 31.61 23.2029 31.4343 23.7417 31.1765C23.9253 31.0906 24.1205 31.0008 24.304 30.8954C24.4095 30.8368 24.511 30.7743 24.6164 30.7079C24.6906 30.6611 24.7609 30.6025 24.8351 30.5518ZM10.6214 32.0512L11.0275 33.5819L8.77828 35.1751C8.5557 35.3352 8.41122 35.5812 8.37608 35.8546C8.34093 36.124 8.41903 36.3973 8.59085 36.6121L11.2774 39.9859H2.59297C3.14355 36.9479 6.04877 33.3008 10.6214 32.0512ZM30.0832 32.1449C34.0975 33.0352 37.5337 36.2997 38.1117 39.9859H29.4585L32.145 36.6121C32.2544 36.4872 32.3285 36.3349 32.3637 36.1748C32.3676 36.1318 32.3676 36.0928 32.3637 36.0498C32.3871 35.7062 32.2348 35.3782 31.9576 35.1751L29.7084 33.5819L30.0832 32.1449Z" fill="#F22F3B"/>
</svg>
