<svg width="41" height="40" viewBox="0 0 41 40" fill="none" xmlns="http://www.w3.org/2000/svg">
<path d="M9.03005 0.189209C6.66242 0.189209 4.72527 2.12636 4.72527 4.49399C4.72527 6.86162 6.66242 8.79877 9.03005 8.79877C11.3977 8.79877 13.3348 6.86162 13.3348 4.49399C13.3348 2.12636 11.3977 0.189209 9.03005 0.189209ZM23.6663 0.189209V1.91112H15.0567V3.63303H38.3025V26.0179H15.9177V27.7398H23.2358L18.5006 37.2103H20.2225L24.5273 28.6008L28.832 37.2103H30.5539L25.8187 27.7398H39.1635C39.6377 27.7398 40.0245 27.353 40.0245 26.8788V2.77208C40.0245 2.29788 39.6377 1.91112 39.1635 1.91112H25.3882V0.189209H23.6663ZM9.03005 1.91112C10.4661 1.91112 11.6129 3.05794 11.6129 4.49399C11.6129 5.93004 10.4661 7.07686 9.03005 7.07686C7.594 7.07686 6.44718 5.93004 6.44718 4.49399C6.44718 3.05794 7.594 1.91112 9.03005 1.91112ZM5.15575 9.65972C2.54934 9.65972 0.420491 11.7886 0.420491 14.395V24.9955C0.417128 25.0325 0.417128 25.0661 0.420491 25.1031V25.1569C0.417128 25.2376 0.427218 25.3217 0.447396 25.3991C0.575194 26.7006 1.67157 27.7398 3.00336 27.7398C3.30604 27.7398 3.5919 27.6759 3.86431 27.5784V36.7798C3.86431 38.4345 5.22301 39.7932 6.87766 39.7932C7.71844 39.7932 8.48186 39.4401 9.03005 38.8784C9.57824 39.4401 10.3417 39.7932 11.1824 39.7932C12.8371 39.7932 14.1958 38.4345 14.1958 36.7798V14.8255H23.6663C25.0822 14.8255 26.2492 13.6585 26.2492 12.2426C26.2492 10.8435 25.1124 9.68999 23.7201 9.65972C23.7033 9.65972 23.6831 9.65972 23.6663 9.65972H11.6129C11.28 9.65636 10.9773 9.84469 10.8327 10.144L9.03005 13.7493L7.22742 10.144C7.08281 9.84469 6.78013 9.65636 6.44718 9.65972H5.15575ZM5.15575 11.3816H5.90908L8.24981 16.0631C8.39106 16.3658 8.6971 16.5608 9.03005 16.5608C9.363 16.5608 9.66904 16.3658 9.81029 16.0631L12.151 11.3816H23.6663C23.6932 11.3816 23.7201 11.3816 23.747 11.3816C24.1943 11.422 24.5273 11.7852 24.5273 12.2426C24.5273 12.7302 24.1539 13.1035 23.6663 13.1035H13.3348C12.8606 13.1035 12.4739 13.4903 12.4739 13.9645V36.7798C12.4739 37.5029 11.9055 38.0713 11.1824 38.0713C10.5031 38.0713 9.9549 37.5735 9.89101 36.9144V36.6991C9.89101 36.6722 9.89101 36.6453 9.89101 36.6184V27.7398C9.90109 27.4909 9.8002 27.2521 9.62196 27.084C9.44035 26.9125 9.19484 26.8284 8.94933 26.8519C8.91234 26.8587 8.87535 26.8688 8.84172 26.8788C8.44151 26.9696 8.159 27.3295 8.16909 27.7398V36.6184C8.16573 36.6554 8.16573 36.689 8.16909 36.726V36.9144C8.10519 37.5735 7.55701 38.0713 6.87766 38.0713C6.15459 38.0713 5.58623 37.5029 5.58623 36.7798V16.5474C5.59295 16.2817 5.47524 16.0295 5.27009 15.8613C5.06831 15.6931 4.7959 15.6292 4.53694 15.6864C4.13673 15.7772 3.85422 16.1371 3.86431 16.5474V25.0224C3.86431 25.0493 3.86431 25.0762 3.86431 25.1031V25.1569C3.86431 25.6446 3.49101 26.0179 3.00336 26.0179C2.53589 26.0179 2.16931 25.6715 2.1424 25.2107C2.1424 25.1939 2.1424 25.1737 2.1424 25.1569C2.14913 25.1031 2.14913 25.0493 2.1424 24.9955V14.395C2.1424 12.7202 3.48092 11.3816 5.15575 11.3816Z" fill="#F22F3B"/>
</svg>
